<svg width="120" height="120" viewBox="0 0 120 120" fill="none" xmlns="http://www.w3.org/2000/svg">
<path fill-rule="evenodd" clip-rule="evenodd" d="M0 20C0 8.95431 8.95431 0 20 0H100C111.046 0 120 8.95431 120 20V100C120 111.046 111.046 120 100 120H20C8.95431 120 0 111.046 0 100V20Z" fill="#061421"/>
<mask id="mask0_7_932" style="mask-type:alpha" maskUnits="userSpaceOnUse" x="0" y="0" width="120" height="120">
<path fill-rule="evenodd" clip-rule="evenodd" d="M0 20C0 8.95431 8.95431 0 20 0H100C111.046 0 120 8.95431 120 20V100C120 111.046 111.046 120 100 120H20C8.95431 120 0 111.046 0 100V20Z" fill="white"/>
</mask>
<g mask="url(#mask0_7_932)">
<mask id="mask1_7_932" style="mask-type:alpha" maskUnits="userSpaceOnUse" x="-63" y="34" width="246" height="87">
<path fill-rule="evenodd" clip-rule="evenodd" d="M-62.2419 34.2217H182.292V120.93H-62.2419V34.2217Z" fill="white"/>
</mask>
<g mask="url(#mask1_7_932)">
<path fill-rule="evenodd" clip-rule="evenodd" d="M38.3156 120.93H182.292C40.7066 87.6912 151.087 75.9822 91.7171 61.5105C88.408 60.1709 77.9353 62.093 74.3421 60.7162C73.6853 65.2699 7.69384 34.2639 7.4408 34.2257C0.231785 33.7754 -55.2157 71.4389 -62.2419 70.6209C-62.057 72.7867 17.1534 84.3407 16.9416 86.7255C26.5674 81.6978 39.2359 97.3903 38.3156 120.93" fill="#0B2B4A"/>
</g>
<path fill-rule="evenodd" clip-rule="evenodd" d="M68.7286 26.3366L49.8746 28.2948L72.9527 32.4963L71.8497 58.3021L63.9766 67.7068L52.468 71.3733L43.97 67.0758L42.3237 64.754L-26.5616 53.7123L-12.4638 39.1651L10.2818 26.4802L29.0914 12.4814L68.8969 18.0586L68.7286 26.3366Z" fill="#21110B"/>
<path fill-rule="evenodd" clip-rule="evenodd" d="M29.201 23.7461C50.2548 23.7461 78.5342 42.7798 73.1285 55.3666C70.1622 62.274 68.1276 65.9674 55.425 69.0493C50.3922 70.2711 43.0045 70.835 37.0307 70.835C15.9758 70.835 -1.09137 62.3257 -1.09137 51.8282C-1.09137 41.3318 8.14712 23.7461 29.201 23.7461" fill="#591C08"/>
<path fill-rule="evenodd" clip-rule="evenodd" d="M38.9536 53.2434C40.412 52.1992 43.7758 51.0683 45.2341 50.0231C47.6034 20.5333 68.6872 13.6558 68.7285 26.3366C70.3325 26.0454 70.5308 26.0092 72.1347 25.718C72.5943 21.6724 70.1259 14.418 66.4305 13.1084C62.8353 13.8489 62.164 10.6214 58.6824 11.4693C50.8785 13.3687 40.3861 19.4622 32.3292 21.124C34.6984 31.8291 36.5844 42.5393 38.9536 53.2434" fill="#6E3D2D"/>
<path fill-rule="evenodd" clip-rule="evenodd" d="M4.26823 53.7699C17.1753 55.063 31.0666 56.1371 43.9726 57.4302C44.6821 69.196 53.6397 72.1932 61.8908 66.1657C73.2827 57.8433 70.2111 40.1275 68.3458 34.0825C69.2568 33.344 71.7128 32.4961 72.9522 32.4961C77.512 53.7895 70.8081 78.9757 43.9591 74.5779C42.9304 74.359 36.7863 69.9561 35.7596 69.7372C13.6028 65.0172 -4.40221 58.4341 -26.5612 53.7121C-16.2847 53.7317 -6.00823 53.7493 4.26823 53.7699" fill="#6E3D2D"/>
<path fill-rule="evenodd" clip-rule="evenodd" d="M-62.2407 0C-46.4335 1.56987 -28.0826 3.17279 -10.6807 4.92237C28.0662 8.81504 58.9348 6.35075 67.9099 13.9853C50.631 8.00738 39.6688 33.8473 39.2309 53.2393C19.9844 53.5306 1.66444 53.8094 -17.583 54.1007C1.66444 56.2882 20.2024 58.0646 39.4498 60.2521C39.6688 62.8269 41.1064 70.258 45.973 74.8695C9.20292 71.173 -26.6418 66.1969 -62.2407 61.1919V0Z" fill="#2E1B14"/>
<path fill-rule="evenodd" clip-rule="evenodd" d="M3.17392 60.726L-34.5887 56.7651L-46.0839 55.5908C-45.9889 58.0954 -46.1397 60.7043 -46.5797 63.3854C-46.4464 63.404 -46.3122 63.4226 -46.1779 63.4422C-45.9207 63.4774 -45.6635 63.5125 -45.4074 63.5486C-42.909 60.886 -40.4572 61.609 -38.9007 64.4503C-36.8217 64.7374 -34.7416 65.0235 -32.6594 65.3085C-27.5408 60.4089 -20.0602 61.4159 -15.8856 66.5613C-15.6015 66.9125 -15.332 67.2833 -15.08 67.6716C-12.72 67.9814 -6.42192 68.7974 -4.05575 69.102C-3.55897 68.3688 -3.04979 67.6923 -2.53029 67.0684C0.0951167 63.9153 2.98802 62.1244 5.83961 61.4727C6.50061 61.3219 7.15851 61.231 7.81124 61.2L3.17392 60.726Z" fill="#21110B"/>
<path fill-rule="evenodd" clip-rule="evenodd" d="M14.67 66.5621C15.6935 68.0463 16.5301 69.7752 17.1219 71.7076C18.8942 71.9183 20.6686 72.1248 22.444 72.3293C30.2489 73.2268 38.089 74.0779 45.9724 74.87C43.4699 72.4987 41.8732 69.3807 40.8837 66.5621C40.6235 65.8195 40.4045 65.0997 40.2227 64.418C40.2217 64.4139 40.2207 64.4108 40.2197 64.4056L40.0348 64.3881L37.839 64.1639L7.13977 61.0283C9.02878 61.5117 10.8001 62.4939 12.3462 63.8933C13.1951 64.6607 13.9759 65.5541 14.67 66.5621" fill="#21110B"/>
<path fill-rule="evenodd" clip-rule="evenodd" d="M4.98593 23.3227C12.3767 23.7462 10.5548 23.8588 5.3691 23.9218C-22.7977 24.2667 -49.6095 21.6723 -62.2418 19.2628V16.8408C-39.9351 20.6922 -17.582 22.0307 4.98593 23.3227" fill="#47291F"/>
<path fill-rule="evenodd" clip-rule="evenodd" d="M86.367 40.9583C101.379 39.658 107.776 44.2695 92.1022 55.8297C90.2143 51.2895 88.254 45.4985 86.367 40.9583" fill="#78260B"/>
<path fill-rule="evenodd" clip-rule="evenodd" d="M71.6668 34.0909C63.145 21.6641 55.5219 19.646 56.534 39.0959C61.2405 37.6727 66.9592 35.5141 71.6668 34.0909" fill="#78260B"/>
<path fill-rule="evenodd" clip-rule="evenodd" d="M60.8772 40.3701C66.8922 40.5777 78.155 49.3029 74.9203 54.4866C65.5992 69.4148 75.6608 55.1548 76.0089 55.4977C78.9627 58.3968 80.862 61.6171 80.862 64.3706C80.862 78.7411 52.4215 81.8809 45.6432 63.7437C43.181 57.1554 45.038 39.8217 60.8772 40.3701" fill="#78260B"/>
<path fill-rule="evenodd" clip-rule="evenodd" d="M83.316 71.0873C81.0056 69.5784 78.6942 68.0705 76.3849 66.5615C74.2356 67.2545 69.9814 66.3983 70.5391 68.5848C70.7137 69.2675 70.7488 69.724 70.6889 70.0163C70.6001 70.4449 70.3109 70.5926 69.9484 70.5771C68.5107 70.5151 67.9984 69.3233 67.1402 68.5476C65.498 67.0635 63.4365 67.8794 63.7319 69.4565C61.596 68.937 61.3265 70.6711 61.6157 71.3176C59.801 70.0142 58.8054 72.3153 60.3784 74.7042C69.2987 88.2361 98.7452 82.7529 83.316 71.0873" fill="#94300F"/>
<path fill-rule="evenodd" clip-rule="evenodd" d="M73.8423 69.9907C67.979 68.3051 62.0847 65.5733 57.6746 62.5741C52.6314 59.1482 49.4359 55.9858 50.2116 49.54C51.3714 39.8956 62.2459 33.9879 71.6672 34.0902C79.2831 34.1718 86.7575 39.2522 89.9727 46.1069C93.8571 54.3911 92.7334 64.996 86.7235 69.4309C82.522 72.5314 78.4672 71.3189 73.8423 69.9907" fill="#78260B"/>
<path fill-rule="evenodd" clip-rule="evenodd" d="M60.9583 36.4296C62.4642 35.7077 64.8531 34.8701 66.456 34.616C63.9266 31.4794 60.8282 30.3815 60.9583 36.4296" fill="#591C08"/>
<path fill-rule="evenodd" clip-rule="evenodd" d="M91.3536 50.7185C90.957 49.0969 90.0874 46.7184 89.2673 45.3179C93.2963 45.2838 96.1118 46.9817 91.3536 50.7185" fill="#591C08"/>
<path fill-rule="evenodd" clip-rule="evenodd" d="M50.8885 57.4651C44.7918 57.6117 40.2092 51.2703 47.7838 50.9749C41.6934 46.8065 47.6578 45.8222 51.0661 46.0505C52.3117 45.9689 53.7039 45.8501 55.2004 45.5805C61.8373 44.272 65.8467 44.4444 67.1934 49.9524C68.123 53.7552 67.9092 60.6813 68.0662 64.8115L68.5134 64.7154C68.7427 64.6101 68.5795 65.3485 68.7044 65.1781C71.9309 62.5951 76.654 57.6892 79.9703 55.6122C84.1336 53.0044 88.3661 55.6339 91.7165 61.5106C94.4328 64.5574 94.756 66.6333 94.8252 68.1175C94.9079 69.8733 92.8536 69.3589 90.9553 68.858C94.3739 75.3286 88.332 75.0311 85.7644 72.3954C79.7369 72.3923 72.7169 70.6902 65.1361 66.938C59.0601 64.6483 54.4083 61.5313 50.8885 57.4651" fill="#C49173"/>
<path fill-rule="evenodd" clip-rule="evenodd" d="M59.4046 28.2688L61.9577 30.7052L62.3626 27.9228L65.994 30.7392L66.9586 28.086C61.6417 22.6534 57.3968 22.8889 56.584 32.1594L58.4617 32.2492L59.4046 28.2688Z" fill="#050302"/>
<path fill-rule="evenodd" clip-rule="evenodd" d="M96.9423 44.3128L95.0491 46.3919L98.5524 46.8194L96.2059 51.0963L97.3348 51.4681C103.984 44.9563 101.472 41.5273 93.8996 40.8643L92.4609 43.2945L96.9423 44.3128Z" fill="#050302"/>
<path fill-rule="evenodd" clip-rule="evenodd" d="M69.5562 62.9203C70.7615 63.4842 71.4721 64.5057 71.1467 65.2028C70.8203 65.9 69.5789 66.0084 68.3747 65.4445C67.1704 64.8816 66.4588 63.8602 66.7852 63.163C67.1115 62.4659 68.3519 62.3564 69.5562 62.9203" fill="black"/>
<path fill-rule="evenodd" clip-rule="evenodd" d="M57.3566 52.3464C59.0473 50.6929 60.7298 50.2137 62.1065 50.4719C62.785 50.5999 63.3872 50.9057 63.8798 51.3415C64.3673 51.7722 64.7464 52.3289 64.9839 52.9609C65.4993 54.3315 65.3547 56.0656 64.2196 57.6323L63.4171 57.0519C64.3384 55.7785 64.4644 54.3924 64.0564 53.31C63.8757 52.8267 63.5896 52.4043 63.225 52.081C62.8646 51.7629 62.4215 51.5377 61.9247 51.4438C60.8413 51.2413 59.4759 51.6575 58.0455 53.056L57.3566 52.3464Z" fill="#1A1A1A"/>
<path fill-rule="evenodd" clip-rule="evenodd" d="M75.3168 63.3918C76.7162 61.4852 78.2985 60.7385 79.699 60.7695C80.3889 60.785 81.0334 60.9895 81.589 61.3396C82.1405 61.6856 82.6063 62.172 82.942 62.7566C83.6743 64.0249 83.8147 65.759 82.9492 67.491L82.062 67.0479C82.7654 65.6433 82.6631 64.2552 82.0858 63.2513C81.8276 62.8051 81.4764 62.4344 81.0633 62.1751C80.6564 61.919 80.1834 61.7692 79.6773 61.7579C78.5753 61.7341 77.2956 62.3683 76.1131 63.9795L75.3168 63.3918Z" fill="#1A1A1A"/>
<path fill-rule="evenodd" clip-rule="evenodd" d="M66.0432 103.275C66.0432 104.653 69.0714 105.771 72.806 105.771C76.5427 105.771 79.5689 104.653 79.5689 103.275C79.5689 101.897 76.5427 100.778 72.806 100.778C69.0714 100.778 66.0432 101.897 66.0432 103.275" fill="#183A5C"/>
<path fill-rule="evenodd" clip-rule="evenodd" d="M39.2254 88.7252C39.2254 89.4141 40.7395 89.9729 42.6069 89.9729C44.4752 89.9729 45.9883 89.4141 45.9883 88.7252C45.9883 88.0363 44.4752 87.4766 42.6069 87.4766C40.7395 87.4766 39.2254 88.0363 39.2254 88.7252" fill="#183A5C"/>
<mask id="mask2_7_932" style="mask-type:alpha" maskUnits="userSpaceOnUse" x="-63" y="29" width="107" height="92">
<path fill-rule="evenodd" clip-rule="evenodd" d="M-62.2418 29.8613H43.9584V120.93H-62.2418V29.8613Z" fill="white"/>
</mask>
<g mask="url(#mask2_7_932)">
<path fill-rule="evenodd" clip-rule="evenodd" d="M43.9084 120.93C44.8793 97.3906 31.5075 81.6981 21.3446 86.7258C28.9141 61.2484 -0.33614 46.502 -10.6147 80.7076C-5.89679 61.1844 -30.8495 54.0756 -35.8906 74.0181C-35.2761 63.4865 -41.0382 57.4694 -46.2125 65.8186C-41.8551 47.667 -51.7257 32.1893 -62.2418 29.8613V120.93H-50.4502C-33.918 120.816 -18.5683 120.39 -7.0081 120.39C4.71947 120.39 13.0253 120.657 19.6704 120.93H43.9084Z" fill="#061421"/>
</g>
</g>
</svg>
