<svg width="750" height="695" viewBox="0 0 750 695" fill="none" xmlns="http://www.w3.org/2000/svg">
<g clip-path="url(#clip0_7_3024)">
<path fill-rule="evenodd" clip-rule="evenodd" d="M858.373 551.686C517.036 541.009 186.347 518.806 -154.99 508.132C-248.759 381.702 -206.847 279.08 -108.508 237.487C31.1985 178.4 95.3536 296.899 219.39 243.015C258.253 226.132 290.276 195.95 320.694 160.326C567.878 -110.82 1081.11 35.5218 858.373 551.686Z" fill="#FCEAA4"/>
<path fill-rule="evenodd" clip-rule="evenodd" d="M9.50949 200.312C10.0352 200.548 10.5582 200.766 11.076 200.968H31.0487C48.974 192.478 50.8848 161.418 20.5905 165.972C26.62 141.813 -19.9095 132.241 -29.2821 149.192C-35.6742 141.768 -44.4292 140.77 -51.4732 145.802C-57.6576 113.219 -132.045 97.6864 -142.206 161.781C-175.36 154.087 -185.739 185.625 -171.67 200.968H9.32288C9.39122 200.753 9.4543 200.532 9.50949 200.312Z" fill="#FCEAA4"/>
<path fill-rule="evenodd" clip-rule="evenodd" d="M723.108 168.607C722.737 168.773 722.372 168.925 722.009 169.067H707.995C695.416 163.111 694.078 141.318 715.333 144.512C711.102 127.561 743.751 120.844 750.327 132.739C754.811 127.532 760.956 126.831 765.897 130.363C770.237 107.501 822.43 96.601 829.561 141.573C852.824 136.174 860.105 158.303 850.233 169.07H723.237C723.19 168.915 723.145 168.762 723.108 168.607Z" fill="white"/>
<path fill-rule="evenodd" clip-rule="evenodd" d="M790.049 473.608L986.304 530.941C987.266 530.534 988.205 530.085 989.114 529.615C998.205 524.948 1005.13 517.28 1007.99 507.515C1014.16 486.454 999.102 463.517 974.353 456.285C964.042 453.273 953.666 453.467 944.627 456.264C947.965 451.545 950.572 446.217 952.273 440.403C966.634 391.331 879.413 355.534 853.715 406.271C833.043 367.784 743.081 393.579 790.049 473.608Z" fill="#7EB206"/>
<path fill-rule="evenodd" clip-rule="evenodd" d="M914.753 645.575C834.996 674.321 613.107 695.001 351.84 695.001C23.5027 695.001 -242.664 662.342 -242.664 622.054C-242.664 614.914 -234.266 608.016 -218.683 601.496C-396.474 555.441 -92.2308 533.129 -139.26 519.166C-162.307 512.326 -196.331 503.558 -151.97 490.142C-119.124 480.21 -41.1937 467.046 27.4006 457.086C58.8434 452.519 83.3211 459.079 114.301 455.931C205.26 446.692 324.894 425.68 431.954 427.993C516.355 429.815 588.088 435.7 662.572 450.676C712.308 460.676 758.467 453.549 802.741 460.626C849.867 468.16 1034.07 522.769 1025.73 548.312C1022.98 556.712 1008.23 558.509 976.398 564.448C914.564 575.99 928.307 588.487 944.185 597.688C966.271 610.487 968.466 616.907 945.113 632.364C937.007 637.731 926.412 642.461 914.753 645.575Z" fill="#A3CB04"/>
<path d="M217.608 525.082C271.52 525.082 315.224 520.139 315.224 514.042C315.224 507.945 271.52 503.003 217.608 503.003C163.696 503.003 119.992 507.945 119.992 514.042C119.992 520.139 163.696 525.082 217.608 525.082Z" fill="#8AB002"/>
<path fill-rule="evenodd" clip-rule="evenodd" d="M516.05 549.826C588.156 549.826 646.965 544.868 646.965 538.787C646.965 532.705 588.156 527.747 516.05 527.747C443.944 527.747 385.135 532.705 385.135 538.787C385.135 544.868 443.944 549.826 516.05 549.826Z" fill="#8AB002"/>
<path fill-rule="evenodd" clip-rule="evenodd" d="M181.232 551.946C181.232 549.238 191.522 547.043 204.217 547.043C216.906 547.043 227.196 549.238 227.196 551.946C227.196 554.653 216.906 556.848 204.217 556.848C191.522 556.848 181.232 554.653 181.232 551.946Z" fill="#8DB502"/>
<path fill-rule="evenodd" clip-rule="evenodd" d="M246.788 663.906C246.788 661.697 255.18 659.906 265.536 659.906C275.889 659.906 284.281 661.697 284.281 663.906C284.281 666.114 275.889 667.902 265.536 667.902C255.183 667.902 246.788 666.111 246.788 663.906Z" fill="#8DB502"/>
<path fill-rule="evenodd" clip-rule="evenodd" d="M94.9672 653.468C148.732 653.468 192.584 648.51 192.584 642.428C192.584 636.347 148.732 631.389 94.9672 631.389C41.2019 631.389 -2.64923 636.347 -2.64923 642.428C-2.6466 648.51 41.2019 653.468 94.9672 653.468Z" fill="#8AB002"/>
<path d="M403.071 594.357C456.982 594.357 500.685 586.815 500.685 577.512C500.685 568.208 456.982 560.666 403.071 560.666C349.161 560.666 305.457 568.208 305.457 577.512C305.457 586.815 349.161 594.357 403.071 594.357Z" fill="#8AB002"/>
<path fill-rule="evenodd" clip-rule="evenodd" d="M73.2966 524.904L43.1837 636.045L31.7557 636.04C31.7557 636.04 58.8959 515.944 58.3046 495.816C58.0575 487.271 78.0092 509.726 73.2966 524.904Z" fill="#E39152"/>
<path fill-rule="evenodd" clip-rule="evenodd" d="M12.4979 419.069C12.4979 419.069 25.8446 405.779 19.7101 391.777C14.7162 380.391 6.55526 329.731 20.0228 294.388C34.0871 257.473 84.262 243.655 114.18 265.653C129.619 257.457 138.182 265.196 145.894 285.289C160.804 324.135 125.666 414.978 129.054 417.281C107.305 435.689 17.6968 445.048 12.4979 419.069Z" fill="#8C3408"/>ยง
<path fill-rule="evenodd" clip-rule="evenodd" d="M139.896 339.411C124.436 346.648 104.08 347.294 84.4171 339.65C77.4546 336.94 71.1361 333.403 65.5851 329.264C64.129 347.893 64.694 366.403 55.9995 374.861C55.9995 374.861 31.9476 350.198 29.6057 334.012C27.4137 318.863 33.677 307.915 42.9656 300.042C39.1913 289.741 38.8549 278.88 42.7763 268.833C43.0181 268.197 43.2915 267.583 43.5701 266.974C5.97701 286.784 4.49462 357.094 19.7101 391.778C23.9259 401.397 18.5247 409.989 14.732 414.421C9.74341 420.254 12.3323 423.192 19.944 427.346C44.7266 440.878 116.457 432.519 142.545 413.001C135.683 410.136 131.617 401.861 134.692 392.644C139.05 379.564 135.748 360.345 139.896 339.411Z" fill="#8C3408"/>
<path fill-rule="evenodd" clip-rule="evenodd" d="M12.6871 421.666C25.8157 444.236 101.909 435.615 128.552 420.776C118.07 404.532 133.296 375.355 132.368 358.386C116.609 359.397 77.1076 355.258 63.2773 346.811C54.8719 377.224 49.836 421.278 12.6871 421.666Z" fill="#632303"/>
<path fill-rule="evenodd" clip-rule="evenodd" d="M91.1824 410.351C91.1824 410.351 102.829 468.08 125.02 461.329C136.697 457.781 142.756 441.918 145.878 427.675L138.708 425.122C133.612 438.381 126.762 452.149 121.208 448.911C110.992 442.937 103.974 386.571 91.1824 410.351Z" fill="#D68445"/>
<path fill-rule="evenodd" clip-rule="evenodd" d="M103.136 524.904L133.249 636.045L144.677 636.04C144.677 636.04 117.537 515.944 118.125 495.816C118.375 487.271 98.4235 509.726 103.136 524.904Z" fill="#E39152"/>
<path fill-rule="evenodd" clip-rule="evenodd" d="M106.913 410.863C102.061 394.379 69.0124 392.78 56.9667 408.956C40.1585 431.51 65.9871 510.027 21.2476 566.913C61.7792 587.834 121.4 578.086 145.804 563.357C131.264 515.552 114.606 436.996 106.913 410.863Z" fill="#FFCC00"/>
<path fill-rule="evenodd" clip-rule="evenodd" d="M86.8298 397.648L66.2447 403.418C78.4481 409.586 83.0319 426.313 93.9527 423.806C107.804 420.634 108.819 405.902 86.8298 397.648Z" fill="#FFCD9C"/>
<path fill-rule="evenodd" clip-rule="evenodd" d="M72.0849 417.858C70.5578 410.487 62.3627 401.713 56.9667 408.953C40.1585 431.508 65.9871 510.024 21.2476 566.91C34.6364 573.819 50.1015 577.38 65.698 578.514C73.5541 544.429 68.7364 515.641 67.07 489.434C65.0173 457.024 73.4017 424.197 72.0849 417.858Z" fill="#E0B509"/>
<path fill-rule="evenodd" clip-rule="evenodd" d="M70.5657 432.191C70.5657 419.781 66.6942 409.71 61.9211 409.71C57.148 409.71 53.2765 419.781 53.2765 432.191C53.2765 444.599 57.148 454.664 61.9211 454.664C66.6942 454.664 70.5657 444.599 70.5657 432.191Z" fill="#D19108"/>
<path fill-rule="evenodd" clip-rule="evenodd" d="M71.37 430.665C71.37 418.735 67.6535 409.069 63.0671 409.069C58.4806 409.069 54.7615 418.735 54.7615 430.665C54.7615 442.595 58.4832 452.269 63.0671 452.269C67.6535 452.269 71.37 442.595 71.37 430.665Z" fill="#E39152"/>
<path fill-rule="evenodd" clip-rule="evenodd" d="M59.4084 410.067C52.417 416.015 63.4482 478.534 88.3569 472.948C102.592 469.755 112.955 454.06 119.797 439.013L113.048 436.203C104.653 450.265 93.7108 460.428 86.3226 456.741C74.3768 450.772 71.9009 399.442 59.4084 410.067Z" fill="#E39152"/>
<path fill-rule="evenodd" clip-rule="evenodd" d="M144.046 557.463C119.755 571.317 64.3918 580.285 24.7196 562.226C23.6052 563.802 22.4698 565.367 21.2502 566.911C61.7818 587.832 121.403 578.085 145.807 563.356C145.224 561.439 144.632 559.469 144.046 557.463Z" fill="#D19108"/>
<path fill-rule="evenodd" clip-rule="evenodd" d="M102.86 403.912C102.773 403.613 102.687 403.319 102.603 403.032C102.695 403.332 102.779 403.623 102.86 403.912ZM88.6486 392.899L86.3699 368.257L88.6486 392.899Z" fill="#3D120D"/>
<path fill-rule="evenodd" clip-rule="evenodd" d="M72.106 417.974C72.0981 417.935 72.0928 417.898 72.0849 417.861C71.4725 414.912 69.7956 411.738 67.6562 409.456C65.9057 407.105 63.7268 405.462 60.6227 405.136C62.2786 403.731 64.1053 402.513 66.0844 401.507L66.2447 403.421C77.6044 409.164 82.3643 424.061 91.7817 424.064C92.4782 424.064 93.201 423.982 93.9527 423.812C107.218 420.771 108.708 407.129 89.4871 398.729L87.6894 398.08L87.5737 397.901L89.6159 398.117C97.9819 399.561 104.808 403.946 106.916 410.868C107.021 411.226 107.129 411.593 107.236 411.971C111.41 427.01 104.39 432.609 94.4573 433.846C81.5049 435.466 76.8659 428.735 72.106 417.974Z" fill="#EDBE00"/>
<path fill-rule="evenodd" clip-rule="evenodd" d="M91.7816 424.061C82.3643 424.059 77.6044 409.164 66.2447 403.418C69.9165 404.855 73.7013 405.493 77.2128 405.493C82.4274 405.493 80.9056 398.891 83.6417 396.617L89.4871 398.723C108.711 407.124 107.221 420.766 93.9526 423.806C93.2009 423.98 92.4781 424.061 91.7816 424.061Z" fill="#D68445"/>
<path fill-rule="evenodd" clip-rule="evenodd" d="M72.1085 417.972C70.7208 414.831 69.3987 411.793 67.6561 409.453C69.7956 411.735 71.4751 414.91 72.0849 417.859C72.0927 417.896 72.1006 417.935 72.1085 417.972Z" fill="#467E83"/>
<path fill-rule="evenodd" clip-rule="evenodd" d="M80.6796 409.576C77.1681 409.576 69.9139 404.857 66.2448 403.418L66.0845 401.504L69.6616 366.938L87.9469 372.272L87.6762 399.267C88.0862 403.731 85.613 409.576 80.6796 409.576Z" fill="#D68445"/>
<path fill-rule="evenodd" clip-rule="evenodd" d="M94.5651 390.386C100.765 390.189 108.648 389.543 116.257 387.024C132.46 381.66 160.092 355.127 142.127 331.667C142.135 289.163 131.601 281.406 102.405 280.41C93.0958 280.093 80.9266 286.77 72.7131 291.003C54.8194 300.228 44.3507 314.267 43.1522 334.854C43.6121 381.694 75.5017 390.992 94.5651 390.386Z" fill="#E39152"/>
<path fill-rule="evenodd" clip-rule="evenodd" d="M55.9995 374.861C74.1061 357.244 53.881 294.515 101.28 280.271C101.28 280.271 23.0638 288.806 29.6057 334.012C31.9476 350.198 55.9995 374.861 55.9995 374.861Z" fill="#8C3408"/>
<path fill-rule="evenodd" clip-rule="evenodd" d="M91.185 310.244C85.676 309.438 80.0934 312.216 77.2811 314.285C76.1246 315.139 74.7737 317.273 73.4043 316.528C71.5356 315.517 73.6277 313.098 74.6133 312.253C78.0249 309.338 85.1976 305.803 91.8788 306.78C95.2536 307.715 94.5782 310.698 91.185 310.244Z" fill="#B34209"/>
<path fill-rule="evenodd" clip-rule="evenodd" d="M119.697 312.959C124.32 311.583 129.004 313.781 131.367 315.561C132.339 316.294 133.472 318.29 134.621 317.405C136.187 316.199 134.434 313.996 133.604 313.256C130.741 310.695 124.72 307.904 119.114 309.571C116.283 310.853 116.848 313.765 119.697 312.959Z" fill="#B34209"/>
<path fill-rule="evenodd" clip-rule="evenodd" d="M129.956 419.439C131.23 414.986 131.409 409.823 129.769 409.14C128.355 408.565 128.247 412.407 126.957 415.335C125.819 417.948 125.456 418.864 124.862 418.531C124.465 418.31 125.356 414.66 126.184 410.59C127.254 405.49 127.23 401.95 125.564 401.302C123.984 400.795 124.042 404.259 122.63 408.712C121.411 412.617 121.08 414.424 119.463 413.87C118.68 413.636 119.237 410.892 119.345 406.533C119.503 401.543 118.549 398.342 117.187 398.279C115.263 398.224 116.562 400.643 115.718 406.22C114.59 413.704 115.339 415.794 112.233 418.838C109.331 421.687 108.387 407.368 105.478 409.395C101.654 412.097 109.951 437.721 114.935 439.276C122.149 441.484 125.887 433.53 129.956 419.439Z" fill="#E39152"/>
<path fill-rule="evenodd" clip-rule="evenodd" d="M162.736 420.875C166.529 418.213 169.833 413.919 168.986 412.359C168.248 411.023 165.748 413.945 162.902 415.413C160.373 416.734 159.514 417.215 159.264 416.585C159.093 416.162 162.084 413.885 165.288 411.238C169.328 407.94 171.536 405.172 170.645 403.623C169.735 402.239 167.601 404.967 163.701 407.546C160.297 409.82 158.901 411.017 157.995 409.568C157.424 408.735 164.818 402.063 166.221 398.192C167.218 395.445 164.926 395.23 162.694 397.163C158.757 400.579 153.939 408.439 149.248 408.89C145.2 409.287 153.471 397.552 149.931 397.305C145.258 397.005 135.593 422.146 138.495 426.487C142.714 432.734 150.706 429.281 162.736 420.875Z" fill="#D68445"/>
<path fill-rule="evenodd" clip-rule="evenodd" d="M110.403 364.094C115.287 370.063 99.5169 382.626 87.1348 373.603C82.5957 370.294 79.1078 361.4 79.4127 355.736C79.6834 350.718 82.9636 349.481 86.1439 351.435C90.9538 354.386 108.014 361.174 110.403 364.094Z" fill="#990000"/>
<path fill-rule="evenodd" clip-rule="evenodd" d="M112.806 348.52L118.191 349.35C119.766 349.591 120.859 351.033 120.625 352.548C120.388 354.066 118.909 355.108 117.337 354.864L111.952 354.034C110.377 353.793 109.284 352.354 109.518 350.836C109.754 349.318 111.234 348.276 112.806 348.52Z" fill="#F53939"/>
<path fill-rule="evenodd" clip-rule="evenodd" d="M115.481 349.508L118.825 350.122C119.387 350.225 119.763 350.771 119.658 351.333C119.553 351.895 119.006 352.27 118.443 352.168L115.1 351.553C114.538 351.451 114.162 350.905 114.267 350.343C114.37 349.778 114.916 349.403 115.481 349.508Z" fill="#F78383"/>
<path fill-rule="evenodd" clip-rule="evenodd" d="M26.407 396.966C24.0914 387.413 15.8017 369.265 13.4861 359.712C13.4651 360.733 11.8224 362.335 12.3664 365.087C14.2825 374.743 13.8541 391.092 9.83272 397.972C6.17145 404.243 11.5648 405.209 17.3944 403.807C20.4039 403.08 23.6341 401.071 26.407 396.966Z" fill="#8C3408"/>
<path fill-rule="evenodd" clip-rule="evenodd" d="M82.5168 366.261C84.6195 364.36 89.5528 365.011 93.469 367.632C97.3852 370.253 98.9255 374.053 97.4615 376.174C90.6909 376.061 84.5353 371.316 82.5168 366.261Z" fill="#D43131"/>
<path fill-rule="evenodd" clip-rule="evenodd" d="M84.7666 352.394C84.304 353.964 83.5654 354.536 85.0347 356.456C85.605 357.202 86.2516 357.898 86.9612 358.541C87.3082 358.856 88.8668 356.243 89.7499 356.889C91.0036 357.806 89.65 360.55 90.0916 360.839C93.9973 363.394 98.3761 364.452 103.756 365.174C106.219 365.505 106.973 364.982 107.594 363.848C102.587 360.545 89.1401 355.077 84.9611 352.509L84.7666 352.394Z" fill="white"/>
<path fill-rule="evenodd" clip-rule="evenodd" d="M173.357 502.638C172.479 503.29 170.335 501.89 168.569 499.513C166.8 497.134 166.079 494.679 166.957 494.028C167.838 493.377 169.983 494.776 171.751 497.153C173.515 499.529 174.235 501.984 173.357 502.638Z" fill="#C0E627"/>
<path fill-rule="evenodd" clip-rule="evenodd" d="M95.1433 336.278C92.9566 335.626 91.7764 333.108 92.5045 330.642C93.2352 328.171 95.6007 326.698 97.7901 327.349C99.9847 327.995 101.167 330.524 100.434 332.985C99.7035 335.45 97.338 336.924 95.1433 336.278Z" fill="#82340D"/>
<path fill-rule="evenodd" clip-rule="evenodd" d="M94.3259 256.669C59.1745 265.873 51.6733 307.792 42.2717 342.767C34.66 371.08 28.3363 394.22 10.3243 397.048C27.2692 394.388 33.2118 370.1 40.6737 342.339C50.1935 306.933 56.9194 265.829 93.0065 256.378L94.3259 256.669Z" fill="#A6491B"/>
<path fill-rule="evenodd" clip-rule="evenodd" d="M91.4689 256.084C59.4636 262.898 39.5014 299.657 25.2322 326.993L10.9078 351.748L10.8578 350.167C10.892 351.278 19.0451 335.283 23.7682 326.234C38.1925 298.598 57.4504 262.849 90.2099 255.874L91.4689 256.084Z" fill="#A6491B"/>
<path fill-rule="evenodd" clip-rule="evenodd" d="M6.91268 637.066C10.3873 633.977 18.5141 630.396 33.4641 628.379C32.5416 631.95 40.65 633.717 44.6818 630.511C48.5691 632.32 52.6956 640.663 49.8623 642.914C48.8188 643.741 46.908 644.003 44.2271 644.003C33.677 644.003 23.1295 644.003 12.5794 644.003C4.90462 644.003 0.909559 642.396 6.91268 637.066Z" fill="#FFCC00"/>
<path fill-rule="evenodd" clip-rule="evenodd" d="M169.499 637.066C166.024 633.977 157.897 630.396 142.947 628.379C143.87 631.95 135.762 633.717 131.73 630.511C127.842 632.32 123.719 640.663 126.552 642.914C127.595 643.741 129.506 644.003 132.187 644.003C142.737 644.003 153.285 644.003 163.835 644.003C171.507 644.003 175.502 642.396 169.499 637.066Z" fill="#FFCC00"/>
<path fill-rule="evenodd" clip-rule="evenodd" d="M124.205 338.05C122.018 337.399 120.841 334.883 121.566 332.418C122.299 329.947 124.662 328.474 126.852 329.125C129.046 329.768 130.229 332.3 129.498 334.76C128.765 337.223 126.4 338.696 124.205 338.05Z" fill="#82340D"/>
<path fill-rule="evenodd" clip-rule="evenodd" d="M569.831 148.398C581.367 138.711 570.01 113.995 547.448 112.546C530.435 111.469 508.441 142.852 509.911 169.878C511.369 196.91 501.539 201.784 496.974 201.172C496.974 201.172 526.382 213.579 535.014 175.162C544.192 134.22 557.249 158.959 569.831 148.398Z" fill="#E18303"/>
<path fill-rule="evenodd" clip-rule="evenodd" d="M497.142 201.227L497.195 201.261C497.068 201.208 496.974 201.169 496.974 201.169C513.929 203.446 501.368 152.822 518.108 129.068C525.426 118.682 539.274 112.025 547.451 112.543C553.783 112.96 559.234 115.19 563.542 118.425C572.136 127.424 559.108 128.17 544.986 137.019C514.581 154.146 526.101 210.491 497.142 201.227Z" fill="#FEAE01"/>
<path fill-rule="evenodd" clip-rule="evenodd" d="M545.288 113.864C549.375 113.312 552.886 114.363 553.136 116.198C553.383 118.036 550.119 118.669 546.032 119.221C541.945 119.772 538.588 120.027 538.341 118.191C538.092 116.356 541.201 114.415 545.288 113.864Z" fill="#FFCC00"/>
<path fill-rule="evenodd" clip-rule="evenodd" d="M642.796 171.543C656.201 219.856 607.275 254.214 575.501 243.035L531.413 176.451C526.243 154.569 541.924 132.965 571.479 128.756C597.931 124.987 629.1 135.158 642.796 171.543Z" fill="#FEAE01"/>
<path fill-rule="evenodd" clip-rule="evenodd" d="M583.133 157.557C592.054 157.439 598.987 157.16 604.504 156.685C618.952 155.443 623.665 152.838 628.845 148.177C634.417 154.274 639.196 161.984 642.796 171.543C660.822 223.187 607.997 260.915 577.635 246.209L533.702 180.802C544.578 186.201 569.208 157.743 583.133 157.557Z" fill="#E18303"/>
<path fill-rule="evenodd" clip-rule="evenodd" d="M620.266 160.698C620.272 155.661 623.533 151.88 627.555 152.253C631.566 152.621 634.827 157.011 634.812 162.05C634.814 167.09 631.55 170.879 627.531 170.506C623.515 170.136 620.261 165.753 620.266 160.698Z" fill="#E848A0"/>
<path fill-rule="evenodd" clip-rule="evenodd" d="M628.02 164.597C622.658 148.334 648.878 138.235 671.837 154.526C689.152 166.8 691.502 207.676 673.548 227.144C655.591 246.605 662.246 257.9 667.082 260.959C667.082 260.959 630.709 247.753 645.756 211.819C661.786 173.546 633.886 182.33 628.02 164.597Z" fill="#FEAE01"/>
<path fill-rule="evenodd" clip-rule="evenodd" d="M671.79 154.493L671.837 154.53C689.152 166.804 691.502 207.679 673.548 227.148C655.591 246.609 662.246 257.904 667.085 260.963C667.085 260.963 630.499 248.261 645.546 212.34C660.259 177.174 638.171 181.199 629.889 168.434C647.188 180.603 685.276 177.567 671.79 154.493Z" fill="#E18303"/>
<path fill-rule="evenodd" clip-rule="evenodd" d="M442.428 196.416L425.325 199.83C473.863 237.854 503.676 255.702 521.304 262.911C548.539 274.047 549.614 254.786 524.653 250.364C498.125 236.903 442.428 196.416 442.428 196.416Z" fill="#EDAC7A"/>
<path fill-rule="evenodd" clip-rule="evenodd" d="M730.092 224.562L745.869 231.988C689.599 257.221 656.361 267.378 637.514 270.135C608.397 274.397 611.993 255.44 637.285 257.152C666.278 250.464 730.092 224.562 730.092 224.562Z" fill="#EDAC7A"/>
<path fill-rule="evenodd" clip-rule="evenodd" d="M527.244 242.383C545.8 252.359 567.284 264.302 569.508 267.805L564.808 279.997C559.807 283.098 560.848 286.846 553.982 284.926C543.59 282.022 524.813 271.536 516.678 268.968L527.244 242.383Z" fill="#E848A0"/>
<path fill-rule="evenodd" clip-rule="evenodd" d="M523.488 239.98L513.795 268.028L520.298 270.113L529.86 243.242L523.488 239.98Z" fill="#FF99CC"/>
<path fill-rule="evenodd" clip-rule="evenodd" d="M509.6 387.202C486.899 409.048 454.137 442.681 437.453 463.014C432.149 468.071 434.267 479.455 443.198 476.866C443.926 476.653 444.365 474.93 445.18 474.544C445.18 474.544 490.55 425.596 522.571 396.624C517.701 393.539 514.938 388.972 509.6 387.202Z" fill="#EDAC7A"/>
<path fill-rule="evenodd" clip-rule="evenodd" d="M597.145 416.306C598.002 447.784 597.763 494.715 595.392 520.901C595.623 528.222 586.127 534.855 581.575 526.754C581.204 526.092 582.1 524.556 581.79 523.711C581.79 523.711 583.788 457.027 581.283 413.938C586.923 415.148 592.096 413.83 597.145 416.306Z" fill="#EDAC7A"/>
<path fill-rule="evenodd" clip-rule="evenodd" d="M454.358 464.645C451.285 467.938 449.743 469.585 449.172 470.611C448.746 471.378 448.789 472.339 448.881 472.636C441.482 472.434 434.086 472.229 426.687 472.027C428.151 467.993 429.617 463.96 431.081 459.926C435.881 460.042 437.445 460.436 438.785 459.837C440.252 459.181 443.193 455.735 444.809 454.283C446.176 457.132 448.492 462.166 454.358 464.645Z" fill="#E6E6E6"/>
<path fill-rule="evenodd" clip-rule="evenodd" d="M582.19 510.22C582.072 514.721 582.014 516.977 581.701 518.109C581.467 518.954 580.763 519.608 580.489 519.758C585.906 524.797 591.323 529.834 596.74 534.87C598.528 530.968 600.312 527.066 602.097 523.164C598.593 519.886 597.2 519.07 596.667 517.704C596.081 516.207 596.401 511.691 596.27 509.524C593.3 510.596 588.114 512.563 582.19 510.22Z" fill="#E6E6E6"/>
<path fill-rule="evenodd" clip-rule="evenodd" d="M594.635 279.058C590.046 279.058 539.198 282.072 556.059 266.511C556.931 265.707 557.943 263.066 559.536 261.02C560.443 259.854 561.276 259.087 562.598 258.029L556.939 225.315C560.067 222.754 569.85 225.047 573.795 223.629L581.83 223.708L585.154 253.179L586.321 262.997C582.195 265.153 598.275 279.058 594.635 279.058Z" fill="#E39152"/>
<path fill-rule="evenodd" clip-rule="evenodd" d="M600.943 412.068L577.241 411.81L570.99 390.96L559.702 385.939L534.483 407.995L505.258 384.219C505.258 384.219 538.454 350.596 549.141 338.853C549.903 335.77 605.206 348.512 605.206 348.512C608.628 376.213 600.076 393.119 600.943 412.068Z" fill="#5298CC"/>
<path fill-rule="evenodd" clip-rule="evenodd" d="M567.056 383.313L564.806 415.101L605.719 419.116C605.719 419.116 607.653 375.546 607.669 360.804L567.056 383.313Z" fill="#5298CC"/>
<path fill-rule="evenodd" clip-rule="evenodd" d="M558.756 384.267L559.704 385.937L536.283 406.695L531.831 405.4L558.756 384.267Z" fill="#3A82AF"/>
<path fill-rule="evenodd" clip-rule="evenodd" d="M560.85 259.341C557.318 276.594 580.521 266.434 585.812 258.729C589.641 259.223 602.365 265.872 604.446 270.961C607.482 291.412 608.82 332.947 609.304 367.536C582.053 367.57 550.418 369.359 526.645 360.588C532.748 342.277 537.143 308.434 543.695 281.764C546.402 270.749 555.239 263.737 560.85 259.341Z" fill="#E848A0"/>
<path fill-rule="evenodd" clip-rule="evenodd" d="M636.284 250.251C615.79 255.154 595.66 259.964 591.06 260.899L589.525 279.194C592.051 281.868 589.302 285.171 594.138 285.625C608.752 286.996 636.707 278.572 639.553 278.438L636.284 250.251Z" fill="#E848A0"/>
<path fill-rule="evenodd" clip-rule="evenodd" d="M579.99 385.908C579.99 385.908 573.803 387.003 569.797 386.735C565.237 386.438 558.122 384.062 558.122 384.062C558.122 384.062 562.785 390.957 570.499 390.957C576.704 390.957 579.99 385.908 579.99 385.908Z" fill="#3A82AF"/>
<path fill-rule="evenodd" clip-rule="evenodd" d="M532.328 410.671L537.195 406.202L503.829 383.256L499.497 388.529L532.328 410.671Z" fill="#D2EEFF"/>
<path fill-rule="evenodd" clip-rule="evenodd" d="M606.633 421.369L607.524 415.353L563.053 411.346L563.513 418.034L606.633 421.369Z" fill="#D2EEFF"/>
<path fill-rule="evenodd" clip-rule="evenodd" d="M591.841 271.684C591.92 270.121 592.001 269.16 592.001 269.16C592.004 269.16 591.92 270.119 591.841 271.684ZM592.698 269.811C592.264 269.396 592.022 269.176 592.004 269.163C592.022 269.179 592.264 269.396 592.698 269.811Z" fill="#EB8B64"/>
<path fill-rule="evenodd" clip-rule="evenodd" d="M526.537 238.451C502.533 217.262 519.562 195.406 526.94 168.839C532.044 150.457 538.662 138.181 553.919 141.156C570.675 139.234 578.184 144.656 587.27 151.429C604.688 164.409 617.89 188.011 607.022 221.027C601.264 261.283 554.511 262.691 526.537 238.451Z" fill="#EDAC7A"/>
<path fill-rule="evenodd" clip-rule="evenodd" d="M595.373 240.774C581.036 217.645 612.444 166.69 576.447 140.457C576.447 140.457 642.266 166.898 627.076 212.125C597.032 193.662 595.373 240.774 595.373 240.774Z" fill="#E18303"/>
<path fill-rule="evenodd" clip-rule="evenodd" d="M606.738 210.801C614.663 203.238 628.724 209.178 627.915 219.223C627.087 229.262 607.196 230.338 602.181 227.639C597.15 224.923 602.544 214.814 606.738 210.801Z" fill="#EDAC7A"/>
<path fill-rule="evenodd" clip-rule="evenodd" d="M608.494 215.557C613.317 210.932 621.991 213.936 621.504 220.076C621.008 226.208 608.873 226.864 605.816 225.215C602.746 223.574 605.939 218.004 608.494 215.557Z" fill="#E39152"/>
<path fill-rule="evenodd" clip-rule="evenodd" d="M605.167 219.873C608.045 217.108 613.23 218.91 612.947 222.576C612.644 226.247 605.39 226.638 603.561 225.661C601.737 224.663 603.634 221.344 605.167 219.873Z" fill="#EDAC7A"/>
<path fill-rule="evenodd" clip-rule="evenodd" d="M573.083 142.957C587.22 146.833 591.505 152.841 594.477 184.276C598.07 204.717 622.527 169.377 605.937 148.776C585.804 123.769 559.66 139.278 573.083 142.957Z" fill="#FEAE01"/>
<path fill-rule="evenodd" clip-rule="evenodd" d="M441.274 198.105C445.256 193.974 443.124 185.92 441.876 181.335C440.825 177.457 439.765 174.946 437.771 180.437C436.438 184.077 436.724 187.955 436.175 188.399C435.276 189.113 432.766 183.649 426.789 177.102C425.27 175.437 421.53 170.256 418.988 172.935C418.048 173.925 418.324 176.214 423.428 181.382C433.013 191.093 415.138 174.269 411.747 178.612C410.341 180.411 412.612 182.186 414.194 183.381C417.438 185.833 422.103 189.329 422.836 189.82C418.076 188.845 414.189 186.692 411.708 186.246C409.061 185.77 406.727 188.924 410.835 191.043C411.708 191.492 412.767 191.989 413.834 192.49C417.443 194.179 421.18 195.914 418.402 196.132C417.464 196.206 414.72 195.027 412.121 194.798C411.524 194.751 405.736 195.956 414.25 200.105C417.603 201.736 427.152 205.544 432.761 205.612L441.274 198.105Z" fill="#EDAC7A"/>
<path fill-rule="evenodd" clip-rule="evenodd" d="M730.804 226.475C727.936 221.51 731.942 214.204 734.257 210.055C736.213 206.544 737.848 204.362 738.46 210.171C738.875 214.023 737.666 217.72 738.092 218.282C738.791 219.191 742.545 214.493 749.925 209.575C751.802 208.325 756.68 204.197 758.501 207.408C759.177 208.595 758.357 210.751 752.156 214.54C740.513 221.659 761.915 209.63 764.16 214.659C765.09 216.744 762.462 217.92 760.638 218.7C756.901 220.299 751.531 222.568 750.7 222.873C755.555 223.072 759.847 221.914 762.36 222.079C765.043 222.255 766.549 225.877 762.049 226.945C761.093 227.171 759.947 227.4 758.79 227.628C754.882 228.398 750.834 229.185 753.478 230.065C754.372 230.362 757.321 229.879 759.897 230.28C760.488 230.378 765.813 232.94 756.551 234.92C752.903 235.698 742.718 237.095 737.256 235.813L730.804 226.475Z" fill="#EDAC7A"/>
<path fill-rule="evenodd" clip-rule="evenodd" d="M640.528 248.885L643.275 277.479L635.829 279.396L633.534 250.41L640.528 248.885Z" fill="#FF99CC"/>
<path fill-rule="evenodd" clip-rule="evenodd" d="M539.845 225.297C543.858 226.468 551.635 229.449 554.316 230.843C550.387 237.668 543.987 233.768 546.505 229.438C545.375 228.897 542.187 227.784 539.516 226.576C537.435 225.638 537.18 224.52 539.845 225.297Z" fill="#990000"/>
<path fill-rule="evenodd" clip-rule="evenodd" d="M548.008 301C548.542 298.823 550.156 296.757 552.892 296.061C558.947 294.514 561.46 299.138 561.762 299.745C562.209 299.233 565.82 295.404 571.282 298.445C573.748 299.819 574.736 302.303 574.694 304.543C574.644 307.198 573.451 309.435 571.669 311C569.408 312.985 560.748 317.528 559.355 318.634C559.347 318.639 550.986 310.593 549.309 308.098C547.984 306.129 547.377 303.579 548.008 301Z" fill="#FF99CC"/>
<path fill-rule="evenodd" clip-rule="evenodd" d="M556.025 266.542C558.338 276.679 572.575 275.384 585.883 265.321C587.728 263.927 589.552 262.364 591.328 260.639C589.228 259.594 587.21 258.906 585.812 258.728C580.547 266.393 557.544 276.495 560.803 259.586C560.819 259.505 560.835 259.421 560.85 259.339C559.045 260.755 557.344 262.708 555.77 264.967C555.825 265.521 555.909 266.046 556.025 266.542Z" fill="#FF99CC"/>
<path fill-rule="evenodd" clip-rule="evenodd" d="M541.29 214.624C537.09 217.486 533.618 215.435 533.274 212.079C531.331 218.087 536.336 221.58 541.29 214.624Z" fill="#E39152"/>
<path fill-rule="evenodd" clip-rule="evenodd" d="M536.759 213.143C537.823 213.569 538.512 214.343 538.299 214.874C538.086 215.404 537.053 215.491 535.989 215.065C534.924 214.64 534.236 213.865 534.449 213.335C534.662 212.804 535.697 212.718 536.759 213.143Z" fill="#FCC194"/>
<path fill-rule="evenodd" clip-rule="evenodd" d="M437.868 470.727C441.151 462.439 434.556 451.179 424.369 453.128C422.369 456.211 420.368 459.294 418.368 462.374C422.279 465.454 426.193 468.534 430.104 471.615C432.69 471.32 435.279 471.024 437.868 470.727Z" fill="#FA99C9"/>
<path fill-rule="evenodd" clip-rule="evenodd" d="M589.683 526.111C593.158 517.902 605.761 514.491 611.659 523.017C610.923 526.615 610.187 530.215 609.448 533.813C604.496 533.269 599.545 532.726 594.596 532.182C592.958 530.157 591.321 528.133 589.683 526.111Z" fill="#FA99C9"/>
<path fill-rule="evenodd" clip-rule="evenodd" d="M448.878 472.639C436.209 473.547 418.308 461.05 424.366 453.128C419.635 449.556 409.718 447.479 406.209 454.391C403.481 459.763 407.116 463.771 410.609 467.954C417.963 476.761 429.068 483.809 437.807 485.716C443.739 487.01 446.825 485.527 448.786 479.277C449.503 476.99 449.333 474.844 448.878 472.639Z" fill="#E848A0"/>
<path fill-rule="evenodd" clip-rule="evenodd" d="M580.489 519.758C588.887 529.28 610.421 532.909 611.659 523.014C617.538 523.781 626.067 529.245 623.72 536.632C621.896 542.375 616.492 542.685 611.067 543.221C599.645 544.35 586.779 541.598 579.209 536.834C574.071 533.602 572.912 530.382 575.9 524.553C576.991 522.423 578.618 521.016 580.489 519.758Z" fill="#E848A0"/>
<path fill-rule="evenodd" clip-rule="evenodd" d="M407.468 453.632C407.269 464.057 428.217 482.452 446.108 483.875C444.205 485.726 441.629 486.026 437.96 485.259C429.32 483.452 418.384 476.57 411.18 467.912C407.758 463.8 404.196 459.863 406.948 454.514C407.108 454.204 407.282 453.908 407.468 453.632Z" fill="#FACBE2"/>
<path fill-rule="evenodd" clip-rule="evenodd" d="M623.357 535.212C616.182 542.785 588.337 541.228 574.583 529.713C574.641 532.368 576.268 534.384 579.422 536.406C586.852 541.17 599.479 543.922 610.689 542.795C616.014 542.26 621.318 541.95 623.108 536.207C623.213 535.873 623.294 535.54 623.357 535.212Z" fill="#FACBE2"/>
<path fill-rule="evenodd" clip-rule="evenodd" d="M562.025 205.762C563.381 201.19 562.929 198.165 561.655 196.547C561.187 195.954 560.603 195.581 559.972 195.415C559.3 195.24 558.543 195.287 557.773 195.547C555.533 196.306 553.373 198.766 552.758 202.821C552.629 203.346 550.844 202.902 550.884 202.33C551.572 197.787 554.122 194.985 556.782 194.084C557.92 193.698 559.1 193.646 560.201 193.932C561.344 194.231 562.377 194.88 563.174 195.888C564.74 197.871 565.363 201.363 563.868 206.402C563.86 206.82 561.81 206.263 562.025 205.762Z" fill="#B34209"/>
<path fill-rule="evenodd" clip-rule="evenodd" d="M536.036 199.133C537.395 194.562 536.94 191.536 535.666 189.919C535.198 189.328 534.614 188.952 533.983 188.787C533.311 188.611 532.554 188.658 531.783 188.918C529.544 189.677 527.384 192.138 526.769 196.192C526.64 196.717 524.855 196.276 524.895 195.701C525.583 191.158 528.133 188.356 530.793 187.456C531.931 187.07 533.111 187.017 534.212 187.306C535.355 187.603 536.388 188.254 537.185 189.262C538.751 191.245 539.374 194.737 537.879 199.777C537.873 200.192 535.821 199.635 536.036 199.133Z" fill="#B34209"/>
<path fill-rule="evenodd" clip-rule="evenodd" d="M536.922 225.572C530.301 231.57 547.848 245.374 563.578 237.16C569.348 234.148 573.227 227.849 573.85 221.31C574.402 215.514 570.856 213.537 566.877 215.231C562.693 217.009 560.761 220.257 554.413 222.45C548.881 224.359 539.839 222.93 536.922 225.572Z" fill="#990000"/>
<path fill-rule="evenodd" clip-rule="evenodd" d="M548.295 238.101C547.624 235.304 551.546 231.691 556.918 230.034C562.291 228.377 567.376 229.325 568.701 231.733C564.157 237.145 555.044 239.388 548.295 238.101Z" fill="#D43131"/>
<path fill-rule="evenodd" clip-rule="evenodd" d="M566.722 216.219C567.453 219.191 567.085 219.496 564.785 221.718C559.904 226.444 553.105 228.34 544.728 228.214C541.34 228.164 541.09 227.093 540.489 225.021C544.523 224.254 550.555 224.677 554.658 223.259C560.798 221.14 562.806 218.031 566.722 216.219Z" fill="white"/>
<path fill-rule="evenodd" clip-rule="evenodd" d="M561.949 243.303C557.815 244.6 554.408 244.004 554.463 245.648C554.519 247.292 558.897 248.046 563.032 246.751C567.166 245.457 570.202 242.426 569.432 240.956C568.664 239.485 566.083 242.006 561.949 243.303Z" fill="#E39152"/>
<path fill-rule="evenodd" clip-rule="evenodd" d="M536.993 168.127C531.187 167.833 525.352 171.696 526.682 174.464C528.014 177.231 530.94 172.72 536.743 173.014C542.549 173.308 544.867 179.553 547.133 175.987C549.401 172.421 542.799 168.421 536.993 168.127Z" fill="#82320A"/>
<path fill-rule="evenodd" clip-rule="evenodd" d="M568.225 170.983C561.355 169.657 553.651 172.415 554.703 175.377C555.754 178.339 560.117 174.421 566.985 175.747C573.853 177.073 575.414 183.635 578.802 180.531C582.192 177.428 575.093 172.31 568.225 170.983Z" fill="#82320A"/>
<path fill-rule="evenodd" clip-rule="evenodd" d="M690.235 652.567C744.001 652.567 787.849 647.61 787.849 641.528C787.849 635.446 743.998 630.488 690.235 630.488C636.47 630.488 592.619 635.449 592.619 641.528C592.619 647.607 636.47 652.567 690.235 652.567Z" fill="#8AB002"/>
<path fill-rule="evenodd" clip-rule="evenodd" d="M628.175 388.779C603.871 380.502 580.305 355.246 570.126 334.91L560.85 345.136C578.176 374.623 590.579 384.391 616.082 400.767C618.855 394.85 625.4 394.695 628.175 388.779Z" fill="#EDAC7A"/>
<path fill-rule="evenodd" clip-rule="evenodd" d="M573.364 341.538C571.732 339.269 570.373 335.041 569.942 333.755C569.445 332.271 568.906 327.095 568.436 323.049C568.204 321.079 567.984 318.262 566.788 317.469C565.876 316.865 564.096 317.4 563.092 320.628C561.946 324.33 561.983 326.195 561.457 326.665C560.598 327.424 558.256 324.089 551.956 317.849C550.355 316.263 546.358 311.276 543.953 314.081C543.064 315.118 543.453 317.39 548.813 322.295C558.876 331.51 540.176 315.609 537.009 320.118C535.697 321.985 538.052 323.642 539.692 324.758C543.056 327.043 547.89 330.299 548.647 330.753C543.845 330.018 539.853 328.064 537.353 327.744C534.688 327.403 532.514 330.669 536.725 332.578C537.621 332.983 538.701 333.426 539.795 333.87C543.485 335.375 547.304 336.922 544.539 337.279C543.606 337.4 540.804 336.362 538.199 336.262C537.6 336.244 531.881 337.741 540.594 341.454C544.026 342.914 560.177 347.63 565.781 347.415L573.364 341.538Z" fill="#EDAC7A"/>
<path fill-rule="evenodd" clip-rule="evenodd" d="M668.241 502.809C685.599 502.809 699.705 501.105 699.705 499.01C699.705 496.914 685.599 495.226 668.241 495.226C650.879 495.226 636.812 496.925 636.812 499.017C636.812 501.116 650.879 502.809 668.241 502.809Z" fill="#779103"/>
<path fill-rule="evenodd" clip-rule="evenodd" d="M701.732 585.287L702.483 574.188L726.609 592.293L728.735 594.132L738.294 595.279L724.091 605.825L715.578 601.09L717.667 597.065L701.732 585.287Z" fill="#EDAC7A"/>
<path fill-rule="evenodd" clip-rule="evenodd" d="M631.311 592.249L645.703 600.038L650.8 613.073L653.77 619.63L639.19 622.873L642.649 619.785L637.511 606.899L631.311 592.249Z" fill="#EDAC7A"/>
<path fill-rule="evenodd" clip-rule="evenodd" d="M641.622 415.624C658.151 428.767 752.75 425.317 760.953 397.408C767.8 374.116 728.107 340.075 723.142 317.069C718.38 295.006 748.692 283.906 738.778 264.592C729.716 246.933 638.82 256.599 638.746 256.557C616.405 297.627 598.378 337.473 650.666 349.61L641.622 415.624Z" fill="#612203"/>
<path fill-rule="evenodd" clip-rule="evenodd" d="M687.47 437.888C704 451.038 757.187 424.43 765.393 396.521C774.505 365.532 759.618 354.639 750.335 324.543C745.948 310.326 747.507 275.832 741.01 263.172C731.95 245.512 689.602 244.181 665.574 256.557C664.423 258.676 659.975 258.306 658.898 260.428C639.072 299.436 636.234 340.764 685.83 352.263L687.47 437.888Z" fill="#782C06"/>
<path fill-rule="evenodd" clip-rule="evenodd" d="M740.371 426.121C742.295 424.642 742.568 424.874 744.334 423.253C756.267 408.766 764.446 386.726 756.167 368.709C750.259 355.882 738.465 344.556 726.546 333.115C702.959 310.458 678.886 287.326 700.034 251.473L698.796 251.455C677.58 288.019 701.903 311.398 725.747 334.296C737.603 345.68 749.328 356.937 755.158 369.605C762.22 384.967 758.194 403.666 741.767 424.409L740.371 426.121ZM728.012 433.387C745.112 411.402 744.673 392.706 737.072 376.183C731.576 364.224 722.262 353.04 712.902 341.77C692.104 316.765 671.014 291.391 689.875 256.174C664.769 292.533 684.048 319.93 703.24 347.177C710.376 357.315 717.51 367.444 722.377 378.021C730.433 395.536 732.32 414.236 717.943 436.131C718.224 435.091 718.482 433.978 718.716 432.804C730.856 412.613 728.875 395.234 721.368 378.919C716.54 368.434 709.443 358.34 702.323 348.235C682.164 319.612 661.905 290.816 691.857 251.578C692.525 251.552 693.216 251.494 693.878 251.476C670.418 288.515 692.257 314.783 713.775 340.659C723.187 351.969 732.533 363.221 738.082 375.288C745.675 391.792 746.353 410.538 730.452 432.134C729.629 432.62 728.835 432.935 728.012 433.387Z" fill="#993C0E"/>
<path fill-rule="evenodd" clip-rule="evenodd" d="M654.553 512.658C653.449 521.652 663.836 558.513 672.607 567.436C684.124 579.153 701.592 587.506 706.944 591.4L715.993 582.144C707.051 567.092 695.248 562.525 688.246 554.931C686.645 548.626 685.644 543.274 686.569 534.154C688.275 517.364 694.259 499.224 695.198 470.745C675.546 472.754 661.962 473.292 632.822 463.316C624.7 488.431 617.57 546.969 621.97 568.804C624.671 582.202 632.228 598.412 634.896 605.074L647.141 600.841C648.006 581.29 645.367 573.26 643.911 566.643C640.665 551.893 650.161 525.919 654.553 512.658Z" fill="#779103"/>
<path fill-rule="evenodd" clip-rule="evenodd" d="M674.61 397.534L660.017 397.298L623.67 380.437L606.589 406.229L635.768 421.9C630.033 448.407 625.973 470.213 620.529 493.172C650.03 506.48 677.512 496.772 699.732 498.996C695.997 464.945 695.897 451.24 694.22 426.879L674.61 397.534Z" fill="#A3DB21"/>
<path fill-rule="evenodd" clip-rule="evenodd" d="M659.168 376.447C664.049 376.909 668.927 377.369 673.808 377.831C673.322 393.96 678.129 398.195 680.237 400.123C674.875 406.538 664.359 413.153 656.169 411.583C651.391 407.16 650.978 398.479 650.971 393.038C656.233 395.478 663.232 393.968 659.168 376.447C659.168 376.447 659.168 376.45 659.168 376.447Z" fill="#EDAC7A"/>
<path fill-rule="evenodd" clip-rule="evenodd" d="M682.385 353.746C675.385 322.949 654.198 297.417 661.382 261.354C660.646 262.318 649.48 261.578 642.137 264.879C631.405 269.71 628.236 281.585 622.8 294.339C612.555 318.382 600.436 326.849 616.369 355.498C638.533 395.355 668.988 380.245 686.267 375.019C685.98 374.972 682.666 353.788 682.385 353.746Z" fill="#EDAC7A"/>
<path fill-rule="evenodd" clip-rule="evenodd" d="M641.874 319.106L641.732 320.561C641.28 325.556 640.72 331.745 636.155 332.315L635.293 332.407C631.871 332.79 627.768 333.253 626.887 338.105C626.693 339.166 626.911 340.109 627.389 340.926C628.196 342.317 629.76 343.328 631.35 344.037C632.888 344.728 634.47 345.135 635.356 345.293C635.895 345.39 636.31 345.379 636.454 345.293L635.866 344.266C635.808 344.3 635.832 344.174 635.574 344.124C634.741 343.974 633.272 343.594 631.831 342.953C630.443 342.336 629.082 341.464 628.414 340.332C628.073 339.744 627.918 339.072 628.054 338.318C628.788 334.334 632.402 333.927 635.424 333.591L636.294 333.489C641.819 332.809 642.431 326.097 642.92 320.672L643.057 319.217L641.874 319.106Z" fill="#B34209"/>
<path fill-rule="evenodd" clip-rule="evenodd" d="M656.587 340.378C654.398 339.726 653.215 337.197 653.946 334.745C654.671 332.274 657.042 330.801 659.231 331.452C661.421 332.095 662.604 334.627 661.87 337.087C661.145 339.55 658.774 341.024 656.587 340.378Z" fill="#82340D"/>
<path fill-rule="evenodd" clip-rule="evenodd" d="M624.159 324.845C621.972 324.194 620.795 321.678 621.52 319.21C622.253 316.739 624.616 315.266 626.806 315.917C629 316.56 630.183 319.092 629.452 321.552C628.719 324.015 626.354 325.488 624.159 324.845Z" fill="#82340D"/>
<path fill-rule="evenodd" clip-rule="evenodd" d="M683.741 250.475C678.35 251.079 663.834 263.594 650.776 265.078C630.651 267.349 629.111 275.755 622.774 290.127C615.672 219.927 683.743 250.475 683.741 250.475Z" fill="#612203"/>
<path fill-rule="evenodd" clip-rule="evenodd" d="M688.876 375.749C681.764 374.688 677.044 366.908 678.329 358.379C679.609 349.849 686.414 343.804 693.529 344.878C700.644 345.947 705.361 353.72 704.081 362.249C702.796 370.776 695.984 376.821 688.876 375.749Z" fill="#EDAC7A"/>
<path fill-rule="evenodd" clip-rule="evenodd" d="M631.873 356.173L650.395 351.586C656.319 350.118 658.051 348.66 656.827 356.339C654.28 372.31 635.645 371.025 631.873 356.173Z" fill="#990000"/>
<path fill-rule="evenodd" clip-rule="evenodd" d="M653.717 362.636C650.219 367.796 643.963 368.499 638.98 365.335C642.392 360.637 648.429 358.993 653.717 362.636Z" fill="#D43131"/>
<path fill-rule="evenodd" clip-rule="evenodd" d="M633.661 356.532L653.397 351.798C651.733 358.121 633.789 360.298 633.661 356.532Z" fill="#FFF6F0"/>
<path fill-rule="evenodd" clip-rule="evenodd" d="M708.287 619.241C707.887 613.65 708.833 608.028 717.667 597.064C720.353 601.752 727.482 597.661 726.06 591.889C730.956 591.747 736.223 592.503 738.886 594.433C746.148 599.701 744.185 600.281 739.961 603.677C732.394 609.758 724.832 615.837 717.268 621.919C711.764 626.344 708.978 628.904 708.287 619.241Z" fill="#7EB206"/>
<path fill-rule="evenodd" clip-rule="evenodd" d="M624.963 635.194C626.004 629.685 629.589 623.813 640.925 615.46C642.326 620.675 649.365 618.955 650.8 613.073C655.268 614.108 665.358 623.359 662.798 626.392C662.094 627.222 660.535 627.771 658.467 628.695C649.599 632.65 641.832 636.116 632.964 640.071C626.514 642.949 623.165 644.716 624.963 635.194Z" fill="#7EB206"/>
<path fill-rule="evenodd" clip-rule="evenodd" d="M630.025 296.96C625.444 297.007 620.39 300.644 621.144 302.965C621.901 305.286 624.716 301.24 629.297 301.193C633.878 301.145 635.04 306.418 637.227 303.225C639.414 300.027 634.604 296.912 630.025 296.96Z" fill="#8C3307"/>
<path fill-rule="evenodd" clip-rule="evenodd" d="M668.357 305.088C672.841 306.03 677.086 310.584 675.89 312.711C674.694 314.838 672.725 310.321 668.244 309.378C663.76 308.436 661.589 313.38 660.07 309.82C658.548 306.261 663.876 304.147 668.357 305.088Z" fill="#8C3307"/>
<path fill-rule="evenodd" clip-rule="evenodd" d="M693.576 365.214C695.865 365.214 697.729 362.168 697.729 358.434C697.729 354.699 695.863 351.653 693.576 351.653C691.289 351.653 689.423 354.699 689.423 358.434C689.421 362.168 691.287 365.214 693.576 365.214Z" fill="#E79F79"/>
<path fill-rule="evenodd" clip-rule="evenodd" d="M630.859 470.103C651.236 473.031 673.49 473.33 695.179 471.271C695.805 471.211 696.43 471.151 697.056 471.088C696.759 467.369 696.509 463.898 696.286 460.555C673.083 462.858 649.176 462.464 627.563 459.037C626.914 462.49 626.272 465.888 625.615 469.286C627.347 469.578 629.095 469.851 630.859 470.103Z" fill="#D1FA73"/>
<path fill-rule="evenodd" clip-rule="evenodd" d="M629.634 448.076C650.484 451.167 673.346 451.482 695.592 449.32C695.432 446.576 695.274 443.832 695.111 441.012C695.05 439.962 694.987 438.898 694.922 437.821C692.656 438.029 690.385 438.207 688.112 438.362C669.03 439.654 649.746 439.113 631.894 436.556C631.087 440.547 630.341 444.368 629.634 448.076Z" fill="#D1FA73"/>
<path fill-rule="evenodd" clip-rule="evenodd" d="M687.018 414.207C693.474 414.727 750.5 441.265 734.349 461.015C725.119 472.301 699.371 482.598 682.311 479.919L679.945 467.661C695.434 469.856 720.543 461.133 720.551 452.88C720.558 439.54 671.916 420.609 687.018 414.207Z" fill="#EDAC7A"/>
<path fill-rule="evenodd" clip-rule="evenodd" d="M661.3 479.632C656.743 478.776 652.043 476.623 652.167 474.853C652.285 473.33 655.773 474.955 658.969 475.115C661.818 475.27 662.801 475.354 662.767 474.677C662.748 474.223 659.079 473.385 655.068 472.303C650.027 470.972 646.868 469.367 647.036 467.589C647.288 465.951 650.364 467.553 654.982 468.288C659.024 468.947 660.787 469.462 661.014 467.768C661.153 466.965 658.451 466.232 654.501 464.378C649.964 462.285 647.528 460.001 648.08 458.753C648.892 457.01 650.474 459.255 655.844 460.996C663.048 463.341 664.58 464.945 668.696 463.532C672.544 462.217 660.151 454.961 663.271 453.27C667.4 451.064 686.619 469.95 685.78 475.1C684.524 482.529 675.732 482.308 661.3 479.632Z" fill="#EDAC7A"/>
<path fill-rule="evenodd" clip-rule="evenodd" d="M670.733 425.665L671.495 409.248L680.237 400.12L725.636 424.817L707.017 450.184L670.733 425.665Z" fill="#A3DB21"/>
<path fill-rule="evenodd" clip-rule="evenodd" d="M-242.417 619.929C-233.827 618.041 -225.322 618.099 -218.312 619.617C-218.22 560.693 -115.618 542.369 -108.553 604.94C-107.433 603.987 -106.235 603.181 -104.981 602.469C-91.7261 595.072 -76.1349 604.034 -68.8517 622.56C-67.7873 605.568 -55.5287 596.269 -46.0877 603.798C-41.107 576.559 -21.6022 554.201 1.7585 551.189C28.9959 547.668 51.1844 571.774 51.321 605.037C106.421 593.399 123.017 659.185 98.3157 688.044C-103.209 676.366 -242.666 651.209 -242.666 622.051C-242.666 621.344 -242.582 620.635 -242.417 619.929Z" fill="#6C9902"/>
<path fill-rule="evenodd" clip-rule="evenodd" d="M427.93 567.227C435.066 567.227 441.321 569.981 444.822 574.117C448.654 578.644 448.087 579.792 443.004 580.075C436.088 580.464 421.081 580.12 413.695 579.469C410.297 579.169 407.308 579.282 410.294 575.073C413.603 570.412 420.261 567.227 427.93 567.227Z" fill="#D97F00"/>
<path fill-rule="evenodd" clip-rule="evenodd" d="M439.353 570.826C446.489 570.826 452.744 573.581 456.245 577.717C460.077 582.244 459.51 583.391 454.429 583.675C447.511 584.064 432.506 583.72 425.12 583.068C421.722 582.766 418.733 582.882 421.719 578.673C425.026 574.011 431.681 570.826 439.353 570.826Z" fill="#FFA100"/>
<path fill-rule="evenodd" clip-rule="evenodd" d="M350.731 536.403C357.456 543.335 366.942 546.605 373.668 553.537C356.077 573.534 347.858 564.779 340.961 545.581C335.142 552.416 324.613 559.456 327.499 545.087C329.628 534.483 338.101 533.984 350.731 536.403Z" fill="#D97F00"/>
<path fill-rule="evenodd" clip-rule="evenodd" d="M418.547 476.996L347.542 471.066L342.278 495.257C338.656 513.51 344.223 535.513 354.873 550.785C363.236 562.778 377.424 570.648 407.224 570.911C416.749 570.995 437.24 572.103 443.18 565.047C450.384 556.486 443.04 539.861 449.059 530.198C438.567 525.692 432.312 520.167 428.274 513.93L418.547 476.996Z" fill="#FFA100"/>
<path fill-rule="evenodd" clip-rule="evenodd" d="M290.221 574.072L290.531 574.214C291.538 574.629 292.629 574.842 293.769 574.884L290.221 574.072Z" fill="#AA8330"/>
<path fill-rule="evenodd" clip-rule="evenodd" d="M478.633 521.889C478.746 535.187 471.384 544.131 463.105 546.675C461.991 547.019 458.135 545.504 457.115 545.683C457.317 543.5 468.969 538.472 467.876 520.628C467.647 516.881 465.068 512.104 469.384 510.019C475.004 507.307 478.597 517.48 478.633 521.889Z" fill="#CC2702"/>
<path fill-rule="evenodd" clip-rule="evenodd" d="M397.184 384.084C387.777 357.895 377.119 345.571 368.48 339.529C357.641 331.948 354.008 331.123 351.059 343.875C347.379 359.783 346.607 389.635 358.597 403.681C371.705 397.432 384.074 390.336 397.184 384.084Z" fill="#FFA100"/>
<path fill-rule="evenodd" clip-rule="evenodd" d="M386.815 381.615C380.234 359.371 372.162 347.431 359.701 339.873C352.029 333.342 346.283 382.55 358.681 396.179C366.945 407.397 377.437 386.471 386.815 381.615Z" fill="#FAD189"/>
<path fill-rule="evenodd" clip-rule="evenodd" d="M409.918 384.513C414.426 370.763 424.3 357.436 431.694 349.934C440.969 340.522 444.786 343.188 449.827 355.632C457.559 374.723 453.672 409.485 433.331 431.029C427.029 416.778 416.223 398.761 409.918 384.513Z" fill="#FFA100"/>
<path fill-rule="evenodd" clip-rule="evenodd" d="M412.794 383.693C420.518 365.5 436.932 344.075 441.773 351.325C448.691 360.022 447.64 392.369 431.81 420.317C424.973 408.369 419.63 395.644 412.794 383.693Z" fill="#FAD189"/>
<path fill-rule="evenodd" clip-rule="evenodd" d="M345.603 467.807C343.897 456.219 337.931 417.192 340.598 413.86C341.277 413.011 342.265 412.226 343.655 411.402C349.322 408.04 353.285 405.685 358.952 402.321C361.234 397.56 367.715 382.697 373.429 377.204C378.833 372.007 402.217 375.977 409.132 379.326C411.414 380.578 414.123 381.605 415.574 383.816L419.049 389.11L438.685 434.901C441.753 442.06 421.664 469.414 416.828 476.851C391.814 488.928 361.722 497.276 345.603 467.807Z" fill="#FFA100"/>
<path fill-rule="evenodd" clip-rule="evenodd" d="M360.963 425.427L360.91 425.716C358.973 432.225 358.227 441.148 369.744 446.201L370.025 445.507C360.839 441.479 359.183 435.235 361.87 425.576L360.963 425.427Z" fill="#990000"/>
<path fill-rule="evenodd" clip-rule="evenodd" d="M420.91 470.824C389.648 488.19 356.637 486.071 345.442 466.731C344.756 466.707 344.701 473.781 345.952 475.352C357.664 493.746 395.717 490.992 419.112 478.001C420.594 477.177 421.667 471.812 420.91 470.824Z" fill="#DE4A00"/>
<path fill-rule="evenodd" clip-rule="evenodd" d="M391.478 435.198C391.112 436.141 391.914 434.366 391.478 435.198C388.124 441.611 382.765 444.872 377.074 445.673C373.923 446.117 370.664 445.81 367.584 444.869C364.5 443.927 361.596 442.349 359.168 440.253C354.04 435.836 350.988 429.103 352.702 421.162L351.863 419.542C351.774 419.954 351.39 421.735 351.327 422.142C350.066 430.02 353.241 436.69 358.408 441.138C360.965 443.341 364.012 444.998 367.242 445.988C370.477 446.978 373.91 447.298 377.24 446.831C382.547 445.678 382.244 445.888 385.488 448.023C388.226 446.119 390.852 442.275 391.938 435.647C392.253 434.699 391.727 435.878 391.896 434.788L391.478 435.198Z" fill="#990000"/>
<path fill-rule="evenodd" clip-rule="evenodd" d="M386.211 408.088C384.066 396.801 395.155 384.383 409.132 379.328L409.166 379.347L409.201 379.365L409.235 379.383L409.237 379.386L409.272 379.404L409.306 379.423L409.34 379.444L409.343 379.446L409.374 379.465L409.408 379.483L409.442 379.504L409.448 379.507L409.477 379.522L409.511 379.541L409.545 379.559L409.553 379.564L409.579 379.58L409.613 379.599L409.647 379.62L409.658 379.625L409.682 379.638L409.716 379.656L409.75 379.677L409.76 379.685L409.784 379.698L409.818 379.719L409.852 379.74L409.866 379.748L409.887 379.761L409.921 379.78L409.955 379.801L409.971 379.809L409.989 379.819L410.023 379.84L410.057 379.861L410.076 379.872L410.094 379.882L410.128 379.903L410.163 379.924L410.181 379.937L410.197 379.945L410.231 379.966L410.265 379.987L410.286 380L410.299 380.008L410.333 380.029L410.368 380.05L410.391 380.063L410.402 380.071L410.436 380.092L410.47 380.113L410.496 380.129L410.504 380.134L410.538 380.155L410.573 380.176L410.599 380.192L410.607 380.197L410.641 380.218L410.675 380.239L410.704 380.258L410.709 380.263L410.743 380.284L410.778 380.305L410.809 380.323L410.812 380.326L410.846 380.347L410.88 380.368L410.914 380.389L410.948 380.41L410.983 380.431L411.017 380.452L411.051 380.473L411.085 380.494L411.119 380.518L411.122 380.52L411.153 380.539L411.188 380.56L411.222 380.581L411.227 380.583L411.256 380.602L411.29 380.623L411.324 380.644L411.33 380.649L411.358 380.667L411.393 380.688L411.427 380.709L411.432 380.715L411.461 380.733L411.495 380.754L411.529 380.778L411.537 380.783L411.563 380.801L411.598 380.822L411.632 380.846L411.64 380.851L411.666 380.87L411.7 380.891L411.734 380.912L411.742 380.917L411.768 380.935L411.803 380.956L411.837 380.977L411.845 380.982L411.871 381.001L411.905 381.022L411.939 381.045L411.947 381.051L411.973 381.069L412.008 381.093L412.042 381.116L412.052 381.122L412.076 381.137L412.11 381.161L412.144 381.185L412.152 381.19L412.176 381.208L412.21 381.229L412.244 381.253L412.255 381.261L412.278 381.277L412.313 381.3L412.347 381.324L412.357 381.332L412.381 381.347L412.415 381.371L412.449 381.395L412.46 381.403L412.483 381.418L412.552 381.466L412.562 381.474L412.586 381.489L412.617 381.513L412.652 381.537L412.662 381.544L412.683 381.56L412.717 381.584L412.751 381.607L412.762 381.615L412.783 381.631L412.817 381.655L412.851 381.678L412.864 381.686L412.885 381.702L412.92 381.726L412.954 381.749L412.964 381.757L412.985 381.773L413.017 381.797L413.051 381.82L413.064 381.828L413.085 381.844L413.119 381.867L413.154 381.891L413.167 381.902L413.188 381.917L413.219 381.941L413.253 381.965L413.267 381.975L413.285 381.988L413.288 381.991L413.351 382.038L413.364 382.049L413.448 382.112L413.461 382.122L413.48 382.135L413.514 382.162L413.548 382.188L413.561 382.198L413.582 382.214L413.616 382.24L413.65 382.267L413.661 382.274L413.685 382.29L413.719 382.316L413.753 382.343L413.761 382.348L413.787 382.366L413.821 382.393L413.855 382.419L413.861 382.424L413.887 382.445L413.921 382.471L413.955 382.498L413.958 382.5L413.987 382.524L414.021 382.55L414.055 382.576V382.579L414.087 382.603L414.121 382.629L414.152 382.655L414.186 382.681L414.221 382.708L414.25 382.731L414.252 382.734L414.286 382.76L414.321 382.787L414.349 382.808L414.355 382.813L414.389 382.839L414.423 382.865L414.449 382.886L414.457 382.892L414.489 382.918L414.523 382.944L414.547 382.962L414.557 382.97L414.589 382.997L414.623 383.023L414.644 383.041L414.654 383.049L414.689 383.075L414.72 383.102L414.738 383.117L414.752 383.128L414.786 383.154L414.817 383.18L414.836 383.194L414.852 383.207L414.883 383.233L414.917 383.259L414.933 383.272L414.951 383.288L414.983 383.314L415.014 383.341L415.028 383.351L415.046 383.369L415.078 383.396L415.112 383.422L415.122 383.43L415.143 383.448L415.175 383.475L415.206 383.501L415.214 383.509L415.238 383.53L415.269 383.556L415.304 383.582L415.309 383.587L415.335 383.608L415.367 383.635L415.398 383.661L415.401 383.664L415.43 383.687L415.461 383.716L415.493 383.742L415.495 383.745L415.527 383.771L415.558 383.8L415.59 383.826C418.003 386.505 420.353 390.714 422.158 393.813C430.472 408.135 431.3 416.493 437.305 431.438C420.981 433.163 389.782 426.871 386.211 408.088Z" fill="#D97F00"/>
<path fill-rule="evenodd" clip-rule="evenodd" d="M386.781 433.98C388.702 434.266 390.308 434.749 391.291 435.768C391.93 436.433 392.295 437.331 392.642 438.365C393.007 439.458 393.204 439.434 393.102 438.179C392.789 434.313 391.033 433.402 386.781 433.98Z" fill="#990000"/>
<path fill-rule="evenodd" clip-rule="evenodd" d="M379.934 380.783C377.103 380.308 373.474 380.639 371.056 381.71C370.251 382.067 367.657 383.729 369.368 380.329C371.077 376.931 376.72 376.017 380.628 376.637C384.013 377.172 383.645 381.405 379.934 380.783Z" fill="#611200"/>
<path fill-rule="evenodd" clip-rule="evenodd" d="M405.589 384.167C409.258 384.737 413.989 386.985 416.715 388.676C417.829 389.369 419.511 390.407 418.571 387.103C418.363 386.376 418.376 385.929 417.827 385.283C415.364 382.387 409.96 380.407 405.976 379.953C403.776 379.701 403.676 379.937 403.636 381.61C403.597 383.296 403.2 383.794 405.589 384.167Z" fill="#611200"/>
<path fill-rule="evenodd" clip-rule="evenodd" d="M405.913 389.136C398.8 387.792 391.896 391.274 388.573 397.274C387.824 391.323 383.327 386.271 377.111 385.095C369.397 383.637 361.961 388.703 360.503 396.41C359.044 404.117 364.114 411.543 371.828 413.003C377.789 414.13 383.585 411.357 386.584 406.483C387.154 413.644 392.437 419.826 399.841 421.225C408.709 422.901 417.259 417.076 418.936 408.216C420.61 399.354 414.781 390.811 405.913 389.136Z" fill="white"/>
<path fill-rule="evenodd" clip-rule="evenodd" d="M404.159 390.213C400.806 389.58 397.575 391.781 396.942 395.131C396.309 398.482 398.511 401.709 401.865 402.345C405.219 402.978 408.449 400.777 409.082 397.426C409.716 394.076 407.513 390.846 404.159 390.213Z" fill="#611200"/>
<path fill-rule="evenodd" clip-rule="evenodd" d="M408.21 391.043C407.206 390.851 406.236 391.513 406.044 392.519C405.855 393.522 406.514 394.491 407.521 394.682C408.528 394.871 409.498 394.212 409.687 393.207C409.876 392.201 409.216 391.232 408.21 391.043Z" fill="white"/>
<path fill-rule="evenodd" clip-rule="evenodd" d="M376.609 385.575C373.828 385.05 371.148 386.875 370.619 389.656C370.094 392.434 371.923 395.116 374.704 395.641C377.484 396.166 380.168 394.341 380.694 391.56C381.219 388.779 379.39 386.101 376.609 385.575Z" fill="#611200"/>
<path fill-rule="evenodd" clip-rule="evenodd" d="M380.809 387.004C379.803 386.815 378.835 387.474 378.644 388.48C378.454 389.486 379.114 390.452 380.121 390.644C381.127 390.835 382.095 390.174 382.286 389.17C382.476 388.165 381.813 387.196 380.809 387.004Z" fill="white"/>
<path fill-rule="evenodd" clip-rule="evenodd" d="M370.548 408.935C359.48 405.676 349.561 406.215 348.391 410.135C347.222 414.056 352.723 424.749 363.791 428.008C374.859 431.267 387.304 425.854 388.473 421.936C389.64 418.013 381.616 412.194 370.548 408.935Z" fill="#990000"/>
<path fill-rule="evenodd" clip-rule="evenodd" d="M365.121 408.711C360.76 407.694 356.894 407.986 356.484 409.362C356.074 410.738 359.275 412.673 363.636 413.689C367.996 414.706 371.862 414.414 372.272 413.038C372.683 411.662 369.481 409.727 365.121 408.711Z" fill="#D64545"/>
<path fill-rule="evenodd" clip-rule="evenodd" d="M389.257 349.576C389.244 349.153 389.217 348.749 389.181 348.352L388.053 348.098C388.452 348.591 388.855 349.082 389.257 349.576Z" fill="#078A43"/>
<path fill-rule="evenodd" clip-rule="evenodd" d="M398.737 352.633C398.737 353.704 396.38 354.576 393.47 354.576C390.563 354.576 388.205 353.707 388.205 352.633C388.205 351.561 390.563 350.689 393.47 350.689C396.38 350.692 398.737 351.561 398.737 352.633Z" fill="#91B502"/>
<path fill-rule="evenodd" clip-rule="evenodd" d="M396.884 340.283C408.023 340.283 417.054 349.306 417.054 360.435C417.054 371.564 408.023 380.586 396.884 380.586C385.745 380.586 376.714 371.564 376.714 360.435C376.714 349.303 385.745 340.283 396.884 340.283Z" fill="#88A108"/>
<path fill-rule="evenodd" clip-rule="evenodd" d="M396.884 341.536C407.332 341.536 415.8 349.997 415.8 360.435C415.8 370.873 407.332 379.334 396.884 379.334C386.436 379.334 377.968 370.871 377.968 360.435C377.968 349.997 386.436 341.536 396.884 341.536Z" fill="#C7D104"/>
<path fill-rule="evenodd" clip-rule="evenodd" d="M397.097 342.567C406.062 342.567 413.33 349.828 413.33 358.785C413.33 367.743 406.062 375.003 397.097 375.003C388.132 375.003 380.864 367.743 380.864 358.785C380.864 349.828 388.132 342.567 397.097 342.567Z" fill="#E0EB12"/>
<path fill-rule="evenodd" clip-rule="evenodd" d="M397.731 345.097C401.715 345.097 404.945 348.324 404.945 352.308C404.945 356.288 401.715 359.518 397.731 359.518C393.746 359.518 390.513 356.291 390.513 352.308C390.516 348.324 393.746 345.097 397.731 345.097Z" fill="#F8FF75"/>
<path fill-rule="evenodd" clip-rule="evenodd" d="M391.746 378.656C391.614 378.522 391.48 378.388 391.352 378.254C385.893 372.648 381.921 366.309 382.221 359.922C382.415 355.805 383.511 352.62 385.172 350.275C386.502 348.4 388.187 347.068 390.064 346.228C391.935 345.39 393.988 345.044 396.062 345.141C399.024 345.28 402.03 346.328 404.593 348.14C409.653 351.719 412.644 358.675 414.857 366.377C414.625 367.052 414.355 367.708 414.052 368.349C411.855 360.245 408.93 352.806 403.841 349.203C401.484 347.533 398.719 346.572 395.998 346.443C394.122 346.357 392.271 346.667 390.592 347.418C388.92 348.166 387.417 349.356 386.234 351.026C384.71 353.176 383.703 356.131 383.522 359.983C383.241 365.946 387.052 371.97 392.285 377.343C392.873 377.947 393.478 378.54 394.098 379.126C393.297 379.021 392.511 378.863 391.746 378.656Z" fill="#F3FAD2"/>
<path fill-rule="evenodd" clip-rule="evenodd" d="M391.67 378.73L391.275 378.328C388.36 375.334 385.866 372.131 384.218 368.822C382.77 365.912 381.974 362.921 382.113 359.917C382.208 357.914 382.515 356.128 382.999 354.55C383.511 352.872 384.224 351.43 385.086 350.217C385.743 349.293 386.484 348.497 387.293 347.827C388.137 347.129 389.054 346.567 390.019 346.134C390.949 345.719 391.925 345.422 392.926 345.241C393.954 345.054 395.008 344.989 396.067 345.039C397.562 345.109 399.071 345.409 400.524 345.921C401.973 346.43 403.368 347.147 404.654 348.056C407.198 349.857 409.222 352.504 410.885 355.666C412.546 358.822 413.85 362.493 414.959 366.348L414.967 366.38L414.957 366.411C414.841 366.75 414.715 367.083 414.581 367.412C414.447 367.743 414.302 368.068 414.15 368.391L414.029 368.649L413.955 368.375C412.859 364.329 411.579 360.448 409.942 357.134C408.307 353.825 406.312 351.078 403.786 349.287C402.619 348.463 401.35 347.809 400.038 347.347C398.719 346.882 397.352 346.609 395.998 346.546C395.055 346.501 394.119 346.559 393.21 346.722C392.324 346.882 391.462 347.142 390.642 347.51C389.798 347.888 388.997 348.379 388.258 348.991C387.548 349.576 386.899 350.272 386.324 351.084C385.546 352.181 384.902 353.492 384.436 355.028C383.997 356.477 383.716 358.126 383.63 359.986C383.498 362.753 384.258 365.537 385.632 368.26C387.204 371.374 389.583 374.413 392.363 377.267C392.655 377.569 392.955 377.868 393.257 378.165C393.567 378.47 393.872 378.764 394.174 379.05L394.411 379.273L394.09 379.229C393.691 379.173 393.291 379.105 392.897 379.026C392.498 378.948 392.106 378.856 391.725 378.753L391.699 378.745L391.67 378.73ZM391.622 378.383L391.801 378.562C392.177 378.661 392.555 378.751 392.931 378.827C393.212 378.882 393.499 378.934 393.788 378.979L393.107 378.32C392.805 378.023 392.505 377.721 392.211 377.419C389.417 374.549 387.025 371.495 385.443 368.36C384.053 365.602 383.285 362.785 383.417 359.98C383.506 358.103 383.79 356.435 384.231 354.973C384.702 353.415 385.356 352.084 386.147 350.968C386.734 350.141 387.396 349.432 388.119 348.836C388.87 348.213 389.69 347.712 390.55 347.323C391.386 346.95 392.264 346.682 393.168 346.52C394.096 346.352 395.047 346.294 396.004 346.338C397.378 346.404 398.763 346.68 400.104 347.15C401.434 347.617 402.719 348.279 403.902 349.117C406.462 350.929 408.478 353.702 410.126 357.039C411.734 360.293 412.996 364.085 414.079 368.042C414.184 367.808 414.289 367.572 414.386 367.33C414.515 367.015 414.636 366.695 414.746 366.372C413.642 362.541 412.347 358.893 410.699 355.76C409.048 352.625 407.048 350.002 404.533 348.224C403.263 347.326 401.883 346.617 400.454 346.113C399.016 345.606 397.528 345.312 396.054 345.241C395.01 345.193 393.972 345.257 392.963 345.438C391.98 345.616 391.018 345.908 390.106 346.317C389.157 346.743 388.258 347.294 387.427 347.98C386.631 348.639 385.9 349.419 385.256 350.33C384.407 351.527 383.706 352.951 383.198 354.602C382.72 356.162 382.415 357.932 382.323 359.92C382.184 362.885 382.972 365.841 384.408 368.719C386.045 372.007 388.526 375.195 391.425 378.173L391.622 378.383Z" fill="#C7D104"/>
<path fill-rule="evenodd" clip-rule="evenodd" d="M360.905 482.507C358.692 481.911 356.416 483.224 355.819 485.435C355.222 487.646 356.537 489.92 358.75 490.516C360.963 491.112 363.239 489.799 363.833 487.588C364.43 485.377 363.118 483.103 360.905 482.507Z" fill="#BA2204"/>
<path fill-rule="evenodd" clip-rule="evenodd" d="M391.646 435.889C385.435 466.765 358.608 472.127 363.646 444.507C369.055 446.022 376.005 448.155 383.419 444.116C386.368 442.509 389.759 439.765 391.646 435.889Z" fill="#990000"/>
<path fill-rule="evenodd" clip-rule="evenodd" d="M370.212 460.381C369.116 458.249 370.961 455.234 374.33 453.648C375.426 453.131 376.549 452.829 377.605 452.732C383.112 452.217 381.666 455.111 379.224 457.963C377.716 459.719 371.668 463.215 370.212 460.381Z" fill="#D43131"/>
<path fill-rule="evenodd" clip-rule="evenodd" d="M370.848 446.798C371.6 448.725 373.752 449.587 375.705 448.712C380.41 446.606 381.624 449.476 384.563 446.785C385.929 445.532 387.078 443.581 387.693 441.756C379.705 448.066 375.019 447.026 370.848 446.798Z" fill="white"/>
<path fill-rule="evenodd" clip-rule="evenodd" d="M449.059 530.195C445.592 536.348 442.126 542.501 438.659 548.656C435.134 550.426 432.695 553.039 431.242 555.988C423.462 571.777 442.268 583.502 455.83 579.322C471.923 574.354 477.477 543.27 449.059 530.195Z" fill="#FFA100"/>
<path fill-rule="evenodd" clip-rule="evenodd" d="M411.103 542.607C412.268 548.088 412.089 559.981 409.316 569.655C407.652 575.458 404.94 583.013 401.247 582.803L401.252 582.207C404.149 578.848 407.174 572.549 409.13 564.61C410.757 558.003 411.634 550.278 411.075 542.177L411.103 542.607Z" fill="#A6491B"/>
<path fill-rule="evenodd" clip-rule="evenodd" d="M387.057 545.835C387.724 551.208 388.035 555.338 388.048 559.566C388.058 563.778 387.774 568.069 387.251 573.783L385.522 574.311C386.04 568.631 386.805 563.736 386.794 559.569C386.783 555.42 387.099 551.26 386.434 545.911L387.057 545.835Z" fill="#A6491B"/>
<path fill-rule="evenodd" clip-rule="evenodd" d="M411.684 541.864C402.835 541.864 393.985 541.864 385.136 541.864C389.359 552.544 387.462 565.59 386.626 573.725C383.877 575.02 381.125 577.457 380.131 580.03C378.728 583.662 381.041 583.055 383.969 583.15C386.799 583.242 394.831 583.284 397.783 583.15C401.973 582.961 402.254 583 404.12 579.492C410.512 567.465 412.412 554.219 411.684 541.864Z" fill="#FFA100"/>
<path fill-rule="evenodd" clip-rule="evenodd" d="M438.233 549.588C431.983 552.708 428.816 559.953 430.403 566.675C431.037 569.351 432.427 571.911 434.653 574.025C438.081 577.279 443.503 579.492 451.217 579.508C443.808 580.931 437.434 578.389 433.791 574.934C431.376 572.641 429.867 569.863 429.181 566.961C427.457 559.677 430.716 552.274 438.233 549.588Z" fill="#A6491B"/>
<path fill-rule="evenodd" clip-rule="evenodd" d="M387.049 487.928C378.914 488.931 370.9 488.71 363.949 486.998C363.925 487.195 363.888 487.392 363.836 487.589C363.239 489.8 360.965 491.111 358.75 490.517C356.537 489.924 355.225 487.65 355.819 485.436C355.932 485.018 356.103 484.632 356.324 484.288C352.279 482.314 350.943 480.851 347.687 477.705C345.553 484.572 343.371 493.6 342.911 502.633C341.994 520.542 346.32 540.143 360.516 554.294C387.717 581.407 382.707 505.141 387.049 487.928Z" fill="#FAD189"/>
<path fill-rule="evenodd" clip-rule="evenodd" d="M381.629 462.585C380.962 463.309 379.987 465.006 378.754 465.644C378.197 465.933 377.587 466.032 377.022 466.064C372.851 466.308 376.938 470.134 379.708 468.787C380.788 468.262 382.791 466.71 382.678 463.215C382.654 462.403 382.079 462.099 381.629 462.585Z" fill="#F27414"/>
<path fill-rule="evenodd" clip-rule="evenodd" d="M506.688 639.481C512.975 639.715 516.602 640.763 516.334 643.063C515.748 646.02 508.659 645.474 501.329 643.37C504.388 645.14 506.323 647.047 505.645 648.234C504.659 649.954 500.188 650.348 498.196 650.261C495.263 650.127 493.194 648.239 491.925 645.624C491.094 648.431 488.794 649.969 485.12 650.088C481.953 650.19 477.027 649.121 478.549 646.708C479.104 645.828 480.455 644.938 481.995 644.114C479.577 644.728 477.161 645.245 475.09 645.387C472.296 645.579 470.817 645.09 469.697 643.654C467.229 640.487 472.412 639.623 479.017 639.481C472.735 638.785 469.458 637.78 471.447 635.611C473.808 633.654 477.632 633.807 481.942 635.474C479.435 633.683 478.883 631.798 485.086 631.152C488.374 630.795 491.389 631.238 492.406 634.894C493.113 633.73 494.027 632.798 495.302 632.205C497.313 631.273 502.47 631.076 504.525 631.992C506.546 632.89 505.802 633.956 503.965 635.007C507.477 634.282 510.775 634.269 513.104 635.39C516.208 637.226 513.159 638.835 506.688 639.481Z" fill="#FFF582"/>
<path fill-rule="evenodd" clip-rule="evenodd" d="M491.136 637.9C494.621 637.9 497.45 638.84 497.45 640.004C497.45 641.162 494.621 642.102 491.136 642.102C487.648 642.102 484.82 641.162 484.82 640.004C484.82 638.84 487.648 637.9 491.136 637.9Z" fill="#F0AD05"/>
<path fill-rule="evenodd" clip-rule="evenodd" d="M313.403 617.489C318.042 617.663 320.718 618.435 320.52 620.131C320.089 622.313 314.856 621.909 309.45 620.357C311.708 621.662 313.135 623.069 312.635 623.946C311.907 625.215 308.609 625.506 307.14 625.443C304.974 625.346 303.449 623.952 302.511 622.022C301.899 624.094 300.201 625.228 297.488 625.315C295.152 625.391 291.517 624.603 292.639 622.82C293.049 622.171 294.045 621.515 295.183 620.906C293.399 621.36 291.617 621.741 290.09 621.846C288.029 621.985 286.936 621.628 286.11 620.567C284.292 618.23 288.116 617.594 292.989 617.489C288.352 616.975 285.934 616.231 287.403 614.632C289.146 613.188 291.966 613.301 295.147 614.532C293.296 613.212 292.889 611.82 297.465 611.345C299.891 611.079 302.114 611.41 302.866 614.107C303.386 613.251 304.062 612.563 305.003 612.122C306.485 611.434 310.291 611.289 311.808 611.967C313.3 612.631 312.751 613.416 311.395 614.191C313.986 613.655 316.418 613.647 318.139 614.475C320.426 615.824 318.179 617.014 313.403 617.489Z" fill="#FFF582"/>
<path fill-rule="evenodd" clip-rule="evenodd" d="M301.928 616.32C304.501 616.32 306.585 617.014 306.585 617.872C306.585 618.726 304.498 619.422 301.928 619.422C299.354 619.422 297.268 618.728 297.268 617.872C297.268 617.016 299.354 616.32 301.928 616.32Z" fill="#F0AD05"/>
<path fill-rule="evenodd" clip-rule="evenodd" d="M264.442 372.175C278.701 393.902 290.894 411.121 278.562 437.443C267.433 461.198 256.697 479.965 246.83 497.284C244.007 504.043 232.611 506.149 231.827 496.89C231.764 496.133 233.218 495.107 233.286 494.209C233.286 494.209 246.948 470.021 260.962 439.134C262.284 436.217 263.533 433.381 264.6 430.663C273.584 407.788 261.409 400.58 249.369 382.301C254 385.738 260.876 367.832 264.442 372.175Z" fill="#E39152"/>
<path fill-rule="evenodd" clip-rule="evenodd" d="M239.189 317.103L239.273 309.078C249.532 318.503 283.393 371.642 285.716 379.493C275.389 387.124 257.17 395.906 239.576 404.797C221.164 379.144 210.314 366.689 197.081 340.6L239.189 317.103Z" fill="#1E5287"/>
<path fill-rule="evenodd" clip-rule="evenodd" d="M256.907 473.925L245.027 472C242.301 471.777 238.869 480.256 238.632 482.491C238.306 485.582 238.44 488.145 238.522 488.148L260.074 488.838C261.454 488.883 260.715 480.464 260.61 479.106C260.3 475.117 261.851 474.33 256.907 473.925Z" fill="#E6E6E6"/>
<path fill-rule="evenodd" clip-rule="evenodd" d="M290.81 516.208C292.568 495.825 275.245 485.211 260.928 482.081C260.981 484.62 250.168 484.489 238.685 480.61C238.811 480.652 238.582 480.681 238.532 480.718C232.406 485.116 229.333 494.953 229.225 502.566C235.523 512.306 286.092 519.91 290.81 516.208Z" fill="#E88905"/>
<path fill-rule="evenodd" clip-rule="evenodd" d="M269.807 504.995C280.851 506.256 276.633 505.728 289.33 506.692C288.084 499.709 282.389 492.43 278.924 492.614C275.92 492.771 272.898 496.76 269.807 504.995Z" fill="#E6E6E6"/>
<path fill-rule="evenodd" clip-rule="evenodd" d="M290.515 507.737C275.529 507.377 260.952 505.836 247.266 501.926C241.366 500.24 235.628 498.113 230.098 495.447C229.549 497.884 229.283 499.428 229.252 501.673C235.549 511.413 286.155 519.094 290.87 515.391C291.133 512.393 290.954 510.386 290.515 507.737Z" fill="#E6E6E6"/>
<path fill-rule="evenodd" clip-rule="evenodd" d="M269.547 485.821C267.943 487.491 267.123 489.101 266.216 490.913C265.294 492.751 264.642 494.718 264.09 496.91C263.822 499.072 260.098 499.127 260.642 495.842C261.625 491.926 263.441 487.399 266.282 484.442C267.289 484.605 268.84 485.367 269.547 485.821Z" fill="white"/>
<path fill-rule="evenodd" clip-rule="evenodd" d="M221.7 375.499C222.491 380.002 224.652 386.039 224.952 394.865C225.803 420.019 228.092 423.284 210.086 436.715C189.051 452.408 166.716 466.848 149.836 477.46C144.151 482.087 133.112 478.568 136.797 470.036C137.099 469.34 138.866 469.12 139.352 468.361C139.352 468.361 162.823 453.482 189.774 432.863C199.07 425.749 205.865 420.663 207.195 413.641C209.657 400.645 203.015 384.95 202.198 375.922C204.653 381.137 220.607 369.987 221.7 375.499Z" fill="#EDAC7A"/>
<path fill-rule="evenodd" clip-rule="evenodd" d="M239.594 317.518C240.635 341.086 247.479 393.602 245.815 401.622C235.673 403.192 209.518 403.255 192.003 402.882C187.895 371.583 185.403 354.649 186.065 325.409L239.594 317.518Z" fill="#336699"/>
<path fill-rule="evenodd" clip-rule="evenodd" d="M333.82 191.091C332.834 190.166 336.737 186.944 336.319 185.652C334.968 181.459 336.156 175.863 336.932 172.312C337.786 168.387 338.719 165.824 340.987 171.207C342.501 174.776 342.412 178.662 342.985 179.077C343.918 179.747 346.149 174.161 351.787 167.321C353.222 165.579 356.694 160.217 359.37 162.764C360.358 163.707 360.2 166.005 355.362 171.428C346.278 181.608 363.281 163.907 366.887 168.072C368.383 169.799 366.206 171.685 364.684 172.958C361.57 175.569 357.089 179.295 356.379 179.825C361.084 178.612 364.855 176.265 367.31 175.695C369.928 175.088 372.42 178.118 368.422 180.442C367.573 180.936 366.54 181.485 365.499 182.036C361.98 183.903 358.337 185.828 361.123 185.904C362.064 185.931 364.745 184.615 367.329 184.255C367.923 184.177 373.763 185.09 365.47 189.662C362.203 191.461 345.637 197.884 340.039 198.233L333.82 191.091Z" fill="#EDAC7A"/>
<path fill-rule="evenodd" clip-rule="evenodd" d="M266.976 228.928C287.128 220.417 309.085 203.585 332.267 183.378C341.011 191.411 343.868 193.682 346.596 200.638C323.935 221.452 296.145 235.614 268.006 247.743C266.238 242.239 268.745 234.429 266.976 228.928Z" fill="#E88905"/>
<path fill-rule="evenodd" clip-rule="evenodd" d="M254.363 268.154C263.798 265.589 275.481 261.245 284.767 255.689C283.122 244.62 278.717 233.623 272.314 222.342C260.647 228.657 246.091 234.91 233.717 238.389C213.984 248.549 234.461 276.988 254.363 268.154Z" fill="#74A5D6"/>
<path fill-rule="evenodd" clip-rule="evenodd" d="M99.0175 194.933C99.9059 193.914 96.4128 191.059 95.9818 189.773C95.1565 187.31 95.0724 173.891 94.2024 173.171C93.5006 172.591 90.7961 172.896 89.8814 175.874C88.7354 179.576 88.7722 181.441 88.2466 181.911C87.3871 182.67 85.0453 179.335 78.7451 173.095C77.1445 171.509 73.1468 166.525 70.7419 169.327C69.8535 170.364 70.2425 172.636 75.6017 177.541C85.6656 186.756 66.9649 170.855 63.7978 175.364C62.4862 177.231 64.8412 178.888 66.4813 180.004C69.8456 182.289 74.6791 185.545 75.4387 185.999C70.6367 185.267 66.6469 183.31 64.1447 182.993C61.477 182.651 59.306 185.918 63.5166 187.827C64.4102 188.231 65.4931 188.675 66.5864 189.119C70.2766 190.624 74.0956 192.17 71.3306 192.527C70.3976 192.646 67.5957 191.608 64.9911 191.511C64.3918 191.493 58.6725 192.99 67.3855 196.705C70.8181 198.165 87.947 202.887 93.5532 202.672L99.0175 194.933Z" fill="#EDAC7A"/>
<path fill-rule="evenodd" clip-rule="evenodd" d="M226.134 263.583L209.844 231.683L236.937 232.938L245.673 236.102L250.799 256.017L226.134 263.583Z" fill="#5C93C9"/>
<path fill-rule="evenodd" clip-rule="evenodd" d="M237.52 221.537C246.93 221.061 238.611 235.827 246.514 237.185C248.21 237.476 248.252 240.719 249.248 241.841C251.453 244.314 253.401 245.309 253.577 248.799C254.158 260.298 240.99 270.309 224.163 271.157C207.336 272.005 193.225 263.373 192.644 251.874C192.221 243.537 198.25 238.159 205.234 236.57C206.051 236.384 207.723 233.708 209.56 233.275C213.045 232.453 217.474 229.055 217.621 224.289C222.644 223.43 234.718 221.678 237.52 221.537Z" fill="#EBA067"/>
<path fill-rule="evenodd" clip-rule="evenodd" d="M169.601 464.028L161.514 454.38C159.761 452.285 153.266 457.182 151.505 458.587C149.074 460.525 147.342 462.418 147.397 462.479L162.034 478.3C162.973 479.314 169.368 472.15 170.259 471.123C172.887 468.101 172.784 467.83 169.601 464.028Z" fill="#E6E6E6"/>
<path fill-rule="evenodd" clip-rule="evenodd" d="M169.725 226.785C148.817 220.346 125.275 205.811 100.171 188.044C92.281 196.914 89.6685 199.464 87.6552 206.659C112.304 225.083 141.378 236.375 170.598 245.61C171.801 239.954 168.521 232.436 169.725 226.785Z" fill="#E88905"/>
<path fill-rule="evenodd" clip-rule="evenodd" d="M261.709 336.477C244.404 348.942 192.778 337.711 180.217 339.954C185.377 309.138 187.942 284.908 192.46 258.042C191.961 251.855 178.738 255.744 184.806 245.839C192.413 239.574 201.12 235.496 209.844 231.683C228.313 257.338 251.385 258.664 245.673 236.105C253.08 238.999 256.747 242.378 260.305 248.402C260.05 277.03 260.652 306.754 261.709 336.477Z" fill="#74A5D6"/>
<path fill-rule="evenodd" clip-rule="evenodd" d="M189.811 265.027C180.162 263.425 168.103 260.279 158.302 255.686C158.823 244.508 162.095 233.124 167.328 221.255C179.571 226.365 194.684 231.118 207.347 233.334C228.006 241.454 210.501 271.81 189.811 265.027Z" fill="#74A5D6"/>
<path fill-rule="evenodd" clip-rule="evenodd" d="M160.389 169.39C166.734 167.434 174.593 172.723 177.946 181.202C181.298 189.681 178.872 198.142 172.527 200.096C166.182 202.052 158.321 196.763 154.969 188.284C151.618 179.807 154.044 171.347 160.389 169.39Z" fill="#EDAC7A" stroke="#EDAC7A" stroke-width="0.5669" stroke-miterlimit="22.9256"/>
<path fill-rule="evenodd" clip-rule="evenodd" d="M195.569 111.855L208.246 109.113C234.185 103.504 261.309 110.08 264.676 134.351L268.656 163.045L273.841 183.964C279.739 207.744 271.986 227.71 232.934 231.467C225.259 232.205 211.65 230.246 201.057 227.715C194.723 226.202 190.783 223.645 187.908 220.218C183.671 215.176 180.585 210.152 176.695 201.949L170.805 187.16L164.347 163.704C157.845 140.089 169.63 117.464 195.569 111.855Z" fill="#EDAC7A"/>
<path fill-rule="evenodd" clip-rule="evenodd" d="M164.103 519.381C179.865 506.322 175.271 486.546 167.451 474.162C165.677 475.981 158.181 468.195 152.883 457.303C152.94 457.421 152.759 457.279 152.699 457.269C145.263 455.998 136.093 460.719 130.592 465.984C128.071 477.305 158.152 518.624 164.103 519.381Z" fill="#E88905"/>
<path fill-rule="evenodd" clip-rule="evenodd" d="M157.353 496.566C164.208 505.308 161.624 501.939 169.851 511.65C173.954 505.862 175.145 496.698 172.582 494.363C170.358 492.333 165.391 492.984 157.353 496.566Z" fill="#E6E6E6"/>
<path fill-rule="evenodd" clip-rule="evenodd" d="M169.935 513.225C159.669 502.309 150.535 490.857 143.715 478.374C140.776 472.99 138.264 467.415 136.279 461.609C134.158 462.928 132.87 463.826 131.249 465.378C128.728 476.696 158.778 518.094 164.728 518.85C167.052 516.933 168.356 515.397 169.935 513.225Z" fill="#E6E6E6"/>
<path fill-rule="evenodd" clip-rule="evenodd" d="M161.908 176.561C164.497 175.781 168.085 179.061 169.919 183.885C171.754 188.709 171.263 192.023 168.674 192.803C166.085 193.582 162.376 191.534 160.542 186.708C158.704 181.884 159.317 177.341 161.908 176.561Z" fill="#E39152"/>
<path fill-rule="evenodd" clip-rule="evenodd" d="M247.918 184.097L253.677 182.926C255.359 182.585 257.004 183.63 257.333 185.253C257.661 186.875 256.555 188.482 254.873 188.824L249.114 189.995C247.432 190.336 245.786 189.291 245.458 187.668C245.129 186.046 246.236 184.439 247.918 184.097Z" fill="#F53939"/>
<path fill-rule="evenodd" clip-rule="evenodd" d="M250.991 184.098L254.602 183.471C255.212 183.365 255.793 183.775 255.898 184.384C256.003 184.994 255.59 185.577 254.98 185.684L251.369 186.312C250.759 186.417 250.176 186.007 250.073 185.398C249.968 184.786 250.383 184.203 250.991 184.098Z" fill="#F78383"/>
<path fill-rule="evenodd" clip-rule="evenodd" d="M254.231 142.765C260.037 142.473 265.872 146.333 264.54 149.101C263.21 151.869 260.284 147.357 254.478 147.652C248.672 147.943 246.351 154.188 244.088 150.624C241.823 147.058 248.423 143.056 254.231 142.765Z" fill="#82320A"/>
<path fill-rule="evenodd" clip-rule="evenodd" d="M212.343 145.435C219.211 144.109 226.918 146.869 225.866 149.831C224.815 152.793 220.452 148.875 213.584 150.202C206.714 151.528 205.155 158.09 201.767 154.986C198.374 151.88 205.473 146.762 212.343 145.435Z" fill="#82320A"/>
<path fill-rule="evenodd" clip-rule="evenodd" d="M233.394 136.284C228.884 148.293 207.155 148.881 213.497 132.65C210.225 143.251 186.239 149.832 176.769 145.864C178.359 151.055 175.223 152.481 174.309 159.716C174.07 161.601 178.375 168.741 178.651 171.086L175.804 177.071C171.426 169.29 160.184 163.783 153.421 175.689C146.956 172.357 123.921 123.149 153.716 122.732C139.252 114.263 146.759 95.6869 158.344 99.3712C170.711 103.3 174.007 106.046 195.378 96.8896C216.646 87.7723 250.749 79.1434 265.089 95.7474C300.437 136.67 223.38 162.512 233.394 136.284Z" fill="#DE4A00"/>
<path fill-rule="evenodd" clip-rule="evenodd" d="M151.81 105.086C152.607 101.338 155.232 102.762 160.555 104.175C162.271 104.629 163.732 104.855 164.899 105.033C172.858 106.249 164.744 113.673 159.327 112.234C154.005 110.823 151.014 108.833 151.81 105.086Z" fill="#F57434"/>
<path fill-rule="evenodd" clip-rule="evenodd" d="M257.293 96.9598C255.393 100.681 252.549 98.1099 243.926 96.4871C241.147 95.9645 238.498 95.4498 236.587 95.2266C223.559 93.7009 237.142 87.8582 245.915 89.5073C254.536 91.1301 259.191 93.2388 257.293 96.9598Z" fill="#F57434"/>
<path fill-rule="evenodd" clip-rule="evenodd" d="M170.837 482.919C168.521 482.95 166.8 483.499 164.87 484.124C162.912 484.757 161.051 485.676 159.104 486.821C157.377 488.147 154.72 485.537 157.445 483.615C160.925 481.567 165.428 479.681 169.531 479.626C170.119 480.458 170.663 482.097 170.837 482.919Z" fill="white"/>
<path fill-rule="evenodd" clip-rule="evenodd" d="M241.292 201.726C248.207 207.385 231.38 222.054 215.256 214.643C209.342 211.925 205.15 205.83 204.198 199.331C203.355 193.572 206.795 191.416 210.856 192.908C215.124 194.476 217.216 197.619 223.666 199.489C229.286 201.117 238.246 199.231 241.292 201.726Z" fill="#990000"/>
<path fill-rule="evenodd" clip-rule="evenodd" d="M230.566 214.811C231.094 211.983 226.994 208.572 221.545 207.191C216.097 205.807 211.063 207.012 209.862 209.48C214.675 214.653 223.89 216.434 230.566 214.811Z" fill="#D43131"/>
<path fill-rule="evenodd" clip-rule="evenodd" d="M211.058 193.885C210.48 196.891 210.861 197.175 213.269 199.281C218.383 203.756 225.27 205.308 233.628 204.759C237.008 204.538 237.205 203.454 237.702 201.358C233.636 200.796 227.63 201.521 223.461 200.31C217.222 198.499 215.061 195.494 211.058 193.885Z" fill="white"/>
<path fill-rule="evenodd" clip-rule="evenodd" d="M256.938 172.589C255.948 166.539 253.732 163.288 251.348 162.132C250.475 161.709 249.59 161.599 248.767 161.762C247.892 161.935 247.037 162.411 246.294 163.143C244.128 165.273 243.003 169.327 244.562 174.367C244.706 175.047 242.393 175.533 242.117 174.845C240.369 169.199 241.752 164.532 244.328 162.004C245.429 160.922 246.764 160.202 248.202 159.919C249.692 159.624 251.253 159.798 252.738 160.52C255.664 161.941 258.339 165.635 259.43 172.303C259.654 172.788 256.967 173.29 256.938 172.589Z" fill="#B84004"/>
<path fill-rule="evenodd" clip-rule="evenodd" d="M223.306 174.681C222.875 168.562 220.736 165.107 218.176 163.72C217.237 163.211 216.249 163.014 215.3 163.095C214.291 163.179 213.271 163.57 212.349 164.222C209.66 166.123 207.93 170.049 209.121 175.217C209.208 175.907 206.537 176.159 206.306 175.45C204.971 169.66 207.063 165.154 210.257 162.893C211.626 161.927 213.216 161.344 214.872 161.202C216.591 161.057 218.331 161.386 219.931 162.252C223.075 163.956 225.68 167.898 226.155 174.641C226.352 175.148 223.262 175.382 223.306 174.681Z" fill="#B84004"/>
<path fill-rule="evenodd" clip-rule="evenodd" d="M197.52 340.352C193.125 339.992 189.19 339.714 185.997 339.656C186.097 346.234 186.383 352.311 186.833 358.332C192.534 356.021 197.338 352.179 200.629 347.374C202.001 345.37 203.11 343.196 203.912 340.896C201.699 340.707 199.557 340.52 197.52 340.352Z" fill="#1E5287"/>
<path fill-rule="evenodd" clip-rule="evenodd" d="M187.064 294.052C211.621 298.219 236.592 298.13 260.521 292.329C260.405 285.528 260.321 278.758 260.279 272.03C237.349 276.888 213.552 276.639 190.155 272.54C189.07 279.719 188.071 286.825 187.064 294.052Z" fill="#D0DFED"/>
<path fill-rule="evenodd" clip-rule="evenodd" d="M157.393 170.902C143.746 151.636 140.38 137.537 147.079 123.89C127.816 131.384 147.521 172.643 153.424 175.687C154.628 173.57 155.971 172.002 157.393 170.902Z" fill="#F57434"/>
<path fill-rule="evenodd" clip-rule="evenodd" d="M141.552 235.486C119.6 224.57 104.3 214.541 89.0035 202.737C88.5041 203.914 88.0652 205.187 87.6552 206.658C104.08 218.934 122.465 228.041 141.552 235.486Z" fill="#FCAD3F"/>
<path fill-rule="evenodd" clip-rule="evenodd" d="M341.248 1.72995C342.538 1.77722 343.282 1.99255 343.227 2.46522C343.106 3.07182 341.652 2.9589 340.149 2.52825C340.777 2.89063 341.174 3.2819 341.035 3.52611C340.832 3.87799 339.915 3.9594 339.505 3.94101C338.903 3.91475 338.48 3.52611 338.217 2.99042C338.046 3.5655 337.576 3.88324 336.821 3.90688C336.172 3.92788 335.16 3.7073 335.473 3.21362C335.586 3.03243 335.865 2.85124 336.18 2.68055C335.683 2.8066 335.189 2.91164 334.763 2.94315C334.19 2.98254 333.886 2.88275 333.657 2.58602C333.15 1.93478 334.214 1.75884 335.57 1.72995C334.28 1.58815 333.61 1.3807 334.017 0.934288C334.501 0.532516 335.287 0.564027 336.17 0.905402C335.654 0.537768 335.541 0.151752 336.814 0.0178275C337.489 -0.0556994 338.107 0.0362092 338.314 0.787234C338.459 0.548272 338.648 0.356576 338.908 0.235782C339.321 0.0440871 340.38 0.0046977 340.801 0.193767C341.216 0.377584 341.064 0.598165 340.685 0.813494C341.405 0.663814 342.083 0.661188 342.562 0.892273C343.2 1.26778 342.577 1.59866 341.248 1.72995Z" fill="#FFF582"/>
<path fill-rule="evenodd" clip-rule="evenodd" d="M338.057 1.4043C338.772 1.4043 339.353 1.59862 339.353 1.83495C339.353 2.07129 338.772 2.26561 338.057 2.26561C337.342 2.26561 336.761 2.07392 336.761 1.83495C336.761 1.59862 337.342 1.4043 338.057 1.4043Z" fill="#F0AD05"/>
</g>
<defs>
<clipPath id="clip0_7_3024">
<rect width="1301" height="695" fill="white" transform="translate(-275)"/>
</clipPath>
</defs>
</svg>
