<svg width="120" height="120" viewBox="0 0 120 120" fill="none" xmlns="http://www.w3.org/2000/svg">
<g clip-path="url(#clip0_0_192)">
<path fill-rule="evenodd" clip-rule="evenodd" d="M0 20C0 8.9543 8.9543 0 20 0H106.713C117.759 0 126.713 8.9543 126.713 20V106.713C126.713 117.759 117.759 126.713 106.713 126.713H20C8.9543 126.713 0 117.759 0 106.713V20Z" fill="#F6E68A"/>
<mask id="mask0_0_192" style="mask-type:alpha" maskUnits="userSpaceOnUse" x="0" y="0" width="127" height="127">
<path fill-rule="evenodd" clip-rule="evenodd" d="M0 20C0 8.9543 8.9543 0 20 0H106.713C117.759 0 126.713 8.9543 126.713 20V106.713C126.713 117.759 117.759 126.713 106.713 126.713H20C8.9543 126.713 0 117.759 0 106.713V20Z" fill="white"/>
</mask>
<g mask="url(#mask0_0_192)">
</g>
<g clip-path="url(#clip1_0_192)">
<path fill-rule="evenodd" clip-rule="evenodd" d="M29.9794 126.167C29.9794 126.167 33.2739 125.834 34.7222 125.174C35.779 124.687 32.5839 125.008 30.7937 125.218C31.8628 124.626 33.1371 123.707 32.4472 123.645C32.1177 123.615 31.6204 123.83 31.1231 124.108C32.2234 123.078 33.5723 121.617 33.6842 120.538C33.8706 118.701 29.2334 125.138 29.2334 125.138C29.2334 125.138 30.0105 122.671 29.5318 122.449C29.047 122.233 28.6429 125.064 28.6429 125.064C28.6429 125.064 28.6802 120.797 26.8651 120.316C25.4479 119.946 26.9584 123.146 27.6919 124.576C26.89 124.083 25.4789 123.695 25.6281 124.04C25.7151 124.237 26.1565 124.527 26.6289 124.798C26.0943 124.669 25.6281 124.638 25.6778 124.916C25.7649 125.421 27.0827 125.81 27.5675 125.933C26.7594 125.896 24.9008 125.834 25.2614 126.05C25.4168 126.149 25.7214 126.21 26.0508 126.247L24.7144 126.457L33.535 126.568L29.9794 126.167Z" fill="#D2E28B"/>
<path fill-rule="evenodd" clip-rule="evenodd" d="M21.3265 113.67C21.3265 113.67 22.4827 111.019 21.6 108.232C20.7236 105.445 19.2068 102.035 19.2068 102.035C19.2068 102.035 18.9023 101.24 19.8409 102.035C20.7733 102.824 22.6443 107.738 23.0608 110.402C23.4773 113.072 21.3265 113.67 21.3265 113.67Z" fill="#744C39"/>
<path fill-rule="evenodd" clip-rule="evenodd" d="M16.049 128.776C16.049 128.776 18.8214 126.902 19.3311 125.891C19.8346 124.886 17.5284 119.108 17.1555 117.918C17.0187 117.468 17.5968 116.691 18.4919 115.68L18.5541 115.606C18.6038 115.452 18.5914 114.953 17.9946 113.356C17.1182 111.013 14.408 105.667 14.408 105.667C14.408 105.667 14.5261 105.377 14.9923 105.667C15.4585 105.957 18.8338 113.985 19.7538 114.293C21.1151 112.825 22.1035 112.116 23.7631 109.256C25.4228 106.401 25.8766 106.179 25.9698 103.75C26.0631 101.32 26.175 100.87 26.809 100.92C27.4493 100.963 27.3685 103.164 26.9955 105.408C26.6288 107.652 22.8867 114.983 22.5137 115.995C22.147 117 21.4073 119.158 22.0537 120.668C22.7002 122.179 26.3988 128.869 26.3988 128.869C27.5549 130.712 15.4336 130.866 16.049 128.776Z" fill="#4A422C"/>
<path fill-rule="evenodd" clip-rule="evenodd" d="M23.2163 83.359C23.1293 83.2295 22.8185 82.9644 23.3593 81.5278C23.9374 79.9678 25.5971 75.2942 25.5971 75.2942C25.5971 75.2942 25.5038 75.0599 25.1371 75.2942C24.8325 75.4792 18.4237 89.9069 17.8892 75.8861C17.8208 73.9686 17.7275 73.611 17.224 73.648C16.7205 73.685 16.7889 75.4237 17.0811 77.1994C17.3608 78.9135 18.7967 82.4033 19.1572 83.359H23.2163Z" fill="#4A422C"/>
<path fill-rule="evenodd" clip-rule="evenodd" d="M19.5424 104.23C19.5424 104.23 20.077 105.007 19.6667 105.414C19.2565 105.821 18.4795 105.13 18.4795 105.13C18.4795 105.13 18.5478 105.901 17.9138 106.018C17.2736 106.129 17.0809 105.673 17.0809 105.673C17.0809 105.673 17.4103 106.511 16.7576 106.801C16.0987 107.085 15.4274 106.172 15.4274 106.172C15.4274 106.172 15.2533 107.374 14.2712 107.374C13.2828 107.374 13.2642 106.246 13.2642 106.246C13.2642 106.246 13.0155 107.183 12.8042 106.955C12.5929 106.727 12.4561 106.283 12.4561 106.283C12.4561 106.283 12.3007 107.393 11.5113 107.239C10.7218 107.085 11.014 106.246 11.014 106.246C11.014 106.246 10.3364 107.51 9.98832 107.066C9.64022 106.628 9.79563 106.283 9.79563 106.283C9.79563 106.283 9.39158 107.048 8.63944 106.918C7.88729 106.782 8.17945 105.845 8.17945 105.845C8.17945 105.845 7.5019 106.801 6.85543 106.406C6.21517 106.006 6.67516 104.853 6.67516 104.853C6.67516 104.853 6.01626 105.309 5.9541 105.05C5.89193 104.791 6.0349 104.476 6.0349 104.476C6.0349 104.476 5.85464 105.031 5.13357 104.594C4.40629 104.156 5.00925 103.619 5.00925 103.619C5.00925 103.619 4.43116 104.039 4.26954 103.78C4.10792 103.521 4.4871 103.101 4.4871 103.101C4.4871 103.101 2.62228 104.014 2.57877 103.083C2.54147 102.146 3.12578 102.066 3.16308 102.078C3.16308 102.078 1.87635 102.158 2.05662 101.622C2.23689 101.085 2.59742 101.085 2.59742 101.085C2.59742 101.085 1.90122 101.344 1.83906 100.728C1.7769 100.111 2.23689 100.167 2.23689 100.167C2.23689 100.167 0.85692 100.197 1.0807 99.3651C1.30448 98.5389 1.74582 98.5204 1.74582 98.5204C1.74582 98.5204 1.28583 98.4464 1.43501 98.0826C1.57798 97.7126 1.83906 97.6572 1.83906 97.6572C1.83906 97.6572 1.30448 97.9161 1.21124 96.757C1.11799 95.5978 1.91365 96.0787 1.91365 96.0787C1.91365 96.0787 1.43501 96.1342 1.67122 95.2525C1.91365 94.3647 2.32391 94.8641 2.32391 94.8641C2.32391 94.8641 1.95095 94.8826 2.19337 93.9824C2.4358 93.0822 2.97038 93.557 2.97038 93.557C2.97038 93.557 1.0807 91.9909 1.59663 91.1955C2.10635 90.394 4.58034 90.8687 4.58034 90.8687C4.58034 90.8687 4.19495 90.6838 4.58034 90.3385C4.96574 89.9932 5.29519 90.2152 5.29519 90.2152C5.29519 90.2152 4.67359 90.0117 4.59899 89.3211C4.5244 88.6306 4.8352 87.305 5.69924 87.6687C6.55705 88.0325 6.78083 88.8156 6.78083 88.8156C6.78083 88.8156 6.32084 87.903 6.90515 87.6872C7.49568 87.4653 7.76919 87.903 7.76919 87.903C7.76919 87.903 6.94245 86.2568 8.11107 85.4922C9.27348 84.7277 9.85779 85.8807 9.85779 85.8807C9.85779 85.8807 9.52833 85.4922 9.83914 85.2641C10.1562 85.036 10.5043 85.4121 10.5043 85.4121C10.5043 85.4121 9.60914 84.5119 10.2618 83.9755C10.9145 83.4391 11.9961 84.1235 11.9961 84.1235C11.9961 84.1235 11.2688 81.9161 13.4009 81.7805C15.5331 81.6449 15.4212 83.2788 15.4212 83.2788C15.4212 83.2788 15.3963 81.8853 16.2355 82.0764C17.0684 82.2614 17.3109 82.6622 17.3109 82.6622C17.3109 82.6622 16.8509 81.1948 17.8517 81.3797C18.8462 81.5647 19.1446 82.3169 19.1446 82.3169C19.1446 82.3169 18.4422 79.345 20.1143 79.5362C21.7864 79.7212 21.9232 82.1258 21.9232 82.1258C21.9232 82.1258 22.3521 80.3624 23.5642 80.8741C24.7826 81.3797 24.3226 82.5574 24.3226 82.5574C24.3226 82.5574 24.565 81.1639 25.9698 81.6757C27.3685 82.1813 26.7468 83.3836 26.7468 83.3836C26.7468 83.3836 27.5052 82.2614 27.8844 82.8533C28.2573 83.4391 28.046 83.92 28.046 83.92C28.046 83.92 27.8284 83.1739 29.1214 83.6795C30.4143 84.1851 29.7119 84.777 29.7119 84.777C29.7119 84.777 31.4835 82.6129 32.5154 83.7104C33.541 84.8017 32.5402 86.2691 32.5402 86.2691C32.5402 86.2691 32.9629 85.7697 33.4416 86.2938C33.9202 86.8179 33.7648 87.2618 33.7648 87.2618C33.7648 87.2618 34.4672 86.1211 35.8472 86.7131C37.2271 87.3111 35.4991 88.7046 35.4991 88.7046C35.4991 88.7046 36.1704 88.2298 36.5993 88.8525C37.0282 89.4753 36.6739 89.7959 36.6739 89.7959C36.6739 89.7959 37.5752 88.9265 38.5263 90.1967C39.4836 91.4668 38.4517 91.9107 38.4517 91.9107C38.4517 91.9107 41.1681 91.4421 41.0189 92.9712C40.876 94.4942 40.3414 94.2599 40.3414 94.2599C40.3414 94.2599 41.4914 94.7285 41.2862 95.0491C41.0811 95.3697 40.6087 95.5177 40.6087 95.5177C40.6087 95.5177 42.9459 96.0479 42.43 97.4968C41.9141 98.952 40.9568 97.6942 40.9568 97.6942C40.9568 97.6942 41.4851 98.3477 40.9941 98.582C40.5092 98.8163 40.2419 98.5327 40.2419 98.5327C40.2419 98.5327 41.6592 99.3096 40.7143 100.302C39.7757 101.301 38.7128 100.771 38.7128 100.771C38.7128 100.771 39.0671 101.239 38.4766 101.474C37.886 101.708 37.5317 101.591 37.5317 101.591C37.5317 101.591 37.9482 101.856 37.625 102.349C37.2955 102.849 36.4439 102.528 36.4439 102.528C36.4439 102.528 36.7982 103.286 36.3258 103.872C35.8534 104.452 34.5294 103.755 34.5294 103.755C34.5294 103.755 35.0266 104.544 34.4423 104.513C33.8518 104.483 33.5845 104.193 33.5845 104.193C33.5845 104.193 34.2621 104.686 33.7896 105.333C33.3234 105.975 31.8751 105.037 31.8751 105.037C31.8751 105.037 32.4967 105.975 31.4089 106.209C30.3149 106.443 30.0227 105.654 30.0227 105.654C30.0227 105.654 30.2776 106.61 29.2022 106.579C28.133 106.554 27.9838 104.711 27.9838 104.711C27.9838 104.711 27.6979 105.549 27.0576 105.142C26.4236 104.742 26.6225 104.051 26.6225 104.051C26.6225 104.051 26.7966 105.401 25.6093 105.259C24.422 105.118 24.5091 103.533 24.5091 103.533C24.5091 103.533 24.8261 104.396 23.9558 104.31C23.0918 104.224 23.1167 103.422 23.1167 103.422C23.1167 103.422 23.2658 104.452 22.6256 104.772C21.9853 105.087 20.9473 103.909 20.9473 103.909C20.9473 103.909 21.2083 104.106 21.1213 104.624C21.0343 105.142 19.5424 104.23 19.5424 104.23Z" fill="#AFBD77"/>
<path fill-rule="evenodd" clip-rule="evenodd" d="M8.60842 78.4569C8.60842 78.4569 7.15386 79.2646 6.86792 78.4878C6.57577 77.7109 7.42115 77.7109 7.37764 77.6677C7.37764 77.6677 5.96659 77.8774 6.02254 77.3718C6.0847 76.8662 6.32713 76.4777 6.32713 76.4777C6.32713 76.4777 5.39471 76.7737 5.30147 76.1201C5.21445 75.4666 6.6255 75.3186 6.6255 75.3186C6.6255 75.3186 5.39471 74.1841 6.32713 73.4381C7.25332 72.692 8.6395 73.586 8.6395 73.586C8.6395 73.586 7.8252 72.988 8.27897 72.8092C8.72653 72.6304 9.54083 73.0805 9.54083 73.0805C9.54083 73.0805 8.70166 72.1864 9.60299 71.4404C10.5043 70.6943 11.3435 71.946 11.3435 71.946C11.3435 71.946 10.8338 71.1444 11.5238 70.7868C12.2137 70.4292 12.9659 70.9348 12.9659 70.9348C12.9659 70.9348 11.5238 69.2331 12.6364 68.339C13.7491 67.445 15.9745 69.4427 15.9745 69.4427C15.9745 69.4427 15.5207 68.339 16.4531 68.1911C17.3855 68.0431 18.1625 69.1159 18.1625 69.1159C18.1625 69.1159 17.9574 67.593 19.4865 67.1799C21.0219 66.7606 21.2022 69.1159 21.2022 69.1159C21.2022 69.1159 21.7741 68.1294 22.4951 68.339C23.2162 68.5487 23.1229 69.2639 23.1229 69.2639C23.1229 69.2639 23.2162 67.9814 24.6583 68.1047C26.1004 68.2219 25.9513 69.862 25.9513 69.862C25.9513 69.862 26.2807 69.1467 27.0018 69.6215C27.7228 70.0963 27.5737 70.6388 27.5737 70.6388C27.5737 70.6388 28.0212 69.4427 29.252 69.862C30.489 70.2751 29.6747 71.7672 29.6747 71.7672C29.6747 71.7672 30.6693 70.9656 31.4214 71.65C32.1673 72.3344 31.2411 72.692 31.2411 72.692C31.2411 72.692 32.3787 72.0693 33.2551 72.9016C34.1254 73.734 33.4354 74.1841 33.4354 74.1841C33.4354 74.1841 34.3616 73.4689 34.517 74.1225C34.6662 74.7822 33.7959 75.1645 33.7959 75.1645C33.7959 75.1645 34.6351 75.3186 34.4238 75.7317C34.2124 76.151 32.8635 75.9105 32.8635 75.9105C32.8635 75.9105 33.3422 76.1818 33.0749 76.5086C32.8014 76.8354 31.7819 76.3914 31.7819 76.3914C31.7819 76.3914 31.9622 76.7737 31.7819 77.1066C31.6017 77.4334 30.0041 76.8662 30.0041 76.8662C30.0041 76.8662 30.4579 77.6431 29.886 78.0007C29.3142 78.3583 28.6242 77.0142 28.6242 77.0142C28.6242 77.0142 28.9225 77.791 28.1145 77.791C27.3001 77.791 27.2442 77.1066 27.2442 77.1066C27.2442 77.1066 27.4245 77.8465 26.4299 77.9698C25.4353 78.087 25.2861 77.4643 25.2861 77.4643C25.2861 77.4643 25.5596 78.2658 25.1059 78.5063C24.6583 78.7467 24.0243 77.7602 24.0243 77.7602C24.0243 77.7602 24.2356 78.5371 23.1851 78.5679C22.1346 78.5926 22.464 78.0315 22.464 78.0315C22.464 78.0315 22.75 78.9009 21.6933 79.129C20.6303 79.3633 20.8852 78.235 20.8852 78.235C20.8852 78.235 21.0468 78.7406 20.4376 78.9009C19.8284 79.055 19.8098 78.3706 19.8098 78.3706C19.8098 78.3706 19.9652 79.2461 19.2752 79.2893C18.5914 79.3263 18.3739 78.6481 18.3739 78.6481C18.3739 78.6481 18.5914 79.1105 18.0009 79.3633C17.4166 79.6161 17.0623 78.8392 17.0623 78.8392C17.0623 78.8392 17.1369 79.3633 16.6707 79.5606C16.1982 79.7579 16.1547 78.9934 16.1547 78.9934C16.1547 78.9934 16.1361 79.7949 15.4088 79.949C14.6877 80.1032 14.5075 79.2461 14.5075 79.2461C14.5075 79.2461 14.3894 80.3005 13.7802 80.0662C13.1772 79.8319 13.0343 79.2461 13.0343 79.2461C13.0343 79.2461 13.1337 79.6777 12.5681 79.8935C11.9962 80.1032 11.8967 79.3633 11.8967 79.3633C11.8967 79.3633 11.8594 80.1278 11.0949 80.0292C10.3303 79.9305 10.1687 79.388 10.1687 79.388C10.1687 79.388 10.3676 79.8134 9.73975 79.8689C9.11192 79.9305 9.13057 79.1907 9.13057 79.1907C9.13057 79.1907 8.99382 79.5298 8.50275 79.2708C8.0179 79.0118 8.60842 78.4569 8.60842 78.4569Z" fill="#D2E28B"/>
<path fill-rule="evenodd" clip-rule="evenodd" d="M128.038 104.23C128.038 104.23 128.572 105.007 128.162 105.414C127.752 105.821 126.975 105.13 126.975 105.13C126.975 105.13 127.043 105.901 126.403 106.018C125.769 106.129 125.576 105.673 125.576 105.673C125.576 105.673 125.906 106.511 125.247 106.801C124.594 107.085 123.917 106.172 123.917 106.172C123.917 106.172 123.749 107.374 122.76 107.374C121.778 107.374 121.76 106.246 121.76 106.246C121.76 106.246 121.511 107.183 121.3 106.955C121.088 106.727 120.951 106.283 120.951 106.283C120.951 106.283 120.796 107.393 120.007 107.239C119.217 107.085 119.503 106.246 119.503 106.246C119.503 106.246 118.832 107.51 118.484 107.066C118.136 106.628 118.291 106.283 118.291 106.283C118.291 106.283 117.887 107.048 117.135 106.918C116.383 106.782 116.669 105.845 116.669 105.845C116.669 105.845 115.991 106.801 115.351 106.406C114.711 106.006 115.171 104.853 115.171 104.853C115.171 104.853 114.505 105.309 114.449 105.05C114.387 104.791 114.53 104.476 114.53 104.476C114.53 104.476 114.35 105.031 113.623 104.594C112.902 104.156 113.505 103.619 113.505 103.619C113.505 103.619 112.92 104.039 112.759 103.78C112.603 103.521 112.982 103.101 112.982 103.101C112.982 103.101 111.118 104.014 111.074 103.083C111.037 102.146 111.615 102.066 111.652 102.078C111.652 102.078 110.372 102.158 110.552 101.622C110.732 101.085 111.093 101.085 111.093 101.085C111.093 101.085 110.39 101.344 110.334 100.728C110.272 100.111 110.732 100.167 110.732 100.167C110.732 100.167 109.352 100.197 109.576 99.3651C109.794 98.5389 110.241 98.5204 110.241 98.5204C110.241 98.5204 109.775 98.4464 109.924 98.0826C110.073 97.7126 110.334 97.6572 110.334 97.6572C110.334 97.6572 109.794 97.9161 109.7 96.757C109.613 95.5978 110.409 96.0787 110.409 96.0787C110.409 96.0787 109.924 96.1342 110.167 95.2525C110.409 94.3647 110.813 94.8641 110.813 94.8641C110.813 94.8641 110.446 94.8826 110.689 93.9824C110.925 93.0822 111.466 93.557 111.466 93.557C111.466 93.557 109.576 91.9909 110.086 91.1955C110.602 90.394 113.076 90.8687 113.076 90.8687C113.076 90.8687 112.69 90.6838 113.076 90.3385C113.461 89.9932 113.791 90.2152 113.791 90.2152C113.791 90.2152 113.163 90.0117 113.094 89.3211C113.02 88.6306 113.331 87.305 114.195 87.6687C115.052 88.0325 115.27 88.8156 115.27 88.8156C115.27 88.8156 114.816 87.903 115.401 87.6872C115.985 87.4653 116.265 87.903 116.265 87.903C116.265 87.903 115.438 86.2568 116.6 85.4922C117.769 84.7277 118.347 85.8807 118.347 85.8807C118.347 85.8807 118.024 85.4922 118.335 85.2641C118.645 85.036 119 85.4121 119 85.4121C119 85.4121 118.105 84.5119 118.757 83.9755C119.404 83.4391 120.491 84.1235 120.491 84.1235C120.491 84.1235 119.764 81.9161 121.896 81.7805C124.028 81.6449 123.917 83.2788 123.917 83.2788C123.917 83.2788 123.892 81.8853 124.725 82.0764C125.564 82.2614 125.806 82.6622 125.806 82.6622C125.806 82.6622 125.346 81.1948 126.347 81.3797C127.342 81.5647 127.64 82.3169 127.64 82.3169C127.64 82.3169 126.938 79.345 128.61 79.5362C130.282 79.7212 130.419 82.1258 130.419 82.1258C130.419 82.1258 130.847 80.3624 132.06 80.8741C133.272 81.3797 132.818 82.5574 132.818 82.5574C132.818 82.5574 133.06 81.1639 134.459 81.6757C135.864 82.1813 135.242 83.3836 135.242 83.3836C135.242 83.3836 136.001 82.2614 136.374 82.8533C136.753 83.4391 136.535 83.92 136.535 83.92C136.535 83.92 136.324 83.1739 137.617 83.6795C138.91 84.1851 138.207 84.777 138.207 84.777C138.207 84.777 139.979 82.6129 141.005 83.7104C142.036 84.8017 141.029 86.2691 141.029 86.2691C141.029 86.2691 141.458 85.7697 141.937 86.2938C142.409 86.8179 142.26 87.2618 142.26 87.2618C142.26 87.2618 142.963 86.1211 144.343 86.7131C145.716 87.3111 143.988 88.7046 143.988 88.7046C143.988 88.7046 144.666 88.2298 145.095 88.8525C145.517 89.4753 145.169 89.7959 145.169 89.7959C145.169 89.7959 146.071 88.9265 147.022 90.1967C147.973 91.4668 146.947 91.9107 146.947 91.9107C146.947 91.9107 149.664 91.4421 149.514 92.9712C149.365 94.4942 148.837 94.2599 148.837 94.2599C148.837 94.2599 149.987 94.7285 149.782 95.0491C149.576 95.3697 149.098 95.5177 149.098 95.5177C149.098 95.5177 151.435 96.0479 150.925 97.4968C150.409 98.952 149.452 97.6942 149.452 97.6942C149.452 97.6942 149.974 98.3477 149.489 98.582C149.005 98.8163 148.737 98.5327 148.737 98.5327C148.737 98.5327 150.155 99.3096 149.21 100.302C148.265 101.301 147.208 100.771 147.208 100.771C147.208 100.771 147.556 101.239 146.972 101.474C146.381 101.708 146.027 101.591 146.027 101.591C146.027 101.591 146.437 101.856 146.114 102.349C145.791 102.849 144.939 102.528 144.939 102.528C144.939 102.528 145.294 103.286 144.821 103.872C144.349 104.452 143.025 103.755 143.025 103.755C143.025 103.755 143.522 104.544 142.932 104.513C142.347 104.483 142.08 104.193 142.08 104.193C142.08 104.193 142.757 104.686 142.285 105.333C141.813 105.975 140.37 105.037 140.37 105.037C140.37 105.037 140.992 105.975 139.898 106.209C138.81 106.443 138.518 105.654 138.518 105.654C138.518 105.654 138.767 106.61 137.698 106.579C136.622 106.554 136.479 104.711 136.479 104.711C136.479 104.711 136.193 105.549 135.553 105.142C134.913 104.742 135.118 104.051 135.118 104.051C135.118 104.051 135.292 105.401 134.105 105.259C132.917 105.118 133.004 103.533 133.004 103.533C133.004 103.533 133.321 104.396 132.451 104.31C131.581 104.224 131.612 103.422 131.612 103.422C131.612 103.422 131.755 104.452 131.121 104.772C130.481 105.087 129.436 103.909 129.436 103.909C129.436 103.909 129.697 104.106 129.61 104.624C129.523 105.142 128.038 104.23 128.038 104.23Z" fill="#AFBD77"/>
<path fill-rule="evenodd" clip-rule="evenodd" d="M117.104 78.4569C117.104 78.4569 115.649 79.2646 115.357 78.4878C115.071 77.7109 115.91 77.7109 115.873 77.6677C115.873 77.6677 114.456 77.8774 114.518 77.3718C114.58 76.8662 114.816 76.4777 114.816 76.4777C114.816 76.4777 113.884 76.7737 113.797 76.1201C113.704 75.4666 115.121 75.3186 115.121 75.3186C115.121 75.3186 113.884 74.1841 114.816 73.4381C115.749 72.692 117.135 73.586 117.135 73.586C117.135 73.586 116.321 72.988 116.774 72.8092C117.222 72.6304 118.036 73.0805 118.036 73.0805C118.036 73.0805 117.191 72.1864 118.092 71.4404C118.994 70.6943 119.839 71.946 119.839 71.946C119.839 71.946 119.329 71.1444 120.019 70.7868C120.709 70.4292 121.461 70.9348 121.461 70.9348C121.461 70.9348 120.019 69.2331 121.132 68.339C122.238 67.445 124.464 69.4427 124.464 69.4427C124.464 69.4427 124.016 68.339 124.949 68.1911C125.875 68.0431 126.658 69.1159 126.658 69.1159C126.658 69.1159 126.447 67.593 127.982 67.1799C129.511 66.7606 129.691 69.1159 129.691 69.1159C129.691 69.1159 130.263 68.1294 130.984 68.339C131.705 68.5487 131.618 69.2639 131.618 69.2639C131.618 69.2639 131.705 67.9814 133.147 68.1047C134.596 68.2219 134.44 69.862 134.44 69.862C134.44 69.862 134.776 69.1467 135.497 69.6215C136.218 70.0963 136.063 70.6388 136.063 70.6388C136.063 70.6388 136.517 69.4427 137.747 69.862C138.978 70.2751 138.17 71.7672 138.17 71.7672C138.17 71.7672 139.158 70.9656 139.911 71.65C140.663 72.3344 139.73 72.692 139.73 72.692C139.73 72.692 140.874 72.0693 141.744 72.9016C142.615 73.734 141.925 74.1841 141.925 74.1841C141.925 74.1841 142.857 73.4689 143.006 74.1225C143.155 74.7822 142.285 75.1645 142.285 75.1645C142.285 75.1645 143.13 75.3186 142.919 75.7317C142.708 76.151 141.353 75.9105 141.353 75.9105C141.353 75.9105 141.838 76.1818 141.564 76.5086C141.297 76.8354 140.271 76.3914 140.271 76.3914C140.271 76.3914 140.451 76.7737 140.271 77.1066C140.091 77.4334 138.5 76.8662 138.5 76.8662C138.5 76.8662 138.953 77.6431 138.381 78.0007C137.81 78.3583 137.12 77.0142 137.12 77.0142C137.12 77.0142 137.418 77.791 136.604 77.791C135.796 77.791 135.733 77.1066 135.733 77.1066C135.733 77.1066 135.914 77.8465 134.925 77.9698C133.931 78.087 133.782 77.4643 133.782 77.4643C133.782 77.4643 134.055 78.2658 133.601 78.5063C133.147 78.7467 132.52 77.7602 132.52 77.7602C132.52 77.7602 132.731 78.5371 131.681 78.5679C130.624 78.5926 130.959 78.0315 130.959 78.0315C130.959 78.0315 131.245 78.9009 130.189 79.129C129.126 79.3633 129.381 78.235 129.381 78.235C129.381 78.235 129.536 78.7406 128.927 78.9009C128.324 79.055 128.299 78.3706 128.299 78.3706C128.299 78.3706 128.461 79.2461 127.771 79.2893C127.087 79.3263 126.869 78.6481 126.869 78.6481C126.869 78.6481 127.087 79.1105 126.496 79.3633C125.906 79.6161 125.551 78.8392 125.551 78.8392C125.551 78.8392 125.632 79.3633 125.16 79.5606C124.687 79.7579 124.65 78.9934 124.65 78.9934C124.65 78.9934 124.631 79.7949 123.904 79.949C123.177 80.1032 123.003 79.2461 123.003 79.2461C123.003 79.2461 122.885 80.3005 122.276 80.0662C121.666 79.8319 121.53 79.2461 121.53 79.2461C121.53 79.2461 121.629 79.6777 121.057 79.8935C120.492 80.1032 120.392 79.3633 120.392 79.3633C120.392 79.3633 120.355 80.1278 119.59 80.0292C118.819 79.9305 118.664 79.388 118.664 79.388C118.664 79.388 118.863 79.8134 118.235 79.8689C117.607 79.9305 117.626 79.1907 117.626 79.1907C117.626 79.1907 117.489 79.5298 116.998 79.2708C116.507 79.0118 117.104 78.4569 117.104 78.4569Z" fill="#D2E28B"/>
<path fill-rule="evenodd" clip-rule="evenodd" d="M31.496 94.3467C33.5722 97.0719 37.6188 99.1559 38.9304 99.791C37.4448 95.7463 36.4129 91.6523 35.8845 87.5089C35.4867 84.3459 35.381 81.1582 35.5986 77.9336C34.144 79.9929 32.3476 82.8476 31.2598 85.7579C30.0912 88.8654 29.7369 92.0407 31.496 94.3467Z" fill="#8C7E57"/>
<path fill-rule="evenodd" clip-rule="evenodd" d="M128.218 100.851C132.165 92.0345 134.645 78.2665 131.792 64.9732C129.654 55.0218 124.526 45.3417 114.785 38.1956C114.139 37.7764 113.473 37.3633 112.808 36.9625C98.8097 28.6018 84.1336 26.9124 72.2982 28.3305C60.5623 29.7363 51.6298 34.1756 48.9258 38.1648C49.1806 39.2438 49.4604 40.4214 49.852 41.5929C52.5 40.2426 55.4216 39.287 58.5793 38.769C60.3198 38.4854 62.1349 38.3374 64.0122 38.3374C68.1148 34.9895 73.1001 34.7058 75.9595 39.6877C76.4381 39.7987 78.651 40.3598 80.8639 41.6114C82.8158 42.7212 84.0217 43.7509 84.4506 44.1455C86.6698 40.1687 91.4686 31.623 91.8291 31.4442C95.9566 29.3972 107.332 40.3105 109.458 44.1147C112.019 48.702 113.337 53.4557 113.125 54.4237C112.908 55.4041 110.825 56.7975 109.209 57.7532C111.111 57.1675 113.679 56.4399 114.083 56.6804C114.456 56.9023 116.271 60.053 117.228 65.5775C117.769 68.6665 118.055 72.5139 117.688 77.021C117.122 84.0499 113.418 98.6872 108.507 105.229C107.929 106.006 107.351 106.592 106.99 106.592C106.424 106.592 104.013 103.897 102.807 102.51L105.219 110.112L105.138 110.137C105.057 110.439 104.348 111.265 101.035 113.522C99.1392 114.811 97.3365 115.853 95.8322 116.629C93.6069 117.776 91.9907 118.362 91.6053 118.362C91.1515 118.362 91.0024 118.066 90.4926 117.086C90.0824 116.29 89.4173 114.995 88.1305 112.942C85.5882 108.873 77.8243 102.886 76.867 102.159C76.4505 102.202 75.9843 102.214 75.487 102.159C74.5173 102.054 73.989 101.77 73.7093 101.505C72.5841 108.583 70.738 115.772 67.7356 121.278C68.0526 121.161 68.5934 121.056 69.4885 121.075C70.7255 121.1 71.6704 121.334 72.1614 121.488C72.2858 118.38 72.3293 114.86 72.4039 114.175C72.4101 114.2 73.1933 121.321 72.236 126.088C72.205 126.223 72.1863 126.347 72.1614 126.464C71.8009 128.665 72.1428 130.946 73.4047 132.839C73.7528 133.351 74.1692 133.838 74.6541 134.288C75.0208 133.69 76.0465 132.081 77.6938 129.898C78.1724 129.263 78.6262 128.825 79.0551 128.542C79.6145 128.165 80.1242 128.042 80.5718 128.061C81.0256 128.085 81.411 128.264 81.7155 128.492C81.9642 128.677 82.1631 128.893 82.2999 129.096C82.6417 129.596 82.9215 130.077 83.0831 130.373C83.4871 129.762 83.9223 129.288 84.3574 128.936C85.2649 128.202 86.1973 127.993 86.8625 128.19C87.4468 128.363 88.1243 129.152 88.7335 130.212C88.8827 130.465 89.0194 130.73 89.1562 131.002C89.5167 130.268 90.3186 128.807 91.2137 128.363C91.885 128.03 92.7864 127.987 93.812 128.431C94.6388 128.794 95.5587 129.485 96.5098 130.613C98.213 132.642 99.2386 135.028 99.537 135.786C101.713 135.059 103.503 134.078 104.609 132.821C106.791 130.342 107.68 127.173 107.612 123.923C107.581 122.419 106.039 116.364 104.553 113.226C105.654 114.835 106.549 116.679 107.152 118.621C107.954 118.239 110.042 116.969 113.337 113.084C114.269 111.987 116.569 109.231 118.968 105.525C118.962 105.531 118.042 108.207 113.666 113.362C110.278 117.345 108.103 118.646 107.276 119.028C107.742 120.625 108.01 122.277 108.041 123.917C108.053 124.521 108.034 125.12 107.978 125.718C108.401 125.422 109.091 124.996 109.607 124.996C110.042 125.002 110.527 125.218 110.937 125.724C111.273 126.131 111.565 126.729 111.752 127.567C112.069 128.967 112 130.367 111.951 130.94C112.193 130.897 112.429 130.854 112.665 130.804C114.462 130.441 116.128 129.849 117.06 128.973C118.788 127.345 119.037 125.101 119.31 122.721C119.385 122.012 119.472 121.291 119.59 120.563C119.913 118.652 120.448 117.53 122.282 113.688C123.531 111.068 125.396 107.165 128.218 100.851Z" fill="#A39469"/>
<path fill-rule="evenodd" clip-rule="evenodd" d="M128.218 100.851C132.165 92.0341 134.646 78.2661 131.792 64.9729C129.654 55.0215 124.526 45.3413 114.785 38.1953C114.139 37.776 113.474 37.3629 112.809 36.9621C101.042 29.9333 88.7959 27.6211 78.1602 27.9047C74.07 30.6608 73.61 34.6377 73.8089 37.1471C74.6046 37.7575 75.3319 38.5961 75.9597 39.6874C76.4383 39.7984 78.6513 40.3594 80.8642 41.6111C82.816 42.7209 84.0219 43.7506 84.4509 44.1452C86.67 40.1683 91.4688 31.6227 91.8293 31.4439C95.9568 29.3968 107.332 40.3101 109.458 44.1143C112.019 48.7016 113.337 53.4554 113.126 54.4234C112.908 55.4037 110.826 56.7972 109.209 57.7529C111.112 57.1671 113.679 56.4396 114.083 56.68C114.456 56.902 116.271 60.0527 117.228 65.5771C117.769 68.6661 118.055 72.5135 117.688 77.0206C117.123 84.0495 113.418 98.6869 108.507 105.229C107.929 106.006 107.351 106.591 106.99 106.591C106.425 106.591 104.013 103.897 102.807 102.51L105.219 110.112L105.138 110.137C105.057 110.439 104.348 111.265 101.035 113.522C99.1394 114.81 97.3368 115.852 95.8325 116.629C93.6071 117.776 91.9909 118.362 91.6056 118.362C91.1518 118.362 91.0026 118.066 90.4929 117.085C90.0826 116.29 89.4175 114.995 88.1308 112.942C85.5884 108.873 77.8245 102.886 76.8672 102.158C76.4508 102.201 75.9846 102.214 75.4873 102.158C74.5176 102.053 73.9892 101.77 73.7095 101.505C72.5844 108.583 70.7382 115.772 67.7358 121.278C68.0529 121.161 68.5937 121.056 69.4888 121.075C70.7258 121.099 71.6706 121.333 72.1617 121.488C72.286 118.38 72.3295 114.859 72.4041 114.175C72.4103 114.2 73.1935 121.321 72.2363 126.087C72.2052 126.223 72.1865 126.346 72.1617 126.463C71.8011 128.664 72.143 130.946 73.4049 132.839C73.753 133.35 74.1695 133.837 74.6543 134.288C75.0211 133.69 76.0467 132.08 77.694 129.898C78.1726 129.263 78.6264 128.825 79.0553 128.541C79.6148 128.165 80.1245 128.042 80.572 128.06C81.0258 128.085 81.4112 128.264 81.7158 128.492C81.9644 128.677 82.1633 128.893 82.3001 129.096C82.642 129.595 82.9217 130.076 83.0833 130.372C83.4874 129.762 83.9225 129.287 84.3576 128.936C85.2652 128.202 86.1976 127.992 86.8627 128.19C87.447 128.362 88.1246 129.152 88.7337 130.212C88.8829 130.465 89.0197 130.73 89.1564 131.001C89.517 130.268 90.3188 128.806 91.2139 128.362C91.8853 128.029 92.7866 127.986 93.8123 128.43C94.639 128.794 95.559 129.485 96.51 130.613C98.2132 132.641 99.2389 135.027 99.5373 135.786C101.713 135.058 103.503 134.078 104.61 132.82C106.791 130.342 107.68 127.172 107.612 123.923C107.581 122.419 106.039 116.364 104.554 113.226C105.654 114.835 106.549 116.678 107.152 118.621C107.954 118.238 110.042 116.968 113.337 113.084C114.269 111.986 116.569 109.23 118.969 105.525C118.962 105.531 118.042 108.207 113.666 113.361C110.279 117.344 108.103 118.645 107.276 119.027C107.742 120.624 108.01 122.277 108.041 123.917C108.053 124.521 108.035 125.119 107.979 125.717C108.401 125.421 109.091 124.996 109.607 124.996C110.042 125.002 110.527 125.218 110.938 125.723C111.273 126.13 111.565 126.728 111.752 127.567C112.069 128.967 112 130.366 111.951 130.94C112.193 130.896 112.429 130.853 112.666 130.804C114.462 130.44 116.128 129.848 117.06 128.973C118.788 127.345 119.037 125.101 119.311 122.721C119.385 122.012 119.472 121.29 119.59 120.563C119.914 118.651 120.448 117.529 122.282 113.688C123.531 111.068 125.396 107.165 128.218 100.851Z" fill="#7D6F4A"/>
<path fill-rule="evenodd" clip-rule="evenodd" d="M87.5651 112.116C84.5938 108.102 77.7624 102.837 76.8673 102.158C76.4508 102.202 75.9846 102.214 75.4873 102.158C74.5176 102.054 73.9892 101.77 73.7095 101.505C72.5844 108.583 70.7382 115.772 67.7358 121.278C68.0529 121.161 68.5937 121.056 69.4888 121.075C70.7258 121.099 71.6706 121.334 72.1617 121.488C72.286 118.38 72.3295 114.86 72.4041 114.175C72.4041 114.188 72.6714 116.592 72.7087 119.533C73.2868 118.59 75.4189 115.544 80.0561 113.343C84.1276 111.407 86.5581 111.777 87.5651 112.116Z" fill="#695D3D"/>
<path fill-rule="evenodd" clip-rule="evenodd" d="M90.7103 66.8041C93.178 69.3875 94.4834 72.6368 94.5704 76.4164C94.6575 80.1836 93.5199 84.4749 91.1019 89.1485C92.0654 90.7146 92.9791 92.5828 93.6567 94.5065C94.9807 98.2429 95.4407 102.177 93.7313 104.47C93.6629 104.563 93.5945 104.649 93.5199 104.729C93.1097 105.204 92.631 105.562 92.0902 105.827C90.2067 106.733 87.6519 106.431 85.1842 105.568C82.7475 104.711 80.3854 103.305 78.8686 102.01C78.7567 101.918 78.6511 101.819 78.5516 101.727C78.3465 101.813 77.9673 101.955 77.47 102.06C78.0978 102.54 85.8555 108.49 88.4973 112.714C89.7903 114.773 90.4616 116.086 90.8781 116.888C91.2883 117.696 91.4127 117.936 91.6054 117.936C91.941 117.936 93.4702 117.363 95.6334 116.247C97.1315 115.476 98.9155 114.446 100.793 113.164C104.79 110.445 104.989 110.383 104.995 110.383L104.852 110.371L104.808 110.235L102.079 101.628L101.75 100.604L102.446 101.431C102.459 101.443 106.431 106.16 106.99 106.16C107.195 106.16 107.655 105.648 108.159 104.976C113.02 98.5019 116.7 83.9509 117.259 76.9898C117.62 72.5197 117.34 68.7093 116.805 65.6511C115.867 60.2623 114.195 57.2472 113.859 57.0438C113.393 56.7663 107.27 58.8257 107.251 58.8318L104.485 59.7567L107.083 58.4372C107.102 58.4311 112.392 55.7551 112.703 54.3309C112.902 53.4245 111.596 48.8249 109.079 44.324C107.052 40.6862 95.8323 29.9332 92.0218 31.8261C91.164 32.4735 85.5571 43.8862 83.3442 46.1367C83.3504 46.1305 83.6923 45.5139 84.2393 44.5336C83.9223 44.2315 82.7226 43.1586 80.6464 41.981C78.2097 40.5999 75.7793 40.0881 75.773 40.082L75.6798 40.0635L75.6301 39.9771C72.9945 35.1679 68.5251 35.2727 64.6774 38.3371C65.8273 38.3556 66.9959 38.4296 68.1894 38.559C65.8833 38.6207 61.992 38.8057 60.8793 38.9043C60.121 38.9783 59.3813 39.0708 58.6478 39.1941C51.8971 40.2916 46.2218 43.4608 42.0446 48.1713C37.8612 52.8881 35.1634 59.1586 34.374 66.4465C33.9637 70.2014 34.057 74.2276 34.7097 78.4572C35.0453 77.964 35.3624 77.5077 35.6607 77.0946C35.9529 73.6357 36.618 70.1397 37.6872 66.6006C37.5504 66.6684 37.4074 66.7054 37.2583 66.7054C36.5745 66.7054 36.0213 65.9409 36.0213 64.9975C36.0213 64.8249 36.0399 64.6584 36.071 64.5043C36.158 64.7941 36.3507 64.9975 36.5683 64.9975C36.8729 64.9975 37.1215 64.6152 37.1215 64.1405C37.1215 63.8199 37.0034 63.5363 36.8356 63.3883C36.9661 63.3205 37.1091 63.2835 37.2583 63.2835C37.7804 63.2835 38.228 63.7397 38.4082 64.3748C38.489 64.1528 38.5636 63.9309 38.6444 63.7151C38.5947 63.2588 38.5326 62.9258 38.1161 62.149C37.9855 61.9147 37.8177 61.7482 37.625 61.6557C37.4261 61.5571 37.2023 61.5324 36.9785 61.5756C36.7485 61.6249 36.5186 61.7482 36.3134 61.9517C36.0213 62.2415 35.7788 62.6792 35.6607 63.2773C35.294 65.053 35.928 66.3416 36.0337 66.5389C36.0896 66.5574 36.1456 66.5698 36.1891 66.5883C36.531 66.7116 37.2458 67.3775 37.2583 67.7782C36.9412 67.285 36.5496 66.9829 36.1021 66.8287C35.6483 66.6684 35.1386 66.6499 34.5916 66.7239C34.921 66.4835 35.3375 66.4403 35.6856 66.4773C35.4743 65.9964 35.0578 64.7817 35.3748 63.2218C35.5115 62.5621 35.7851 62.075 36.1145 61.7482C36.3569 61.5077 36.6367 61.3598 36.9164 61.2981C37.2085 61.2426 37.4945 61.2734 37.7493 61.3968C37.998 61.5201 38.2093 61.7235 38.3647 62.0133C38.6134 62.4758 38.7315 62.9443 38.775 63.3513C39.2847 61.9825 39.8504 60.6014 40.4844 59.2141C40.0368 61.033 38.7936 64.5228 38.4704 65.4969C36.0088 73.0006 35.3997 80.3069 36.3134 87.453C37.451 96.4487 41.0128 105.192 46.371 113.75L46.4705 113.898C47.1107 114.046 47.7323 114.298 48.3353 114.644C51.089 113.756 53.8427 113.306 56.5778 113.343C59.2445 113.38 61.8988 113.885 64.5095 114.903C60.0526 113.941 59.375 113.811 56.5592 113.768C54.0044 113.737 51.4247 114.15 48.8388 114.958C49.2677 115.248 49.6842 115.593 50.082 115.988C51.319 115.975 52.4939 116.142 53.6003 116.512C55.2662 117.061 56.7829 118.047 58.1194 119.527C55.6081 117.751 55.2227 117.492 53.4698 116.913C52.7549 116.678 52.009 116.524 51.2382 116.456C52.643 117.073 53.849 117.887 54.8249 118.904C56.037 120.168 56.9073 121.747 57.3859 123.67C56.0121 120.933 55.7884 120.526 54.5141 119.2C53.4946 118.133 52.2141 117.307 50.7098 116.697C52.8855 119.589 53.2336 124.848 53.2336 124.866C52.2701 121.648 52.4006 118.941 49.8831 116.395C49.8831 116.389 49.8769 116.389 49.8707 116.389L49.8769 116.382C49.8707 116.382 49.8707 116.376 49.8707 116.376C48.5964 115.094 47.1542 114.354 45.6624 114.2C44.1954 114.046 42.6725 114.465 41.193 115.482C40.5093 115.957 39.9436 116.777 39.5147 117.788C39.0547 118.886 38.7626 120.205 38.6631 121.555C38.4455 124.49 39.2909 126.987 40.9009 128.856C42.573 130.798 45.0594 132.062 48.0369 132.444C49.6407 132.647 51.4806 132.543 53.6065 131.957C55.7386 131.365 58.1505 130.292 60.8793 128.547C72.1677 121.315 74.4987 96.6399 74.9214 83.3651C74.9525 82.3971 75.1514 77.7975 75.3876 74.727C75.3939 74.7948 75.8601 87.5763 73.7963 100.937H73.815C73.815 100.937 73.9206 101.56 75.5306 101.739C76.7427 101.868 77.7373 101.585 78.2097 101.406C78.0668 101.252 77.93 101.11 77.8119 100.968C75.916 99.5131 78.1724 92.6445 78.5081 91.7813C79.4094 89.4877 80.9324 87.5455 82.8656 86.3863C84.0155 85.6958 87.1298 84.8079 89.1189 86.1397C88.9822 86.1027 88.8454 86.0719 88.7025 86.041C89.1003 86.4171 89.5105 86.8857 89.927 87.4345C89.5665 85.3135 88.6652 83.322 87.2293 81.5709C85.8368 79.8692 82.244 77.1254 80.8267 76.441C83.6985 77.668 85.955 79.3328 87.5649 81.3058C89.2246 83.3281 90.2005 85.6711 90.4616 88.1682C90.5859 88.3532 90.7103 88.5381 90.8346 88.7293C93.1407 84.2037 94.2223 80.0603 94.1415 76.4226C94.1788 74.8133 93.1469 69.4122 90.7103 66.8041ZM81.6597 59.8492C82.0699 60.0896 82.4367 60.4164 82.7164 60.8233C83.1577 61.4769 83.3877 62.2969 83.3504 63.191C83.3193 64.0233 83.0583 64.9297 82.5299 65.8299C82.9339 65.8977 83.2945 66.0272 83.4747 66.2183C82.5237 65.947 81.6907 65.9964 80.951 66.2862C80.1989 66.5821 79.5338 67.1185 78.9184 67.8214C79.1546 66.7732 80.2051 66.1197 80.7894 65.8915C81.0878 65.7744 81.6659 65.7312 82.2191 65.7867C82.7288 64.9297 83.0334 63.9679 83.0645 63.1786C83.1018 62.3463 82.8904 61.5879 82.474 60.9837C82.2253 60.6137 81.8896 60.3116 81.5167 60.0896C80.9262 59.7444 80.2362 59.5717 79.5462 59.584C77.2152 59.6272 76.5438 61.107 75.9222 63.006C75.9222 62.7162 75.9657 62.3339 76.0776 61.9208C76.5252 60.3054 77.8306 59.3313 79.54 59.3004C80.2797 59.2881 81.0318 59.4731 81.6597 59.8492ZM54.166 63.7767C55.3719 63.8939 56.4846 64.048 57.3859 64.2268C58.3059 64.4118 59.0207 64.6276 59.4123 64.868C59.7667 65.0777 59.9096 65.3181 59.8102 65.5956C59.7231 64.6769 56.7083 64.3193 54.1162 64.0665C52.8544 63.9432 51.5241 63.9987 50.1815 63.9617C48.8139 63.9185 43.7541 63.7212 42.0446 64.8927C42.4735 63.4684 49.1496 63.2958 54.166 63.7767ZM78.1911 63.2526C78.1911 63.9679 78.7754 64.5536 79.5027 64.5536C79.801 64.5536 80.0808 64.4488 80.3046 64.2823C80.3108 64.3686 80.317 64.4611 80.317 64.5536C80.317 65.7189 79.3659 66.6623 78.1911 66.6623C77.0163 66.6623 76.0652 65.7189 76.0652 64.5536C76.0652 63.3883 77.0163 62.4388 78.1911 62.4388C78.2843 62.4388 78.3776 62.4449 78.4646 62.4573C78.2968 62.6792 78.1911 62.9567 78.1911 63.2526ZM38.7377 76.3116C42.6911 75.1832 46.6756 74.7085 50.685 74.7886C54.6943 74.875 58.7286 75.5224 62.7752 76.6383C54.1535 75.1709 52.2017 75.2511 50.6788 75.2202C49.1807 75.1832 42.9957 75.2696 38.7377 76.3116ZM90.53 66.6253C90.5921 66.6808 90.6543 66.7424 90.7103 66.8041C90.6543 66.7424 90.5921 66.6808 90.53 66.6253ZM53.7557 95.7643C57.7526 95.53 61.8242 95.8568 65.9516 96.646C57.2429 95.8691 55.3035 96.1034 53.7806 96.1898C52.2825 96.2822 46.1224 96.8557 41.97 98.2368C45.8178 96.794 49.7526 95.9986 53.7557 95.7643ZM46.9429 109.249C47.3718 107.8 54.0541 107.27 59.0705 107.485C60.2764 107.535 61.3828 107.627 62.2842 107.763C63.2041 107.892 63.919 108.071 64.3168 108.287C64.6649 108.478 64.8079 108.712 64.7084 108.996C64.6276 108.077 61.6066 107.886 59.0145 107.775C57.7526 107.72 56.4224 107.843 55.0797 107.88C53.7184 107.911 48.6523 107.991 46.9429 109.249ZM39.4401 88.2668C44.0586 86.8241 48.7704 86.0349 53.5692 85.7944C58.3618 85.5601 63.2414 85.8869 68.1894 86.6761C57.7464 85.8992 55.4216 86.1335 53.6003 86.2198C51.8039 86.3123 44.4254 86.8857 39.4401 88.2668ZM40.4036 57.2534C40.9506 57.7405 40.7268 58.8997 39.3406 59.2079C37.9607 59.5101 36.4253 58.986 36.4253 58.986C36.4253 58.9983 36.7423 58.2769 37.5131 57.574C38.2839 56.865 39.8566 56.7663 40.4036 57.2534ZM54.6757 53.7081C56.8016 53.9116 58.9151 54.67 61.0099 55.9031C56.5032 54.1891 55.4589 54.2137 54.6446 54.1336C53.849 54.0596 50.5544 53.9671 48.2296 54.892C50.399 53.8746 52.5436 53.5108 54.6757 53.7081ZM80.0497 55.49C80.0497 55.49 78.0543 56.1744 76.2579 55.7798C74.4614 55.379 74.1693 53.8684 74.8779 53.2395C75.5866 52.6106 77.6316 52.7401 78.6324 53.6526C79.6394 54.5713 80.0497 55.5085 80.0497 55.49ZM48.1737 122.314C48.2856 123.208 48.2296 123.954 48.0494 124.577C47.8256 125.341 47.4153 125.908 46.9056 126.303C46.3959 126.698 45.7929 126.913 45.1838 126.987C44.6305 127.055 44.0711 127.006 43.5738 126.864C44.1705 126.876 44.8232 126.944 45.6562 126.568C45.1651 126.562 44.5186 126.476 43.9468 126.143C43.6111 125.939 43.3997 125.686 43.2879 125.397C43.1138 124.947 43.2008 124.416 43.4557 123.88C43.6981 123.356 44.1022 122.819 44.5684 122.338C45.42 121.463 46.4953 120.754 47.2972 120.575C46.2032 117.856 43.7727 117.443 43.6857 117.258C43.6919 117.258 47.6578 118.22 48.1737 122.314Z" fill="#A39469"/>
<path fill-rule="evenodd" clip-rule="evenodd" d="M90.7103 66.8041C93.178 69.3875 94.4834 72.6368 94.5704 76.4164C94.6575 80.1836 93.5199 84.4749 91.1019 89.1485C92.0654 90.7146 92.9791 92.5828 93.6567 94.5065C94.9807 98.2429 95.4407 102.177 93.7313 104.47C93.6629 104.563 93.5945 104.649 93.5199 104.729C93.1097 105.204 92.631 105.562 92.0902 105.827C90.2068 106.733 87.652 106.431 85.1842 105.568C82.7475 104.711 80.3854 103.305 78.8687 102.01C78.7568 101.918 78.6511 101.819 78.5516 101.727C78.3465 101.813 77.9673 101.955 77.47 102.06C78.0979 102.54 85.8555 108.49 88.4973 112.714C89.7903 114.773 90.4616 116.086 90.8781 116.888C91.2884 117.696 91.4127 117.936 91.6054 117.936C91.941 117.936 93.4702 117.363 95.6334 116.247C97.1315 115.476 98.9155 114.446 100.793 113.164C104.79 110.445 104.989 110.383 104.995 110.383L104.852 110.371L104.808 110.235L102.079 101.628L101.75 100.604L102.446 101.431C102.459 101.443 106.431 106.16 106.99 106.16C107.195 106.16 107.655 105.648 108.159 104.976C113.02 98.5019 116.7 83.9509 117.259 76.9898C117.62 72.5197 117.34 68.7093 116.805 65.6511C115.867 60.2623 114.195 57.2472 113.859 57.0438C113.393 56.7663 107.27 58.8257 107.251 58.8318L104.485 59.7567L107.083 58.4372C107.102 58.4311 112.392 55.7551 112.703 54.3309C112.902 53.4245 111.596 48.8249 109.079 44.324C107.052 40.6862 95.8323 29.9332 92.0219 31.8261C91.164 32.4735 85.5571 43.8862 83.3442 46.1367C83.3504 46.1305 83.6923 45.5139 84.2393 44.5336C83.9223 44.2315 82.7226 43.1586 80.6465 41.981C78.2098 40.5999 75.7793 40.0881 75.7731 40.082L75.6798 40.0635L75.6301 39.9771C75.1079 39.0215 74.5112 38.2569 73.8585 37.6773C73.9953 38.7933 74.2377 39.5086 74.2377 39.5086C74.2377 39.5086 73.1437 37.2272 71.341 36.3271C70.6261 36.1544 69.8802 36.1359 69.1281 36.2469C68.494 37.1903 71.5959 40.2423 71.5959 40.2423C71.5959 40.2423 65.9517 38.3371 58.1194 44.102C55.0922 46.3278 52.7674 49.5833 51.1326 53.9116C52.3198 53.6588 53.5009 53.6033 54.6757 53.7081C56.8016 53.9116 58.9151 54.67 61.0099 55.9031C56.5032 54.1891 55.4589 54.2137 54.6446 54.1336C54.1411 54.0904 52.6368 54.0349 51.0145 54.2322C50.0261 56.9266 49.2988 60.028 48.8326 63.5363C50.598 63.5301 52.4752 63.6164 54.166 63.7767C55.3719 63.8939 56.4846 64.048 57.3859 64.2268C58.3059 64.4118 59.0208 64.6276 59.4124 64.868C59.7667 65.0777 59.9096 65.3181 59.8102 65.5956C59.7232 64.6769 56.7084 64.3193 54.1163 64.0665C52.8544 63.9432 51.5242 63.9987 50.1815 63.9617C49.8769 63.9494 49.3796 63.9309 48.7829 63.9247C48.3664 67.1987 48.1737 70.8303 48.1924 74.8133C49.0253 74.7825 49.8583 74.7763 50.685 74.7886C54.6944 74.875 58.7286 75.5224 62.7753 76.6383C54.1536 75.1709 52.2017 75.2511 50.6788 75.2202C50.225 75.2079 49.3361 75.2079 48.1986 75.2449C48.2234 77.6187 48.3167 80.122 48.4969 82.7486C48.5715 83.9262 48.6523 85.0854 48.7269 86.2322C50.3307 86.0225 51.9406 85.8746 53.5693 85.7944C58.3618 85.5601 63.2415 85.8869 68.1894 86.6761C57.7465 85.8992 55.4216 86.1335 53.6003 86.2198C52.8171 86.263 50.9834 86.3925 48.7518 86.6391C48.9756 90.0241 49.1869 93.2487 49.3796 96.2576C50.828 96.011 52.2887 95.8506 53.7557 95.7643C57.7527 95.53 61.8242 95.8568 65.9517 96.646C57.243 95.8691 55.3035 96.1034 53.7806 96.1898C53.0906 96.2329 51.4185 96.3747 49.4045 96.6522C49.678 100.913 49.9204 104.723 50.1193 107.911C52.6058 107.485 56.1241 107.356 59.0705 107.485C60.2764 107.535 61.3829 107.627 62.2842 107.763C63.2042 107.892 63.919 108.071 64.3168 108.287C64.6649 108.478 64.8079 108.712 64.7085 108.996C64.6276 108.077 61.6066 107.886 59.0145 107.775C57.7527 107.72 56.4224 107.843 55.0798 107.88C54.2592 107.898 52.1023 107.935 50.138 108.238C50.281 110.519 50.3991 112.473 50.4985 114.039C52.525 113.559 54.5576 113.318 56.5778 113.343C59.2445 113.38 61.8988 113.885 64.5095 114.903C60.0526 113.941 59.3751 113.811 56.5592 113.768C54.5576 113.743 52.5436 113.99 50.5234 114.49L50.6166 115.994C51.6547 116.025 52.6555 116.197 53.6003 116.512C55.2662 117.061 56.783 118.047 58.1194 119.527C55.6081 117.751 55.2227 117.492 53.4698 116.913C52.755 116.678 52.009 116.524 51.2382 116.456C52.6431 117.073 53.849 117.887 54.8249 118.904C56.037 120.168 56.9073 121.747 57.3859 123.67C56.0122 120.933 55.7884 120.526 54.5141 119.2C53.4947 118.133 52.2142 117.307 50.7099 116.697C52.8855 119.589 53.2336 124.848 53.2336 124.866C52.3882 122.043 52.382 119.607 50.6974 117.338C50.7347 118.004 50.7596 118.362 50.7596 118.362C50.7596 118.362 46.9429 114.2 45.2273 115.982C44.73 116.493 44.73 117.128 44.9724 117.776C46.1846 118.423 47.8505 119.755 48.1737 122.314C48.2856 123.208 48.2297 123.954 48.0494 124.577C47.8256 125.341 47.4153 125.908 46.9056 126.303C46.3959 126.698 45.793 126.913 45.1838 126.987C44.6306 127.055 44.0711 127.006 43.5738 126.864C44.1706 126.876 44.8232 126.944 45.6562 126.568C45.1651 126.562 44.5187 126.476 43.9468 126.143C43.6111 125.939 43.3998 125.686 43.2879 125.397C43.1138 124.947 43.2009 124.416 43.4557 123.88C43.6981 123.356 44.1022 122.819 44.5684 122.338C44.8481 122.049 45.1527 121.777 45.4697 121.537C43.6422 121.987 41.019 122.813 38.7688 124.201C39.0547 126.007 39.8007 127.579 40.9009 128.856C42.573 130.798 45.0595 132.062 48.037 132.444C49.6407 132.647 51.4807 132.543 53.6066 131.957C55.7387 131.365 58.1505 130.292 60.8794 128.547C72.1677 121.315 74.4988 96.6399 74.9215 83.3651C74.9525 82.3971 75.1514 77.7975 75.3877 74.727C75.3939 74.7948 75.8601 87.5763 73.7963 100.937H73.815C73.815 100.937 73.9207 101.56 75.5306 101.739C76.7428 101.868 77.7373 101.585 78.2098 101.406C78.0668 101.252 77.93 101.11 77.8119 100.968C75.916 99.5131 78.1725 92.6445 78.5081 91.7813C79.4095 89.4877 80.9324 87.5455 82.8656 86.3863C84.0156 85.6958 87.1298 84.8079 89.119 86.1397C88.9822 86.1027 88.8454 86.0719 88.7025 86.041C89.1003 86.4171 89.5106 86.8857 89.927 87.4345C89.5665 85.3135 88.6652 83.322 87.2293 81.5709C85.8369 79.8692 82.244 77.1254 80.8267 76.441C83.6985 77.668 85.955 79.3328 87.5649 81.3058C89.2246 83.3281 90.2005 85.6711 90.4616 88.1682C90.5859 88.3532 90.7103 88.5381 90.8346 88.7293C93.1407 84.2037 94.2223 80.0603 94.1415 76.4226C94.1788 74.8133 93.147 69.4122 90.7103 66.8041ZM47.1854 120.6C46.5327 120.014 45.4759 118.96 45.0284 117.911C45.7992 118.374 46.7254 119.163 47.2972 120.575C47.2599 120.581 47.2227 120.594 47.1854 120.6ZM81.6597 59.8492C82.0699 60.0896 82.4367 60.4164 82.7164 60.8233C83.1577 61.4769 83.3877 62.2969 83.3504 63.191C83.3194 64.0233 83.0583 64.9297 82.5299 65.8299C82.934 65.8977 83.2945 66.0272 83.4748 66.2183C82.5237 65.947 81.6908 65.9964 80.951 66.2862C80.1989 66.5821 79.5338 67.1185 78.9184 67.8214C79.1546 66.7732 80.2051 66.1197 80.7894 65.8915C81.0878 65.7744 81.6659 65.7312 82.2191 65.7867C82.7288 64.9297 83.0334 63.9679 83.0645 63.1786C83.1018 62.3463 82.8905 61.5879 82.474 60.9837C82.2253 60.6137 81.8897 60.3116 81.5167 60.0896C80.9262 59.7444 80.2362 59.5717 79.5462 59.584C77.2152 59.6272 76.5438 61.107 75.9222 63.006C75.9222 62.7162 75.9658 62.3339 76.0776 61.9208C76.5252 60.3054 77.8306 59.3313 79.54 59.3004C80.2797 59.2881 81.0318 59.4731 81.6597 59.8492ZM78.1911 63.2526C78.1911 63.9679 78.7754 64.5536 79.5027 64.5536C79.8011 64.5536 80.0808 64.4488 80.3046 64.2823C80.3108 64.3686 80.317 64.4611 80.317 64.5536C80.317 65.7189 79.3659 66.6623 78.1911 66.6623C77.0163 66.6623 76.0652 65.7189 76.0652 64.5536C76.0652 63.3883 77.0163 62.4388 78.1911 62.4388C78.2843 62.4388 78.3776 62.4449 78.4646 62.4573C78.2968 62.6792 78.1911 62.9567 78.1911 63.2526ZM90.53 66.6253C90.5922 66.6808 90.6543 66.7424 90.7103 66.8041C90.6543 66.7424 90.5922 66.6808 90.53 66.6253ZM80.0497 55.49C80.0497 55.49 78.0544 56.1744 76.2579 55.7798C74.4615 55.379 74.1693 53.8684 74.8779 53.2395C75.5866 52.6106 77.6317 52.7401 78.6324 53.6526C79.6394 54.5713 80.0497 55.5085 80.0497 55.49Z" fill="#8C7E57"/>
<path fill-rule="evenodd" clip-rule="evenodd" d="M89.7654 114.835C90.2814 115.735 90.6295 116.407 90.8781 116.888C91.2884 117.696 91.4127 117.936 91.6054 117.936C91.9411 117.936 93.4702 117.363 95.6334 116.247C97.1315 115.476 98.9155 114.446 100.793 113.164C104.79 110.445 104.989 110.383 104.995 110.383L104.852 110.371L104.808 110.235L102.079 101.628L101.75 100.604L102.446 101.431C102.459 101.443 106.431 106.16 106.99 106.16C107.195 106.16 107.655 105.648 108.159 104.976C113.02 98.5019 116.7 83.9509 117.259 76.9898C117.62 72.5197 117.34 68.7093 116.805 65.6511C115.867 60.2623 114.195 57.2472 113.859 57.0438C113.393 56.7663 107.27 58.8257 107.251 58.8318L104.485 59.7567L107.083 58.4372C107.102 58.4311 112.392 55.7552 112.703 54.3309C112.902 53.4245 111.596 48.8249 109.079 44.324C107.052 40.6862 95.8323 29.9332 92.0219 31.8261C91.4749 32.2392 88.9884 37.0423 86.6885 41.0438C89.1811 38.6639 93.2154 35.0754 94.5767 35.4269C96.5969 35.9509 108.047 47.7644 107.606 52.8511C107.17 57.9378 97.3117 62.5682 97.3117 62.5682L111.994 61.2734C111.994 61.2734 112.877 61.2734 112.877 74.727C112.877 88.1867 106.282 100.395 106.282 100.395L99.1268 95.1663C99.1268 95.1663 100.376 107.88 99.1268 109.711C98.2815 110.95 93.2775 113.392 89.7654 114.835Z" fill="#A39469"/>
<path fill-rule="evenodd" clip-rule="evenodd" d="M79.2853 67.0318C78.8813 67.0626 77.9116 67.0749 77.1097 66.6248C76.7864 66.4399 76.5067 66.0329 76.2954 65.5027C76.6435 66.1932 77.3645 66.6618 78.1913 66.6618C79.3661 66.6618 80.3172 65.7185 80.3172 64.5532C80.3172 64.4607 80.311 64.3682 80.3047 64.2819C80.081 64.4484 79.8012 64.5532 79.5029 64.5532C78.7756 64.5532 78.1913 63.9674 78.1913 63.2522C78.1913 62.9563 78.2969 62.6788 78.4648 62.4568C78.3778 62.4445 78.2845 62.4383 78.1913 62.4383C77.0164 62.4383 76.0654 63.3879 76.0654 64.5532C76.0654 64.6642 76.0716 64.7751 76.0902 64.88C75.9348 64.2757 75.8665 63.5975 75.9224 62.9686V63.0056C76.544 61.1066 77.2154 59.6268 79.5464 59.5836C80.2364 59.5713 80.9264 59.7439 81.5169 60.0892C81.8898 60.3112 82.2255 60.6133 82.4742 60.9832C82.8906 61.5875 83.102 62.3459 83.0647 63.1782C83.0336 63.9674 82.729 64.9293 82.2193 65.7863C81.6661 65.7308 81.088 65.774 80.7896 65.8911C80.3669 66.0576 79.708 66.4399 79.2853 67.0318Z" fill="#FEFEFE"/>
<path fill-rule="evenodd" clip-rule="evenodd" d="M37.4387 67.4396C37.5195 67.1622 37.6003 66.8786 37.6873 66.6011C37.5506 66.6689 37.4076 66.7059 37.2584 66.7059C36.5746 66.7059 36.0214 65.9414 36.0214 64.998C36.0214 64.8254 36.0401 64.6589 36.0711 64.5048C36.1582 64.7946 36.3509 64.998 36.5684 64.998C36.873 64.998 37.1216 64.6158 37.1216 64.141C37.1216 63.8204 37.0035 63.5368 36.8357 63.3888C36.9662 63.321 37.1092 63.284 37.2584 63.284C37.7806 63.284 38.2281 63.7402 38.4084 64.3753C38.4892 64.1533 38.5638 63.9314 38.6446 63.7156C38.5949 63.2593 38.5327 62.9264 38.1162 62.1495C37.9857 61.9152 37.8178 61.7487 37.6251 61.6562C37.4262 61.5576 37.2025 61.5329 36.9787 61.5761C36.7487 61.6254 36.5187 61.7487 36.3136 61.9522C36.0214 62.242 35.779 62.6797 35.6609 63.2778C35.2941 65.0535 35.9282 66.3421 36.0338 66.5394C36.0898 66.5579 36.1457 66.5703 36.1892 66.5888C36.4627 66.6874 36.96 67.119 37.1652 67.4951C37.2335 67.5013 37.3392 67.4828 37.4387 67.4396Z" fill="#FEFEFE"/>
<path fill-rule="evenodd" clip-rule="evenodd" d="M41.7213 47.8935C43.9342 45.3964 46.5574 43.3247 49.5349 41.7586L49.4665 41.7833C49.0314 40.5008 48.7393 39.2492 48.472 38.1147C48.099 36.5363 47.782 35.1983 47.2598 34.4461C46.719 33.6692 45.9047 33.5521 44.4191 34.5386V37.5475L44.0337 37.011L42.8588 35.3956C41.7648 35.9567 35.0515 39.8781 28.5184 54.9964C21.8237 70.4784 24.6831 82.7728 25.0747 84.2772C25.889 84.2834 29.4756 84.3081 29.83 84.2772H29.8921C30.2278 84.2526 30.2278 84.2588 30.5075 84.2403C29.5813 85.4117 26.3179 88.3774 25.9014 88.7659C25.8952 89.0618 25.9263 90.2148 26.6038 92.8106C27.2192 95.1412 28.3381 98.7666 28.8478 100.394C29.3824 97.1759 30.3459 93.5689 30.4081 93.3285C29.4259 91.0657 29.8424 88.3096 30.8556 85.609C31.7196 83.3031 33.0934 80.9231 34.3615 78.9871C33.6342 74.5539 33.5161 70.3304 33.945 66.4029C34.7469 59.0226 37.4757 52.6719 41.7213 47.8935Z" fill="#BFAD7C"/>
<path fill-rule="evenodd" clip-rule="evenodd" d="M40.3042 103.219C39.7199 103.638 37.6188 105.099 35.58 106.098C35.1635 106.308 34.7035 106.48 34.2249 106.616C34.8278 107.492 35.437 108.287 36.0524 109.015C36.6802 109.754 37.308 110.433 37.9421 111.055C38.4704 110.365 39.6577 108.83 40.298 108.046C40.9133 107.288 41.4541 106.536 41.6779 106.215C41.1931 105.223 40.7331 104.224 40.3042 103.219Z" fill="#BFAD7C"/>
<path d="M78.1911 62.4385C78.2843 62.4385 78.3776 62.4446 78.4646 62.457C78.2968 62.6789 78.1911 62.9564 78.1911 63.2523C78.1911 63.9676 78.7754 64.5533 79.5027 64.5533C79.8011 64.5533 80.0808 64.4485 80.3046 64.282C80.3108 64.3683 80.317 64.4608 80.317 64.5533C80.317 65.7186 79.3659 66.662 78.1911 66.662C77.0163 66.662 76.0652 65.7186 76.0652 64.5533C76.0652 63.388 77.0163 62.4385 78.1911 62.4385Z" fill="#4A422C"/>
<path d="M80.7895 65.8917C81.3676 65.6636 83.0086 65.7253 83.4748 66.2185C82.5238 65.9472 81.6908 65.9966 80.9511 66.2864C80.199 66.5823 79.5338 67.1187 78.9185 67.8216C79.1547 66.7734 80.2052 66.1199 80.7895 65.8917Z" fill="#4A422C"/>
<path d="M75.9224 63.006C75.9224 62.7162 75.9659 62.3339 76.0778 61.9208C76.5253 60.3054 77.8307 59.3312 79.5401 59.3004C80.2798 59.2881 81.032 59.473 81.6598 59.8491C82.0701 60.0896 82.4368 60.4164 82.7165 60.8233C83.1579 61.4769 83.3879 62.2969 83.3506 63.1909C83.3195 64.0295 83.0584 64.9358 82.5238 65.836L82.2192 65.799C82.7227 64.9358 83.0336 63.974 83.0646 63.1786C83.1019 62.3462 82.8906 61.5879 82.4741 60.9836C82.2255 60.6137 81.8898 60.3116 81.5168 60.0896C80.9263 59.7443 80.2363 59.5717 79.5463 59.584C77.2153 59.6272 76.544 61.1069 75.9224 63.006Z" fill="#4A422C"/>
<path d="M80.0498 55.4905C80.0498 55.4905 78.0544 56.1749 76.258 55.7803C74.4615 55.3795 74.1694 53.8689 74.878 53.24C75.5866 52.6111 77.6317 52.7406 78.6325 53.6531C79.6395 54.5718 80.0498 55.509 80.0498 55.4905Z" fill="#4A422C"/>
<path d="M36.4255 58.9858C36.4255 58.9858 37.9609 59.5099 39.3409 59.2077C40.7271 58.8995 40.9508 57.7403 40.4038 57.2532C39.8568 56.7661 38.2841 56.8648 37.5133 57.5738C36.7426 58.2767 36.4255 58.9981 36.4255 58.9858Z" fill="#4A422C"/>
<path d="M36.1893 66.5887C36.5312 66.712 37.246 67.3779 37.2585 67.7786C36.9415 67.2854 36.5499 66.9833 36.1023 66.8291C35.6485 66.6688 35.1388 66.6503 34.5918 66.7243C35.1077 66.3482 35.835 66.4592 36.1893 66.5887Z" fill="#4A422C"/>
<path d="M35.7975 66.7054C35.7975 66.6992 34.9583 65.2564 35.3748 63.2217C35.5115 62.562 35.785 62.0749 36.1145 61.7481C36.3569 61.5077 36.6366 61.3597 36.9163 61.298C37.2085 61.2425 37.4944 61.2734 37.7493 61.3967C37.9979 61.52 38.2093 61.7235 38.3647 62.0133C39.0174 63.2279 38.7501 64.5042 38.7439 64.5104C38.5698 63.4745 38.7314 63.2957 38.116 62.1489C37.9855 61.9146 37.8177 61.7481 37.625 61.6556C37.4261 61.557 37.2023 61.5323 36.9785 61.5755C36.7485 61.6248 36.5185 61.7481 36.3134 61.9516C36.0212 62.2414 35.7788 62.6792 35.6607 63.2772C35.2629 65.2133 36.0461 66.5635 36.0461 66.5697L35.7975 66.7054Z" fill="#4A422C"/>
<path d="M37.2585 63.2842C37.9423 63.2842 38.4955 64.0549 38.4955 64.9982C38.4955 65.9416 37.9423 66.7061 37.2585 66.7061C36.5747 66.7061 36.0215 65.9416 36.0215 64.9982C36.0215 64.8256 36.0401 64.6591 36.0712 64.505C36.1582 64.7948 36.3509 64.9982 36.5685 64.9982C36.8731 64.9982 37.1217 64.616 37.1217 64.1412C37.1217 63.8206 37.0036 63.537 36.8358 63.389C36.9663 63.3212 37.1093 63.2842 37.2585 63.2842Z" fill="#4A422C"/>
<path d="M46.1534 114.2C40.677 105.524 37.0406 96.6458 35.8844 87.5082C34.7282 78.3583 36.046 68.9495 40.4843 59.2139C40.0368 61.0327 38.7935 64.5225 38.4703 65.4967C36.0087 73.0004 35.3996 80.3067 36.3133 87.4527C37.4509 96.4485 41.0127 105.191 46.3709 113.749C46.4207 113.823 46.6071 114.126 46.6569 114.2H46.1534Z" fill="#4A422C"/>
<path d="M34.3802 79.0798C33.6343 74.6096 33.5162 70.3553 33.9451 66.4031C34.7469 59.0228 37.4758 52.6721 41.7214 47.8937C45.967 43.103 51.723 39.8906 58.5794 38.7685C61.5817 38.2814 64.7954 38.1951 68.1894 38.5588C65.8833 38.6205 61.992 38.8055 60.8793 38.9041C60.121 38.9781 59.3812 39.0706 58.6477 39.1939C51.8971 40.2914 46.2218 43.4606 42.0446 48.1712C37.8612 52.8879 35.1634 59.1584 34.374 66.4463C33.9451 70.3676 34.0694 74.5788 34.8029 79.0119L34.3802 79.0798Z" fill="#4A422C"/>
<path d="M63.8506 38.4663C67.9843 34.995 73.0628 34.6374 75.9595 39.6871C76.4381 39.798 78.6511 40.3591 80.864 41.6108C83.3504 43.0227 84.6247 44.3113 84.6309 44.3113L84.3263 44.6134C84.3201 44.6073 83.0893 43.368 80.6464 41.9807C78.2097 40.5996 75.7792 40.0878 75.773 40.0817L75.6798 40.0632L75.63 39.9768C72.9323 35.0443 68.3013 35.2848 64.3914 38.5711L63.8506 38.4663Z" fill="#4A422C"/>
<path d="M39.1792 100.377C39.1605 100.37 33.7214 97.972 31.1542 94.6055C29.2894 92.1578 29.6437 88.8406 30.8558 85.6098C32.0493 82.4098 34.2312 79.068 35.7541 76.9717L35.9468 77.4403C34.4425 79.5243 32.4347 82.6071 31.2599 85.7578C30.0913 88.8653 29.7369 92.0406 31.4961 94.3466C33.995 97.6267 39.3408 99.982 39.3532 99.9882L39.1792 100.377Z" fill="#4A422C"/>
<path d="M30.8246 93.4274C30.8184 93.4521 28.45 102.263 29.0033 104.692C29.0468 104.871 29.1027 105.031 29.1773 105.185C29.5068 105.839 30.1533 106.227 30.9427 106.4C31.7632 106.579 32.7329 106.53 33.6653 106.32C34.2745 106.184 34.865 105.975 35.3934 105.716C37.7555 104.556 40.1984 102.768 40.2046 102.762L40.4595 103.108C40.4533 103.114 37.9793 104.926 35.5799 106.098C35.0267 106.369 34.405 106.591 33.7586 106.733C32.7702 106.955 31.7321 107.01 30.8557 106.813C29.9419 106.616 29.1835 106.16 28.7919 105.37C28.7049 105.192 28.6365 105 28.5868 104.791C28.0025 102.251 30.4019 93.3411 30.4081 93.3164L30.8246 93.4274Z" fill="#4A422C"/>
<path d="M37.8177 111.536C37.1153 110.851 36.4129 110.112 35.7229 109.285C35.0267 108.465 34.3429 107.559 33.6592 106.548L34.0197 106.313C34.691 107.306 35.3686 108.2 36.0524 109.014C36.7361 109.828 37.4261 110.555 38.1223 111.228L37.8177 111.536Z" fill="#4A422C"/>
<path d="M28.7048 101.363C28.6986 101.35 27.0079 96.0169 26.1935 92.9156C25.3668 89.7834 25.4725 88.6551 25.4725 88.6551L25.4787 88.5688L25.5409 88.5133C25.5533 88.5071 28.5743 85.3256 29.7118 84.2898C30.234 84.2528 30.1843 84.2651 30.5075 84.2405C29.5813 85.4119 26.3179 88.3776 25.9014 88.7661C25.8952 89.062 25.9263 90.215 26.6038 92.8108C27.4181 95.8875 29.1089 101.221 29.1151 101.239L28.7048 101.363ZM29.8672 84.7029L29.861 84.6289C29.8486 84.6536 29.8299 84.6782 29.8113 84.7029C29.1586 84.7337 24.9193 84.7029 24.9068 84.7029H24.7452L24.7017 84.5487C24.6893 84.5056 20.9223 71.4775 28.1205 54.8301C35.325 38.1766 42.8153 34.9457 42.8402 34.9334L42.9956 34.8594L43.1013 35.0012L43.9902 36.2282V34.3168L44.0834 34.249C45.8861 33.0159 46.9055 33.1885 47.6141 34.2059C48.1798 35.0197 48.5092 36.3947 48.8884 38.0163C49.1557 39.1507 49.4541 40.4024 49.8706 41.6479L49.4665 41.7835C49.0314 40.501 48.7392 39.2494 48.4719 38.1149C48.099 36.5365 47.782 35.1985 47.2598 34.4463C46.719 33.6694 45.9047 33.5523 44.4191 34.5388V37.5477L44.0337 37.0112L42.8588 35.3958C41.7648 35.9569 35.0514 39.8783 28.5184 54.9966C21.8236 70.4786 24.683 82.773 25.0747 84.2775C25.889 84.2836 29.4756 84.3083 29.8299 84.2775C30.0102 84.259 29.9978 84.3946 29.861 84.6289L29.8672 84.7029H29.8113H29.8672Z" fill="#4A422C"/>
<path d="M49.8707 116.377C48.5964 115.094 47.1543 114.354 45.6624 114.2C44.1954 114.046 42.6725 114.465 41.1931 115.483C40.5093 115.958 39.9436 116.778 39.5147 117.789C39.0547 118.886 38.7626 120.206 38.6631 121.556C38.4456 124.491 39.2909 126.988 40.9009 128.856C42.573 130.798 45.0595 132.062 48.037 132.445C49.6407 132.648 51.4807 132.543 53.6066 131.958C55.7387 131.366 58.1505 130.293 60.8794 128.548C72.1677 121.316 74.4988 96.6404 74.9214 83.3657C74.9525 82.3977 75.1514 77.7981 75.3877 74.7275C75.3939 74.857 76.9914 118.751 61.1093 128.905C58.3432 130.675 55.8941 131.766 53.7184 132.364C51.5366 132.969 49.6407 133.073 47.9872 132.864C44.8978 132.475 42.312 131.156 40.5777 129.134C38.8931 127.179 38.0104 124.577 38.2342 121.525C38.3337 120.132 38.6383 118.763 39.1169 117.622C39.5707 116.543 40.1923 115.662 40.9506 115.137C42.5109 114.052 44.1395 113.615 45.7059 113.775C47.2972 113.935 48.8326 114.718 50.1753 116.081C52.8295 118.757 53.2336 124.848 53.2336 124.867C52.2701 121.642 52.4006 118.929 49.8707 116.377Z" fill="#4A422C"/>
<path d="M43.6859 117.258C43.6921 117.258 47.6579 118.22 48.1739 122.314C48.2857 123.208 48.2298 123.954 48.0495 124.576C47.8258 125.341 47.4155 125.908 46.9058 126.303C46.3961 126.697 45.7931 126.913 45.1839 126.987C44.6307 127.055 44.0713 127.006 43.574 126.864C44.3945 126.876 45.302 127 46.6385 125.964C47.0798 125.625 47.4404 125.131 47.6331 124.459C47.8009 123.892 47.8506 123.202 47.7449 122.363C47.1979 118.016 43.7915 117.474 43.6859 117.258Z" fill="#4A422C"/>
<path d="M50.0074 115.981C51.9468 116.635 53.5692 117.597 54.8248 118.904C56.0369 120.168 56.9072 121.746 57.3858 123.67C56.0121 120.932 55.7883 120.526 54.514 119.2C53.3081 117.942 51.7479 117.017 49.8706 116.388L50.0074 115.981Z" fill="#4A422C"/>
<path d="M49.8025 115.988C51.1389 115.951 52.4132 116.118 53.6005 116.513C55.2664 117.061 56.7831 118.048 58.1196 119.528C55.6083 117.752 55.2229 117.493 53.47 116.913C52.4381 116.574 51.3441 116.408 50.1941 116.414L49.8025 115.988Z" fill="#4A422C"/>
<path d="M48.2297 114.681C51.0207 113.768 53.8055 113.306 56.5779 113.343C59.2508 113.38 61.8989 113.885 64.5096 114.903C60.0527 113.941 59.3751 113.811 56.5593 113.768C53.8988 113.737 51.2197 114.181 48.5219 115.057L48.2297 114.681Z" fill="#4A422C"/>
<path d="M46.9429 109.249C47.3718 107.8 54.0541 107.27 59.0704 107.486C60.2763 107.535 61.3828 107.628 62.2841 107.763C63.2041 107.893 63.919 108.072 64.3168 108.287C64.6649 108.478 64.8079 108.713 64.7084 108.996C64.6276 108.078 61.6066 107.887 59.0145 107.776C57.7526 107.72 56.4224 107.843 55.0797 107.88C53.7184 107.911 48.6523 107.991 46.9429 109.249Z" fill="#4A422C"/>
<path d="M41.97 98.2372C45.8177 96.7944 49.7525 95.999 53.7556 95.7647C57.7526 95.5304 61.8241 95.8572 65.9516 96.6464C57.2429 95.8695 55.3034 96.1038 53.7805 96.1902C52.2824 96.2827 46.1223 96.8561 41.97 98.2372Z" fill="#4A422C"/>
<path d="M39.4402 88.2674C44.0587 86.8247 48.7705 86.0355 53.5693 85.795C58.3619 85.5607 63.2415 85.8875 68.1895 86.6767C57.7465 85.8998 55.4217 86.1341 53.6004 86.2204C51.8039 86.3129 44.4255 86.8863 39.4402 88.2674Z" fill="#4A422C"/>
<path d="M38.7378 76.3118C42.6912 75.1835 46.6757 74.7088 50.6851 74.7889C54.6944 74.8752 58.7287 75.5226 62.7753 76.6386C54.1537 75.1712 52.2018 75.2513 50.6789 75.2205C49.1808 75.1835 42.9958 75.2698 38.7378 76.3118Z" fill="#4A422C"/>
<path d="M42.0447 64.8925C42.4736 63.4682 49.1496 63.2956 54.166 63.7765C55.3719 63.8936 56.4846 64.0478 57.3859 64.2266C58.3059 64.4115 59.0208 64.6273 59.4124 64.8678C59.7667 65.0774 59.9097 65.3179 59.8102 65.5953C59.7232 64.6767 56.7084 64.319 54.1163 64.0663C52.8544 63.9429 51.5242 63.9984 50.1815 63.9614C48.814 63.9183 43.7541 63.721 42.0447 64.8925Z" fill="#4A422C"/>
<path d="M48.2297 54.8926C50.3991 53.8752 52.5437 53.5115 54.6758 53.7088C56.8017 53.9122 58.9152 54.6706 61.01 55.9038C56.5033 54.1897 55.459 54.2144 54.6447 54.1342C53.8491 54.0602 50.5546 53.9677 48.2297 54.8926Z" fill="#4A422C"/>
<path d="M73.815 100.938C73.815 100.938 73.9207 101.56 75.5307 101.739C77.2401 101.924 78.5144 101.277 78.5206 101.277L78.7133 101.653C78.7071 101.659 77.3209 102.362 75.4871 102.158C73.5602 101.949 73.3923 101.024 73.3923 101.024L73.815 100.938Z" fill="#4A422C"/>
<path d="M80.8267 76.4414C83.6985 77.6684 85.9549 79.3331 87.5649 81.3061C89.2432 83.3531 90.2191 85.7208 90.474 88.2487L90.0451 88.2919C89.8026 85.8441 88.8516 83.5566 87.2292 81.5713C85.8368 79.8695 82.2439 77.1258 80.8267 76.4414Z" fill="#4A422C"/>
<path d="M77.6813 100.019C77.9175 100.5 78.4334 101.08 79.1483 101.69C80.6339 102.954 82.9401 104.329 85.3271 105.161C87.6954 105.994 90.1321 106.296 91.9037 105.439C92.3885 105.204 92.8299 104.878 93.1966 104.452C93.265 104.378 93.3272 104.298 93.3831 104.218C94.9993 102.06 94.5331 98.2619 93.2526 94.6488C91.9596 91.0111 89.84 87.5644 88.1554 86.1217C88.0559 86.0415 87.9627 85.9614 87.8632 85.8935L88.2984 85.7887C88.404 85.8627 88.3294 85.7086 88.4351 85.8011C90.1694 87.2808 92.345 90.8014 93.6566 94.507C94.9806 98.2434 95.4406 102.177 93.7312 104.471C93.6628 104.563 93.5945 104.65 93.5199 104.73C93.1096 105.204 92.631 105.562 92.0902 105.827C90.2067 106.734 87.6519 106.431 85.1841 105.568C82.7474 104.711 80.3853 103.305 78.8686 102.011C78.1102 101.363 77.557 100.734 77.2959 100.21L77.6813 100.019Z" fill="#4A422C"/>
<path d="M78.5083 91.7811C79.4096 89.4875 80.9325 87.5453 82.8657 86.3862C84.0157 85.6956 87.13 84.8077 89.1191 86.1395C86.9559 85.5908 84.7554 85.7573 83.0833 86.7499C81.2371 87.8598 79.7763 89.728 78.9123 91.9353C76.8361 97.2316 77.8556 100.894 77.8245 100.974C75.91 99.5437 78.1664 92.6505 78.5083 91.7811Z" fill="#4A422C"/>
<path d="M77.4265 102.029C77.4513 102.047 85.7436 108.312 88.4973 112.714C89.7902 114.773 90.4616 116.086 90.8781 116.888C91.2883 117.696 91.4126 117.936 91.6053 117.936C91.941 117.936 93.4702 117.363 95.6334 116.247C97.1314 115.476 98.9154 114.446 100.793 113.164C104.79 110.445 104.989 110.383 104.995 110.383L104.852 110.371L104.808 110.235L102.079 101.628L101.75 100.604L102.446 101.431C102.459 101.443 106.431 106.16 106.99 106.16C107.195 106.16 107.655 105.648 108.159 104.976C113.02 98.5019 116.7 83.9509 117.259 76.9898C117.62 72.5197 117.34 68.7093 116.805 65.6511C115.867 60.2623 114.195 57.2473 113.859 57.0438C113.393 56.7663 107.27 58.8257 107.251 58.8318L104.485 59.7567L107.083 58.4372C107.102 58.4311 112.392 55.7552 112.703 54.3309C112.902 53.4245 111.596 48.8249 109.079 44.324C107.052 40.6862 95.8323 29.9332 92.0218 31.8261C91.164 32.4735 85.5571 43.8862 83.3442 46.1367C83.369 46.0997 91.3567 31.6781 91.8291 31.4438C95.9566 29.3968 107.332 40.3101 109.458 44.1143C112.019 48.7016 113.337 53.4554 113.125 54.4234C112.908 55.4037 110.825 56.7972 109.209 57.7528C111.111 57.1671 113.679 56.4395 114.083 56.68C114.456 56.902 116.271 60.0526 117.228 65.5771C117.769 68.6661 118.055 72.5135 117.688 77.0206C117.122 84.0495 113.418 98.6869 108.507 105.229C107.929 106.006 107.351 106.591 106.99 106.591C106.424 106.591 104.013 103.897 102.807 102.51L105.219 110.112L105.138 110.137C105.057 110.439 104.348 111.265 101.035 113.522C99.1392 114.81 97.3366 115.852 95.8323 116.629C93.6069 117.776 91.9907 118.362 91.6053 118.362C91.1516 118.362 91.0024 118.066 90.4927 117.085C90.0824 116.29 89.4173 114.995 88.1306 112.942C85.4203 108.607 76.7924 102.103 76.7676 102.084L77.4265 102.029Z" fill="#4A422C"/>
<path d="M37.6748 111.407C37.681 111.4 39.4588 109.07 40.298 108.046C41.1123 107.047 41.7898 106.055 41.796 106.055L42.1504 106.295C42.1441 106.295 41.4604 107.3 40.6274 108.317C39.8131 109.316 38.0229 111.659 38.0167 111.665L37.6748 111.407Z" fill="#4A422C"/>
<path d="M36.5745 109.865C36.5559 109.902 31.5209 122.203 34.6662 127.875C36.127 130.502 39.1604 132.401 42.803 133.591C47.0175 134.959 52.0215 135.385 56.3479 134.91C64.2547 134.035 65.0877 130.896 65.386 129.762L65.3985 129.725C65.6906 128.615 65.5414 124.157 65.5414 124.145L65.9517 123.904C65.9517 123.917 66.1195 128.664 65.8087 129.83L65.8025 129.867C65.4793 131.075 64.5966 134.423 56.3914 135.336C52.0153 135.816 46.9367 135.385 42.6725 133.991C38.9304 132.777 35.8037 130.816 34.2932 128.079C31.0422 122.227 36.1581 109.748 36.1767 109.711L36.5745 109.865Z" fill="#4A422C"/>
<path d="M72.4039 114.175C72.4101 114.2 73.1934 121.321 72.2361 126.087C72.205 126.223 72.1864 126.346 72.1615 126.463C71.801 128.664 72.1428 130.946 73.4047 132.839C74.679 134.738 76.8857 136.248 80.261 136.92C80.4724 136.963 80.6775 137 80.8764 137.031C84.9915 137.697 90.5362 137.691 95.3661 136.828C99.363 136.113 102.856 134.812 104.609 132.82C106.791 130.342 107.68 127.172 107.612 123.923C107.581 122.419 106.039 116.364 104.553 113.226C106.636 116.265 107.966 120.137 108.041 123.917C108.109 127.259 107.189 130.539 104.933 133.104C103.111 135.175 99.5246 136.52 95.4407 137.247C90.5673 138.123 84.9666 138.123 80.808 137.451C80.5843 137.414 80.3729 137.377 80.1802 137.34C76.6744 136.643 74.3806 135.058 73.0504 133.073C71.7202 131.081 71.3596 128.695 71.7388 126.395C71.7637 126.254 71.7885 126.124 71.8134 126.001C72.2485 123.824 72.2796 115.279 72.4039 114.175Z" fill="#4A422C"/>
<path d="M106.785 118.774C106.791 118.768 109.029 118.158 113.337 113.084C114.269 111.986 116.569 109.23 118.968 105.524C118.962 105.531 118.042 108.206 113.666 113.361C109.271 118.528 106.909 119.181 106.903 119.181L106.785 118.774Z" fill="#4A422C"/>
<path d="M106.064 131.199C107.388 131.39 110.142 131.322 112.665 130.804C114.462 130.44 116.128 129.848 117.06 128.973C118.788 127.345 119.037 125.101 119.31 122.721C119.385 122.012 119.472 121.29 119.59 120.563C119.913 118.651 120.448 117.529 122.282 113.688C123.531 111.068 125.396 107.165 128.218 100.851C132.165 92.034 134.645 78.266 131.792 64.9728C129.654 55.0214 124.526 45.3412 114.785 38.1952C114.139 37.7759 113.474 37.3628 112.808 36.9621C98.8098 28.6014 84.1337 26.912 72.2983 28.3301C60.4815 29.742 51.5117 34.2368 48.8699 38.2507C48.8326 38.3062 48.7891 38.374 48.7456 38.448L48.5156 38.1397C48.5529 38.078 48.4596 38.0904 48.5094 38.0164C51.2071 33.9162 60.3012 29.3351 72.2423 27.9047C84.1647 26.4804 98.9341 28.1759 113.026 36.5983C113.691 36.9929 114.356 37.406 115.028 37.8438L115.04 37.8499C124.88 45.0638 130.052 54.8426 132.209 64.8865C135.087 78.2722 132.588 92.1388 128.61 101.024C125.794 107.331 123.929 111.24 122.673 113.867C120.858 117.665 120.33 118.781 120.013 120.637C119.895 121.346 119.814 122.061 119.733 122.77C119.46 125.23 119.199 127.548 117.359 129.281C116.364 130.218 114.617 130.841 112.752 131.223C110.179 131.747 107.363 131.821 106.002 131.624L106.064 131.199Z" fill="#4A422C"/>
<path d="M90.53 66.626C93.1159 69.2341 94.4834 72.5512 94.5705 76.4171C94.6575 80.1967 93.5137 84.5065 91.0708 89.2048L90.6916 89.0074C93.0973 84.377 94.2224 80.135 94.1416 76.4233C94.1789 74.777 93.0973 69.1539 90.53 66.626Z" fill="#4A422C"/>
<path fill-rule="evenodd" clip-rule="evenodd" d="M45.8988 113.799C44.4256 111.432 43.0829 109.052 41.8956 106.653C41.6221 107.036 41.1559 107.671 40.6276 108.318C39.8132 109.317 38.023 111.66 38.0168 111.666L37.8303 111.524L37.8179 111.537C37.793 111.506 37.7619 111.475 37.7309 111.444L37.6749 111.407C37.6749 111.407 37.6749 111.401 37.6811 111.401C37.2709 111 36.8668 110.581 36.4628 110.137C35.7541 111.974 31.7945 122.69 34.6663 127.876C34.859 128.221 35.0766 128.548 35.319 128.868C35.4496 128.431 35.7666 127.783 36.5063 126.883C37.5195 125.65 38.253 125.563 38.6757 125.693C38.2841 124.429 38.1225 123.029 38.2344 121.525C38.3338 120.132 38.6384 118.763 39.117 117.622C39.5708 116.543 40.1924 115.661 40.9508 115.137C42.511 114.052 44.1396 113.614 45.7061 113.775C45.7683 113.781 45.8366 113.787 45.8988 113.799Z" fill="#80724A"/>
<path d="M50.6662 113.848C51.8644 113.848 52.8356 112.617 52.8356 111.099C52.8356 109.58 51.8644 108.349 50.6662 108.349C49.4681 108.349 48.4968 109.58 48.4968 111.099C48.4968 112.617 49.4681 113.848 50.6662 113.848Z" fill="#8C7E57"/>
<path d="M49.8708 107.806C51.069 107.806 52.0402 105.38 52.0402 102.386C52.0402 99.3933 51.069 96.9668 49.8708 96.9668C48.6727 96.9668 47.7014 99.3933 47.7014 102.386C47.7014 105.38 48.6727 107.806 49.8708 107.806Z" fill="#8C7E57"/>
<path d="M49.1479 96.0538C50.3422 95.8912 51.2104 93.6699 51.0872 91.0925C50.964 88.5151 49.8959 86.5576 48.7017 86.7202C47.5074 86.8828 46.6392 89.104 46.7624 91.6814C46.8856 94.2588 47.9537 96.2164 49.1479 96.0538Z" fill="#8C7E57"/>
<path d="M48.7182 86.1541C49.9125 85.9656 50.7807 83.3907 50.6575 80.403C50.5343 77.4152 49.4662 75.146 48.272 75.3345C47.0777 75.523 46.2095 78.0978 46.3327 81.0856C46.456 84.0734 47.524 86.3426 48.7182 86.1541Z" fill="#8C7E57"/>
<path d="M48.8339 74.7186C50.0282 74.5301 50.8964 71.9552 50.7732 68.9674C50.65 65.9797 49.582 63.7104 48.3877 63.8989C47.1935 64.0874 46.3252 66.6623 46.4485 69.6501C46.5717 72.6378 47.6397 74.9071 48.8339 74.7186Z" fill="#8C7E57"/>
<path d="M49.0156 63.5257C50.3088 63.3646 51.7802 61.1632 52.3019 58.6088C52.8236 56.0545 52.1982 54.1144 50.9049 54.2756C49.6116 54.4367 48.1403 56.6381 47.6186 59.1925C47.0968 61.7468 47.7223 63.6869 49.0156 63.5257Z" fill="#8C7E57"/>
<path fill-rule="evenodd" clip-rule="evenodd" d="M83.0833 86.7508C81.2371 87.8606 79.7763 89.7288 78.9123 91.9361C77.4453 95.6725 77.5199 98.5951 77.6815 100.019V100.026C77.9177 100.5 78.4337 101.08 79.1485 101.69C80.6341 102.954 82.9403 104.329 85.3273 105.162C87.6956 105.994 90.1323 106.296 91.9039 105.439C92.3887 105.205 92.8301 104.878 93.1968 104.452C93.2652 104.379 93.3274 104.298 93.3833 104.218C94.9995 102.06 94.5333 98.2621 93.2528 94.649C91.9598 91.0113 89.8401 87.5647 88.1556 86.1219C88.0623 86.0417 87.9691 85.9678 87.8821 85.9061C86.1354 85.6841 84.4384 85.9431 83.0833 86.7508Z" fill="#F0E4C8"/>
<path fill-rule="evenodd" clip-rule="evenodd" d="M92.5565 104.754C92.5565 104.754 87.8448 102.331 83.9908 96.9668C80.4166 91.9973 82.6295 87.0092 85.06 85.998C84.3513 86.146 83.6862 86.3927 83.0833 86.7503C81.2371 87.8601 79.7763 89.7283 78.9123 91.9356C77.4453 95.672 77.5199 98.5946 77.6815 100.019V100.025C77.9177 100.5 78.4337 101.079 79.1485 101.69C80.6341 102.954 82.9403 104.329 85.3273 105.161C87.6956 105.993 90.1323 106.296 91.9039 105.438C92.1525 105.321 92.3887 105.173 92.6125 105.001C92.5752 104.921 92.5565 104.834 92.5565 104.754Z" fill="#DED1B4"/>
<path fill-rule="evenodd" clip-rule="evenodd" d="M39.1418 100.358C38.6818 100.155 33.6033 97.8179 31.1542 94.6056C30.9863 94.3836 30.8309 94.1493 30.7004 93.915C30.2093 95.8017 28.5247 102.602 29.0034 104.693C29.0469 104.871 29.1028 105.032 29.1774 105.186C29.5069 105.839 30.1534 106.228 30.9428 106.401C31.7633 106.579 32.733 106.53 33.6654 106.32C34.2746 106.185 34.8651 105.975 35.3935 105.716C37.5132 104.68 39.7013 103.127 40.1302 102.818C39.7821 102.004 39.4526 101.184 39.1418 100.358Z" fill="#F0E4C8"/>
<path fill-rule="evenodd" clip-rule="evenodd" d="M39.1419 100.358C38.8373 100.223 36.4876 99.1436 34.225 97.4912V98.2373C34.225 98.2373 34.1255 101.363 31.8194 103.558C30.5388 104.773 29.6562 105.057 29.1216 105.063C29.1402 105.106 29.1589 105.143 29.1775 105.186C29.507 105.84 30.1535 106.228 30.9429 106.401C31.7634 106.579 32.7331 106.53 33.6655 106.32C34.2747 106.185 34.8652 105.975 35.3936 105.716C37.5133 104.68 39.7013 103.127 40.1302 102.818C39.7821 102.005 39.4527 101.184 39.1419 100.358Z" fill="#DED1B4"/>
</g>
</g>
<defs>
<clipPath id="clip0_0_192">
<rect width="120" height="120" rx="20" fill="white"/>
</clipPath>
<clipPath id="clip1_0_192">
<rect width="149.944" height="114.042" fill="white" transform="translate(1.05591 27.4541)"/>
</clipPath>
</defs>
</svg>
