<svg width="120" height="120" viewBox="0 0 120 120" fill="none" xmlns="http://www.w3.org/2000/svg">
<path fill-rule="evenodd" clip-rule="evenodd" d="M0 20C0 8.95431 8.95431 0 20 0H100C111.046 0 120 8.95431 120 20V100C120 111.046 111.046 120 100 120H20C8.95431 120 0 111.046 0 100V20Z" fill="#5B98FE"/>
<mask id="mask0_0_782" style="mask-type:alpha" maskUnits="userSpaceOnUse" x="0" y="0" width="120" height="120">
<path fill-rule="evenodd" clip-rule="evenodd" d="M0 20C0 8.95431 8.95431 0 20 0H100C111.046 0 120 8.95431 120 20V100C120 111.046 111.046 120 100 120H20C8.95431 120 0 111.046 0 100V20Z" fill="white"/>
</mask>
<g mask="url(#mask0_0_782)">
</g>
<g clip-path="url(#clip0_0_782)">
<path d="M82.3237 71.5824L91.2371 71.5824C91.2937 71.5823 91.3699 71.6446 91.417 71.7262L95.8777 79.4518C95.9191 79.5237 95.9285 79.5925 95.9058 79.6277L91.4469 87.3509C91.4351 87.3712 91.4151 87.3796 91.3908 87.3774L82.4774 87.3773C82.4208 87.3775 82.3445 87.3152 82.2974 87.2336L77.8368 79.508C77.7953 79.4362 77.786 79.3673 77.8087 79.3321L82.2676 71.6088C82.2794 71.5886 82.2993 71.5802 82.3237 71.5824ZM96.3217 79.7012L105.235 79.7013C105.292 79.7012 105.368 79.7634 105.415 79.845L109.876 87.5705C109.917 87.6424 109.927 87.7113 109.904 87.7465L105.445 95.4698C105.433 95.49 105.413 95.4985 105.389 95.4962L96.4754 95.4961C96.4189 95.4963 96.3426 95.4341 96.2955 95.3524L91.8349 87.6268C91.7934 87.5549 91.7841 87.4861 91.8067 87.4508L96.2657 79.7277C96.2774 79.7074 96.2973 79.699 96.3217 79.7012V79.7012ZM100.936 80.0448L96.5087 80.0448L92.099 87.6829L96.4115 95.1526L105.202 95.1527L109.612 87.5144L105.299 80.0448H100.936V80.0448ZM40.0494 79.7012L48.9629 79.7013C49.0195 79.7012 49.0958 79.7634 49.1429 79.845L53.6034 87.5705C53.6449 87.6424 53.6542 87.7113 53.6315 87.7465L49.1727 95.4698C49.1609 95.49 49.141 95.4985 49.1166 95.4962L40.2032 95.4961C40.1466 95.4963 40.0703 95.4341 40.0233 95.3524L35.5626 87.6268C35.5211 87.5549 35.5118 87.4861 35.5345 87.4508L39.9934 79.7277C40.0051 79.7074 40.0251 79.699 40.0494 79.7012V79.7012ZM44.6635 80.0448L40.2365 80.0448L35.8267 87.6829L40.1393 95.1526L48.9295 95.1527L53.3393 87.5144L49.0267 80.0448H44.6635V80.0448ZM68.2322 96.0323L77.1457 96.0324C77.2022 96.0323 77.2785 96.0945 77.3256 96.1761L81.7862 103.902C81.8277 103.974 81.837 104.042 81.8143 104.078L77.3554 111.801C77.3437 111.821 77.3237 111.83 77.2994 111.827L68.3859 111.827C68.3294 111.827 68.2531 111.765 68.2061 111.683L63.7454 103.958C63.7039 103.886 63.6946 103.817 63.7173 103.782L68.1762 96.0587C68.1879 96.0384 68.2079 96.03 68.2322 96.0323ZM72.8463 96.376L68.4193 96.3758L64.0095 104.014L68.3221 111.484L77.1123 111.484L81.5222 103.846L77.2095 96.376H72.8463V96.376ZM68.2322 79.7012L77.1457 79.7013C77.2022 79.7012 77.2785 79.7634 77.3256 79.845L81.7862 87.5705C81.8277 87.6424 81.837 87.7113 81.8143 87.7465L77.3554 95.4698C77.3437 95.49 77.3237 95.4985 77.2994 95.4962L68.3859 95.4961C68.3294 95.4963 68.2531 95.4341 68.2061 95.3524L63.7454 87.6268C63.7039 87.5549 63.6946 87.4861 63.7173 87.4508L68.1762 79.7277C68.1879 79.7074 68.2079 79.699 68.2322 79.7012V79.7012ZM72.8463 80.0448L68.4193 80.0448L64.0095 87.6829L68.3221 95.1526L77.1123 95.1527L81.5222 87.5144L77.2095 80.0448H72.8463V80.0448ZM54.2341 87.9135L63.1477 87.9136C63.2042 87.9135 63.2805 87.9756 63.3275 88.0573L67.7882 95.7828C67.8296 95.8547 67.839 95.9236 67.8163 95.9588L63.3574 103.682C63.3457 103.702 63.3257 103.711 63.3014 103.708L54.3879 103.708C54.3314 103.708 54.2551 103.646 54.208 103.565L49.7474 95.8391C49.7059 95.7672 49.6965 95.6984 49.7192 95.6631L54.1781 87.9399C54.1898 87.9196 54.2098 87.9112 54.2341 87.9135V87.9135ZM58.8483 88.2571L54.4212 88.257L50.0114 95.8952L54.3241 103.365L63.1143 103.365L67.5241 95.7267L63.2115 88.2571H58.8483V88.2571ZM54.2341 71.5824L63.1477 71.5824C63.2042 71.5823 63.2805 71.6446 63.3275 71.7262L67.7882 79.4518C67.8296 79.5237 67.839 79.5925 67.8163 79.6277L63.3574 87.3509C63.3457 87.3712 63.3257 87.3796 63.3014 87.3774L54.3879 87.3773C54.3314 87.3775 54.2551 87.3152 54.208 87.2336L49.7474 79.508C49.7059 79.4362 49.6965 79.3673 49.7192 79.3321L54.1781 71.6088C54.1898 71.5886 54.2098 71.5802 54.2341 71.5824V71.5824ZM58.8483 71.926L54.4212 71.9259L50.0114 79.5641L54.3241 87.0338L63.1143 87.0338L67.5241 79.3957L63.2114 71.926H58.8483V71.926ZM82.3237 87.9135L91.2371 87.9136C91.2937 87.9135 91.3699 87.9756 91.417 88.0573L95.8777 95.7828C95.9191 95.8547 95.9285 95.9236 95.9058 95.9588L91.4469 103.682C91.4351 103.702 91.4151 103.711 91.3908 103.708L82.4774 103.708C82.4208 103.708 82.3445 103.646 82.2974 103.565L77.8368 95.8391C77.7953 95.7672 77.786 95.6984 77.8087 95.6631L82.2676 87.9399C82.2794 87.9196 82.2993 87.9112 82.3237 87.9135ZM86.9377 88.2571L82.5107 88.257L78.1009 95.8952L82.4135 103.365L91.2037 103.365L95.6136 95.7267L91.3009 88.2571H86.9377V88.2571ZM86.9377 71.926L82.5107 71.9259L78.1009 79.5641L82.4135 87.0338L91.2037 87.0338L95.6136 79.3957L91.3009 71.926H86.9377V71.926Z" fill="#FFCC29"/>
<path d="M64.9511 10.9252L74.0272 10.9253C74.0848 10.9251 74.1625 10.9885 74.2105 11.0716L78.7526 18.9383C78.7948 19.0115 78.8043 19.0816 78.7812 19.1174L74.2409 26.9816C74.2289 27.0023 74.2086 27.0109 74.1838 27.0086L65.1076 27.0085C65.05 27.0086 64.9723 26.9453 64.9244 26.8622L60.3823 18.9956C60.3401 18.9224 60.3306 18.8522 60.3536 18.8164L64.894 10.9521C64.9059 10.9314 64.9263 10.9229 64.9511 10.9252V10.9252ZM79.2047 19.1922L88.2809 19.1924C88.3385 19.1922 88.4162 19.2556 88.4641 19.3387L93.0062 27.2053C93.0484 27.2785 93.0579 27.3486 93.0348 27.3845L88.4946 35.2488C88.4826 35.2694 88.4623 35.278 88.4375 35.2757L79.3612 35.2756C79.3036 35.2757 79.226 35.2124 79.178 35.1293L74.636 27.2626C74.5938 27.1894 74.5842 27.1193 74.6074 27.0834L79.1476 19.2192C79.1596 19.1985 79.1799 19.19 79.2047 19.1922V19.1922ZM83.9031 19.5421L79.3952 19.5421L74.9049 27.3197L79.2962 34.9258L88.247 34.9258L92.7373 27.1482L88.3459 19.5421H83.9031V19.5421ZM21.9049 19.1922L30.9811 19.1924C31.0387 19.1922 31.1164 19.2556 31.1643 19.3387L35.7064 27.2053C35.7486 27.2785 35.7581 27.3486 35.735 27.3845L31.1947 35.2488C31.1828 35.2694 31.1625 35.278 31.1377 35.2757L22.0615 35.2756C22.0039 35.2757 21.9262 35.2124 21.8783 35.1293L17.3362 27.2626C17.294 27.1894 17.2844 27.1193 17.3075 27.0834L21.8478 19.2192C21.8598 19.1985 21.8801 19.19 21.9049 19.1922V19.1922ZM26.6032 19.5421L22.0954 19.5421L17.6051 27.3197L21.9964 34.9258L30.9472 34.9258L35.4375 27.1482L31.0461 19.5421H26.6032V19.5421ZM50.6023 35.8216L59.6785 35.8217C59.7361 35.8216 59.8138 35.8849 59.8618 35.968L64.4038 43.8346C64.4461 43.9078 64.4556 43.978 64.4325 44.0138L59.8921 51.878C59.8802 51.8986 59.8598 51.9072 59.8351 51.9049L50.7588 51.9049C50.7012 51.905 50.6236 51.8417 50.5756 51.7585L46.0335 43.8919C45.9914 43.8187 45.9818 43.7486 46.0049 43.7128L50.5452 35.8485C50.5572 35.8278 50.5775 35.8192 50.6023 35.8216V35.8216ZM55.3007 36.1715L50.7928 36.1713L46.3024 43.949L50.6938 51.555L59.6446 51.5551L64.135 43.7775L59.7435 36.1715H55.3007V36.1715ZM50.6023 19.1922L59.6785 19.1924C59.7361 19.1922 59.8138 19.2556 59.8618 19.3387L64.4038 27.2053C64.4461 27.2785 64.4556 27.3486 64.4325 27.3845L59.8921 35.2488C59.8802 35.2694 59.8598 35.278 59.8351 35.2757L50.7588 35.2756C50.7012 35.2757 50.6236 35.2124 50.5756 35.1293L46.0335 27.2626C45.9914 27.1894 45.9818 27.1193 46.0049 27.0834L50.5452 19.2192C50.5572 19.1985 50.5775 19.19 50.6023 19.1922V19.1922ZM55.3007 19.5421L50.7928 19.5421L46.3024 27.3197L50.6938 34.9258L59.6446 34.9258L64.135 27.1482L59.7435 19.5421H55.3007ZM36.3486 27.5545L45.4249 27.5546C45.4825 27.5545 45.5602 27.6178 45.6081 27.7009L50.1502 35.5676C50.1923 35.6408 50.2019 35.7109 50.1788 35.7467L45.6385 43.611C45.6266 43.6316 45.6062 43.6402 45.5814 43.6379L36.5052 43.6378C36.4476 43.6379 36.37 43.5746 36.322 43.4914L31.7799 35.6248C31.7377 35.5516 31.7282 35.4815 31.7513 35.4457L36.2916 27.5814C36.3035 27.5607 36.3238 27.5521 36.3486 27.5545V27.5545ZM41.047 27.9044L36.5391 27.9042L32.0488 35.682L36.4402 43.288L45.3909 43.2881L49.8812 35.5104L45.4899 27.9044H41.047V27.9044ZM36.3486 10.9252L45.4249 10.9253C45.4825 10.9251 45.5602 10.9885 45.6081 11.0716L50.1502 18.9383C50.1923 19.0115 50.2019 19.0816 50.1788 19.1174L45.6385 26.9816C45.6266 27.0023 45.6062 27.0109 45.5814 27.0086L36.5052 27.0085C36.4476 27.0086 36.37 26.9453 36.322 26.8622L31.7799 18.9956C31.7377 18.9224 31.7282 18.8522 31.7513 18.8164L36.2916 10.9521C36.3035 10.9314 36.3238 10.9229 36.3486 10.9252V10.9252ZM41.047 11.275L36.5391 11.275L32.0488 19.0527L36.4402 26.6587L45.3909 26.6588L49.8812 18.8812L45.4899 11.275H41.047V11.275ZM64.9511 27.5545L74.0272 27.5546C74.0848 27.5545 74.1625 27.6178 74.2105 27.7009L78.7526 35.5676C78.7948 35.6408 78.8043 35.7109 78.7812 35.7467L74.2409 43.611C74.2289 43.6316 74.2086 43.6402 74.1838 43.6379L65.1076 43.6378C65.05 43.6379 64.9723 43.5746 64.9244 43.4914L60.3823 35.6248C60.3401 35.5516 60.3306 35.4815 60.3536 35.4457L64.894 27.5814C64.9059 27.5607 64.9263 27.5521 64.9511 27.5545ZM69.6494 27.9044L65.1416 27.9042L60.6512 35.682L65.0426 43.288L73.9933 43.2881L78.4836 35.5104L74.0923 27.9044H69.6494V27.9044ZM69.6494 11.275L65.1416 11.275L60.6512 19.0527L65.0426 26.6587L73.9933 26.6588L78.4836 18.8812L74.0923 11.275H69.6494V11.275Z" fill="#FFCC29"/>
<path d="M76.1346 37.1429C76.226 37.2863 76.237 37.4325 76.1589 37.4692C76.0809 37.506 75.9434 37.4194 75.852 37.276C75.8456 37.266 73.605 33.8449 72.9073 26.5186C72.2135 19.2339 72.6907 18.3958 72.692 18.3933C72.7353 18.3117 72.8611 18.3451 72.9727 18.4679C73.0843 18.5907 73.1397 18.7565 73.0964 18.8381C73.0952 18.8405 72.6568 19.6046 73.3403 26.7814C74.0198 33.9167 76.1285 37.1334 76.1346 37.1429V37.1429Z" fill="black"/>
<path fill-rule="evenodd" clip-rule="evenodd" d="M76.3948 10.123C79.7227 10.123 82.4205 12.8208 82.4205 16.1487C82.4205 19.4766 79.7227 22.1744 76.3948 22.1744C73.0669 22.1744 70.3691 19.4766 70.3691 16.1487C70.3691 12.8208 73.0669 10.123 76.3948 10.123Z" fill="#FFCC29"/>
<path fill-rule="evenodd" clip-rule="evenodd" d="M78.3721 10.9233C80.5703 11.5262 82.0429 13.1434 81.6611 14.5354C81.2793 15.9274 79.1878 16.5671 76.9895 15.9642C74.7912 15.3612 73.3187 13.7441 73.7005 12.352C74.0822 10.96 76.1738 10.3203 78.3721 10.9233V10.9233Z" fill="#FFDD21"/>
<path d="M76.1441 9.58789C77.9224 9.58789 79.5623 10.3387 80.7762 11.5525C82.0604 12.8367 82.8548 14.5733 82.8548 16.4571C82.8548 18.2015 82.1576 19.7711 81.0305 20.8983C79.9118 22.0168 78.3618 22.7088 76.6455 22.7088C74.8673 22.7088 73.2273 21.9578 72.0134 20.7441C70.7293 19.4599 69.9348 17.7234 69.9348 15.8394C69.9348 14.095 70.632 12.5255 71.7592 11.3984C72.8777 10.2798 74.4279 9.58789 76.1441 9.58789V9.58789ZM80.5351 12.2225C79.5681 11.2555 78.1952 10.6574 76.6455 10.6574C75.0338 10.6574 73.5709 11.3145 72.5089 12.3766C71.4552 13.4301 70.8035 14.8737 70.8035 16.4571C70.8035 17.9011 71.3581 19.1777 72.2545 20.0742C73.2214 21.0411 74.5945 21.6393 76.1441 21.6393C77.7557 21.6393 79.2186 20.9822 80.2808 19.9201C81.3344 18.8665 81.9861 17.4229 81.9861 15.8394C81.9861 14.3955 81.4315 13.1189 80.5351 12.2225Z" fill="black"/>
<path fill-rule="evenodd" clip-rule="evenodd" d="M78.6282 11.3145C79.5141 11.3145 80.2321 12.0325 80.2321 12.9183C80.2321 13.8041 79.5141 14.5222 78.6282 14.5222C77.7424 14.5222 77.0243 13.8041 77.0243 12.9183C77.0243 12.0325 77.7424 11.3145 78.6282 11.3145Z" fill="#FFF8AF"/>
<path d="M78.5656 11.1807C79.037 11.1807 79.4716 11.3794 79.7926 11.7003C80.1312 12.039 80.3408 12.4975 80.3408 12.9953C80.3408 13.4582 80.1554 13.8751 79.8561 14.1745C79.5588 14.4718 79.1469 14.6557 78.691 14.6557C78.2195 14.6557 77.785 14.4571 77.4639 14.136C77.1253 13.7973 76.9158 13.3388 76.9158 12.8409C76.9158 12.3781 77.1011 11.9612 77.4005 11.6618C77.6976 11.3647 78.1097 11.1807 78.5656 11.1807V11.1807ZM79.7322 11.8678C79.4729 11.6086 79.1053 11.448 78.691 11.448C78.2611 11.448 77.8709 11.6232 77.5878 11.9063C77.3068 12.1874 77.1329 12.5726 77.1329 12.9953C77.1329 13.3832 77.2825 13.7267 77.5243 13.9685C77.7835 14.2279 78.1513 14.3884 78.5656 14.3884C78.9954 14.3884 79.3857 14.2131 79.6686 13.93C79.9497 13.649 80.1236 13.2637 80.1236 12.8409C80.1236 12.4531 79.9739 12.1095 79.7322 11.8678V11.8678Z" fill="black"/>
<path fill-rule="evenodd" clip-rule="evenodd" d="M72.531 88.6893C74.6968 96.2706 95.0024 96.0522 86.8284 84.0139C83.1016 78.5252 76.0545 81.6423 76.0545 81.6423L72.531 88.6893Z" fill="#91D8F7"/>
<path fill-rule="evenodd" clip-rule="evenodd" d="M72.5309 88.6897C73.1293 90.7842 75.1131 92.282 77.4975 93.1011C83.3969 94.0639 89.9121 91.2105 84.6573 83.4715C83.7429 82.1248 82.6284 81.2969 81.4673 80.8132C78.6162 80.5103 76.0545 81.6426 76.0545 81.6426L72.5309 88.6897V88.6897Z" fill="#85C5E2"/>
<path d="M72.9092 88.9548C73.7595 91.5382 77.2063 93.0782 80.6172 93.3488C82.1914 93.4736 83.754 93.3198 85.0648 92.8669C86.3662 92.4172 87.4147 91.6748 87.9715 90.6208C88.7595 89.1293 88.5467 86.9905 86.6156 84.1467C83.3074 79.2744 76.9446 81.8026 76.3634 82.0465L72.9092 88.9548V88.9548ZM80.9924 94.2163C77.1391 93.9107 73.189 91.9534 72.2098 88.6108C72.1718 88.5006 72.1655 88.3983 72.2 88.3301L75.7235 81.2831C75.7384 81.2551 75.76 81.2334 75.7887 81.2207C75.8095 81.2116 83.0511 78.0059 87.0411 83.8823C89.2766 87.1747 89.5303 89.6369 88.6286 91.3437C88.0358 92.466 86.9356 93.2508 85.5764 93.7205C84.2267 94.1869 82.6162 94.345 80.9924 94.2163V94.2163Z" fill="black"/>
<path fill-rule="evenodd" clip-rule="evenodd" d="M78.1942 86.3152C78.1942 86.3152 87.8267 91.0444 98.644 84.8748C109.461 78.7052 112.819 70.146 105.85 63.8106C98.8814 57.4754 75.6057 73.892 75.6057 73.892L78.1942 86.3152V86.3152Z" fill="#91D8F7"/>
<path fill-rule="evenodd" clip-rule="evenodd" d="M78.1942 86.3154C78.1942 86.3154 87.8267 91.0447 98.644 84.8751C100.71 83.6965 102.504 82.4305 104.006 81.1097C106.801 76.6319 106.398 71.9324 102.141 68.0627C96.9882 63.3781 82.9209 71.1327 75.9391 75.4923L78.1942 86.3154V86.3154Z" fill="#85C5E2"/>
<path d="M78.4512 86.0634C80.2261 86.8141 88.7981 89.9162 98.3664 84.459C101.335 82.7656 103.74 80.8915 105.52 78.9332C107.364 76.9048 108.534 74.791 108.961 72.7C109.375 70.6774 109.091 68.6969 108.046 66.8642C107.506 65.918 106.754 64.9955 105.781 64.1106C99.2762 58.1973 77.5733 73.1307 75.9869 74.2361L78.4512 86.0634ZM98.9216 85.2913C88.2555 91.3745 78.7126 86.9278 78.289 86.7253L78.2786 86.7206C78.0895 86.6335 77.8983 86.3813 77.8517 86.1576L75.2632 73.7344C75.2399 73.6205 75.2569 73.5258 75.3191 73.4823C75.3865 73.4352 98.7252 56.9709 105.92 63.5113C107.037 64.5274 107.912 65.6062 108.553 66.73C109.767 68.8596 110.111 71.0942 109.656 73.3204C109.214 75.4784 108.018 77.6481 106.136 79.7184C104.34 81.6938 101.915 83.5839 98.9216 85.2913V85.2913Z" fill="black"/>
<path fill-rule="evenodd" clip-rule="evenodd" d="M48.1923 79.7647C29.4519 81.1187 27.5194 50.2328 41.5487 61.0284C46.8071 65.0748 51.8245 74.7521 51.8245 74.7521L48.1923 79.7647V79.7647Z" fill="#91D8F7"/>
<path fill-rule="evenodd" clip-rule="evenodd" d="M48.1923 79.7651C41.8495 80.2234 37.4347 76.9873 34.9099 72.9253C34.2278 67.1101 37.2837 62.7428 43.9912 67.9041C46.5373 69.8633 49.0266 73.1425 50.9175 76.0042L48.1923 79.7651Z" fill="#85C5E2"/>
<path d="M48.4041 80.1996C40.9162 80.7384 35.995 76.1918 33.6271 71.0891C32.3804 68.4027 31.8605 65.5692 32.0599 63.2578C32.2589 60.9511 33.175 59.1544 34.8001 58.535C36.3905 57.9288 38.6498 58.4419 41.5693 60.6884C46.9821 64.8534 52.0801 74.6877 52.0949 74.716C52.1868 74.8918 52.2006 75.0519 52.1419 75.1323L52.1425 75.1328L48.5103 80.1453C48.4849 80.1802 48.4479 80.1978 48.4041 80.1996V80.1996ZM34.2056 71.0911C36.3476 75.7069 40.8881 79.814 47.9104 79.3339L51.4063 74.5096C50.5536 72.9186 46.1208 64.9024 41.5282 61.3685C38.8441 59.3031 36.7728 58.8291 35.3197 59.3829C33.805 59.9602 32.9502 61.6463 32.7632 63.8142C32.5765 65.9774 33.0549 68.6114 34.2056 71.0911Z" fill="black"/>
<path fill-rule="evenodd" clip-rule="evenodd" d="M50.189 73.0355C50.189 73.0355 37.897 70.2531 33.3314 50.3952C28.7659 30.5373 44.6817 17.728 52.7968 25.4543C60.9119 33.1807 64.535 63.9023 64.535 63.9023L50.189 73.0355V73.0355Z" fill="#91D8F7"/>
<path fill-rule="evenodd" clip-rule="evenodd" d="M50.189 73.035C50.189 73.035 47.4136 72.4052 44.0106 69.6155C41.2978 66.8851 38.4012 62.4304 36.7459 55.2306C33.0105 38.9836 46.0322 28.5036 52.6716 34.825C58.574 40.4445 61.5718 60.9312 62.1646 65.411L50.189 73.035V73.035Z" fill="#85C5E2"/>
<path d="M50.3376 73.4625C50.3012 73.4539 37.6691 70.594 32.9913 50.2475C31.3139 42.9521 32.3592 36.607 34.7642 31.8571C36.2305 28.9614 38.2049 26.6549 40.3765 25.0863C42.5543 23.5133 44.9333 22.6823 47.2007 22.7423C49.2374 22.7962 51.2015 23.5697 52.8803 25.168C61.2316 33.1192 64.8734 64.0139 64.8841 64.103C64.8967 64.2072 64.8704 64.2799 64.8175 64.3139L50.4719 73.4476C50.4356 73.471 50.3891 73.475 50.3376 73.4625ZM33.6717 50.5422C37.9183 69.0136 48.9203 72.3142 49.961 72.5876L64.1669 63.5437C63.8815 61.2173 60.2771 32.9414 52.7133 25.7399C51.2437 24.3407 49.4721 23.662 47.5994 23.6126C45.3984 23.5543 43.081 24.3669 40.9519 25.9047C38.8165 27.4472 36.8726 29.7198 35.4261 32.5766C33.0676 37.2345 32.0381 43.4369 33.6717 50.5422V50.5422Z" fill="black"/>
<path fill-rule="evenodd" clip-rule="evenodd" d="M49.3861 82.3421L50.4369 84.5313L39.1407 80.3281H48.598L49.3861 82.3421Z" fill="#201E1E"/>
<path d="M49.7508 82.36L50.788 84.5209C50.9301 84.8169 50.8882 85.0614 50.6943 85.0669C50.6519 85.0681 50.6057 85.0577 50.5578 85.0377L39.279 80.841C39.0514 80.7564 38.8047 80.4578 38.7283 80.1744C38.6629 79.9314 38.7438 79.7784 38.9117 79.7929H48.3473C48.5431 79.7925 48.8142 80.0316 48.9526 80.3269L48.979 80.388L49.7508 82.36ZM49.7338 83.8076L49.035 82.3518L49.005 82.2815L48.4497 80.8625H41.819L49.7338 83.8076Z" fill="black"/>
<path fill-rule="evenodd" clip-rule="evenodd" d="M77.9202 70.5164C81.0945 69.5916 84.5246 71.7829 85.5815 75.4109C86.0697 77.0868 88.3733 87.8513 83.2169 89.3534C77.9745 90.8806 74.6359 80.647 74.0861 78.7596C73.0292 75.1317 74.7459 71.4411 77.9202 70.5164V70.5164Z" fill="#FFCC29"/>
<path fill-rule="evenodd" clip-rule="evenodd" d="M77.9201 70.5172C78.0466 70.4803 78.1736 70.449 78.3008 70.4219C76.7831 72.0534 76.169 74.6162 76.9068 77.1486C77.428 78.938 80.456 88.2275 85.2365 87.8864C84.7464 88.5811 84.0885 89.1004 83.2169 89.3543C77.9744 90.8815 74.6359 80.6478 74.0861 78.7604C73.0292 75.1326 74.7459 71.4419 77.9201 70.5172V70.5172Z" fill="#E5AA2D"/>
<path d="M77.8969 70.199C79.715 69.6694 81.5502 69.9964 83.0475 70.9528C84.4685 71.8607 85.6177 73.3465 86.1589 75.1954L86.1605 75.1948C86.165 75.2067 86.1678 75.2188 86.1694 75.2313C86.4215 76.1108 87.1111 79.2126 87.1035 82.2889C87.0955 85.5213 86.2692 88.7552 83.2887 89.656C83.2571 89.6666 83.2258 89.6759 83.1947 89.6836C81.0047 90.3004 79.202 89.2728 77.769 87.6101C75.3549 84.8092 73.8585 80.1764 73.5056 78.9648C72.9643 77.1068 73.1364 75.2258 73.8521 73.6869C74.6198 72.0364 76.029 70.7432 77.8969 70.199V70.199ZM82.0423 71.5601C80.7668 70.7452 79.2995 70.4386 77.9433 70.8337C76.6372 71.2142 75.6006 72.229 74.9806 73.5618C74.3088 75.0062 74.151 76.7848 74.6666 78.5545C75.0155 79.7521 76.4934 84.3298 78.8655 87.0822C80.1345 88.5545 81.6109 89.4964 83.1922 89.0366L83.1939 89.0361C85.3293 88.414 85.9211 85.5327 85.9284 82.6065C85.9359 79.5633 85.2555 76.5029 85.0075 75.6392L85.0026 75.6273L85.0039 75.6265L85.001 75.6164C84.4842 73.8421 83.3912 72.4218 82.0423 71.5601V71.5601Z" fill="black"/>
<path fill-rule="evenodd" clip-rule="evenodd" d="M64.5352 62.1143C74.0142 62.1143 81.6984 68.9948 81.6984 77.4824C81.6984 85.9699 74.0142 92.8504 64.5352 92.8504C55.0562 92.8504 47.3721 85.9699 47.3721 77.4824C47.3721 68.9948 55.0562 62.1143 64.5352 62.1143Z" fill="#FFCC29"/>
<path fill-rule="evenodd" clip-rule="evenodd" d="M80.6948 82.6698C78.318 88.6042 71.9807 92.8497 64.5353 92.8497C57.5626 92.8497 51.5615 89.1265 48.8752 83.7795C51.252 77.845 57.5893 73.5996 65.0347 73.5996C72.0073 73.5996 78.0085 77.3228 80.6948 82.6698V82.6698Z" fill="#E5AA2D"/>
<path d="M64.2846 61.5791C69.1237 61.5791 73.5333 63.3609 76.7504 66.2416C80.0759 69.2193 82.1328 73.3044 82.1328 77.7909C82.1328 82.1183 80.1864 86.025 77.0395 88.8427C73.9053 91.649 69.5732 93.3849 64.786 93.3849C59.9469 93.3849 55.5372 91.603 52.3202 88.7224C48.9946 85.7448 46.9377 81.6596 46.9377 77.1732C46.9377 72.8457 48.8841 68.9389 52.031 66.1212C55.1652 63.3149 59.4974 61.5791 64.2846 61.5791V61.5791ZM76.5927 66.9886C73.598 64.3072 69.4257 62.6486 64.786 62.6486C60.0944 62.6486 55.8447 64.3532 52.767 67.109C49.7021 69.8532 47.8064 73.6308 47.8064 77.7909C47.8064 81.7919 49.5917 85.391 52.478 87.9753C55.4725 90.6567 59.6449 92.3153 64.2846 92.3153C68.9762 92.3153 73.2258 90.6107 76.3035 87.855C79.3684 85.1108 81.2641 81.3332 81.2641 77.1732C81.2641 73.1721 79.4788 69.573 76.5927 66.9886V66.9886Z" fill="black"/>
<path fill-rule="evenodd" clip-rule="evenodd" d="M64.5352 62.1143C74.0142 62.1143 81.6984 68.9948 81.6984 77.4824C81.6984 83.7784 77.4696 89.1892 71.4168 91.5641C70.0254 91.9369 68.5688 92.1357 67.0684 92.1357C57.2836 92.1357 49.3516 83.7133 49.3516 73.3239C49.3516 72.1224 49.4588 70.9479 49.6616 69.8091C52.6275 65.2097 58.1775 62.1143 64.5352 62.1143Z" fill="#201E1E"/>
<path d="M64.41 61.8467C69.1992 61.8467 73.5494 63.5977 76.7109 66.4285C79.9266 69.3079 81.9157 73.2715 81.9157 77.6366C81.9157 80.7697 80.8832 83.6813 79.1074 86.1135C77.2804 88.6157 74.6649 90.6142 71.5778 91.8254C71.5709 91.8282 71.5636 91.8299 71.556 91.831C70.8527 92.0188 70.1337 92.1625 69.4021 92.2587C68.6785 92.3538 67.9414 92.4029 67.1937 92.4029C57.2197 92.4029 49.1344 83.7917 49.1344 73.1692C49.1344 72.5663 49.1609 71.9713 49.2126 71.3857C49.2654 70.7871 49.344 70.1987 49.4466 69.6219C49.4506 69.5995 49.4587 69.5818 49.4701 69.5686C50.9872 67.2206 53.1731 65.2636 55.7937 63.9079C58.3277 62.597 61.2704 61.8467 64.41 61.8467V61.8467ZM76.6321 66.802C73.5818 64.0708 69.3502 62.3814 64.6606 62.3814C61.5546 62.3814 58.641 63.1249 56.13 64.4239C53.5357 65.7661 51.3728 67.7004 49.8723 70.0193C49.7726 70.5835 49.6965 71.1545 49.6457 71.7307C49.5949 72.3071 49.5688 72.8901 49.5688 73.4781C49.5688 83.6346 57.3474 91.8682 66.943 91.8682C67.6813 91.8682 68.4091 91.8198 69.1233 91.7258C69.849 91.6305 70.5602 91.4883 71.2538 91.3031L71.2557 91.3023C74.3156 90.1018 76.907 88.1223 78.716 85.6449C80.4647 83.2498 81.4813 80.3925 81.4813 77.3278C81.4813 73.2054 79.6281 69.4847 76.6321 66.802V66.802Z" fill="black"/>
<path fill-rule="evenodd" clip-rule="evenodd" d="M64.5352 62.1143C74.0142 62.1143 81.6984 68.9948 81.6984 77.4824C81.6984 80.5067 80.7221 83.3265 79.0373 85.7043C77.0443 86.5287 74.8766 86.9818 72.6089 86.9818C62.8241 86.9818 54.8921 78.5594 54.8921 68.1699C54.8921 66.9404 55.0044 65.7391 55.2165 64.5754C57.9001 63.0187 61.0995 62.1143 64.5352 62.1143V62.1143Z" fill="#FFCC29"/>
<path fill-rule="evenodd" clip-rule="evenodd" d="M80.6949 82.6702C80.2657 83.7413 79.7076 84.7574 79.0373 85.7035C77.0443 86.528 74.8765 86.981 72.6089 86.981C65.3463 86.981 59.1055 82.3404 56.3702 75.7C58.9135 74.3654 61.874 73.5996 65.0347 73.5996C72.0075 73.5996 78.0087 77.3229 80.6949 82.6702Z" fill="#E5AA2D"/>
<path d="M64.2846 61.5791C69.1237 61.5791 73.5333 63.3609 76.7504 66.2416C80.0759 69.2193 82.1328 73.3044 82.1328 77.7909C82.1328 79.3162 81.8918 80.7876 81.4423 82.1763C80.9795 83.6064 80.2971 84.9486 79.4307 86.171C79.4083 86.2027 79.3784 86.2231 79.3431 86.2331C78.3265 86.6523 77.2679 86.9757 76.1772 87.1924C75.1077 87.4049 73.9989 87.5162 72.8596 87.5162C62.6964 87.5162 54.4577 78.7161 54.4577 67.8607C54.4577 67.2358 54.4857 66.6213 54.5401 66.0185C54.5954 65.4058 54.6785 64.7992 54.7876 64.2004C54.8007 64.1285 54.8354 64.0807 54.8848 64.0572C56.2588 63.2616 57.7667 62.6352 59.3714 62.2113C60.9289 61.8 62.5778 61.5791 64.2846 61.5791V61.5791ZM76.5927 66.9886C73.598 64.3072 69.4257 62.6486 64.786 62.6486C63.1153 62.6486 61.5007 62.865 59.9756 63.2677C58.4222 63.6779 56.9613 64.2815 55.6279 65.0469C55.5317 65.5909 55.4573 66.1452 55.4065 66.7086C55.3536 67.2945 55.3265 67.8849 55.3265 68.4784C55.3265 78.4019 62.9518 86.4466 72.3582 86.4466C73.4578 86.4466 74.5395 86.337 75.5936 86.1275C76.6585 85.9159 77.6871 85.6033 78.6697 85.2001C79.5041 84.0151 80.1597 82.7234 80.6025 81.3555C81.0332 80.0248 81.2641 78.6213 81.2641 77.1732C81.2641 73.1721 79.4788 69.573 76.5927 66.9886V66.9886Z" fill="black"/>
<path d="M91.3887 39.2009C91.3782 39.2947 91.251 39.3077 91.1047 39.2301C90.9585 39.1525 90.8483 39.0134 90.8588 38.9197C91.1705 36.0764 93.0939 33.801 95.5197 32.0703C99.3186 29.3597 104.364 27.9805 106.358 27.852C106.472 27.8444 106.639 27.9365 106.731 28.0577C106.823 28.1789 106.806 28.2834 106.693 28.291C104.727 28.4175 99.7463 29.7831 95.9817 32.4693C93.59 34.1757 91.6943 36.4135 91.3887 39.2009V39.2009Z" fill="black"/>
<path fill-rule="evenodd" clip-rule="evenodd" d="M65.9604 64.3324C66.8984 67.5029 64.7214 70.9421 61.0979 72.0141C59.424 72.5094 48.6693 74.8579 47.1456 69.7078C45.5965 64.4718 55.8161 61.0905 57.7012 60.5328C61.3246 59.4608 65.0224 61.162 65.9604 64.3324Z" fill="#FFCC29"/>
<path fill-rule="evenodd" clip-rule="evenodd" d="M66.002 64.4805C66.83 67.609 64.6649 70.9582 61.0979 72.0135C59.424 72.5088 48.6693 74.8573 47.1455 69.7071C46.8257 68.6258 47.0086 67.624 47.5155 66.7093C49.4841 71.3156 59.6908 69.0839 61.318 68.6023C63.5751 67.9346 65.2707 66.3482 66.002 64.4805Z" fill="#E5AA2D"/>
<path d="M66.2889 64.347C66.81 66.1499 66.4888 67.9709 65.5454 69.4614C64.6435 70.8862 63.1625 72.0416 61.316 72.5905L61.3165 72.5921C61.3046 72.5966 61.2927 72.5995 61.2804 72.6011C60.4023 72.8569 57.3032 73.5597 54.2264 73.5648C50.9936 73.5703 47.7557 72.7573 46.8431 69.7796C46.8317 69.7461 46.8219 69.7129 46.8137 69.6802C45.9736 66.7257 48.2014 64.4288 50.8923 62.8024C53.4956 61.2288 56.524 60.2406 57.4828 59.9563L57.4823 59.9548C57.4946 59.9502 57.5067 59.9473 57.5191 59.9457C59.3666 59.4058 61.2381 59.5716 62.773 60.2777C64.4161 61.0336 65.7089 62.4242 66.2668 64.2721C66.2751 64.2972 66.2825 64.3223 66.2889 64.347V64.347ZM64.934 68.4589C65.7432 67.1805 66.0435 65.7128 65.6437 64.3587L65.643 64.3567C65.2572 63.0523 64.2381 62.02 62.9027 61.4056C61.4618 60.7426 59.6914 60.5909 57.9312 61.106L57.92 61.1108L57.9189 61.1096L57.909 61.1124C56.9701 61.3902 53.9588 62.3701 51.3781 63.93C48.8958 65.4303 46.8032 67.4204 47.4596 69.6712L47.4669 69.696C48.1057 71.8185 50.9834 72.396 53.9038 72.3911C56.9473 72.386 60.0053 71.6925 60.8677 71.441L60.8792 71.436L60.88 71.4375L60.8901 71.4344C62.6622 70.9101 64.0779 69.8113 64.934 68.4589V68.4589Z" fill="black"/>
<path fill-rule="evenodd" clip-rule="evenodd" d="M79.9211 34.5591C92.5264 34.1263 102.745 44.3989 102.745 57.5034C102.745 70.6078 92.5264 81.5819 79.9211 82.0146C67.3159 82.4473 57.0973 72.1748 57.0973 59.0703C57.0973 45.9659 67.3159 34.9918 79.9211 34.5591V34.5591Z" fill="#FFCC29"/>
<path fill-rule="evenodd" clip-rule="evenodd" d="M102.542 60.6803C101.051 72.3371 91.4925 81.618 79.9211 82.0151C67.316 82.4478 57.0973 72.1753 57.0973 59.0708C57.0973 48.6775 63.5257 39.6254 72.4739 36.1084C66.4742 40.0672 62.4599 47.0394 62.4599 54.8492C62.4599 66.6988 71.7 75.9875 83.0982 75.5964C92.0642 75.2886 99.6935 69.0822 102.542 60.6803Z" fill="#E5AA2D"/>
<path d="M79.5173 33.7233C79.759 33.7151 80.0188 33.7109 80.2964 33.7109C86.4627 33.7109 92.0749 36.248 96.2305 40.4148C100.483 44.679 103.184 50.55 103.408 57.0993C103.419 57.3965 103.424 57.6924 103.424 57.9866C103.424 64.6582 100.836 70.7736 96.6514 75.2672C92.4771 79.7502 86.705 82.6326 80.3249 82.8516C80.0833 82.8598 79.8236 82.864 79.546 82.864C73.3797 82.864 67.7674 80.3269 63.6118 76.16C59.3592 71.8958 56.6586 66.0249 56.4339 59.4754C56.4237 59.1784 56.4185 58.8824 56.4185 58.5883C56.4185 51.9165 59.0066 45.8012 63.1909 41.3077C67.3652 36.8248 73.1373 33.9423 79.5173 33.7233V33.7233ZM81.08 35.382C80.8484 35.382 80.5965 35.3867 80.3249 35.396C74.0999 35.6096 68.4599 38.4307 64.3737 42.819C60.2974 47.1966 57.7761 53.1208 57.7761 59.5535C57.7761 59.8353 57.7809 60.1129 57.7902 60.3861C57.9919 66.2634 60.325 71.4415 63.9929 75.1193C67.7578 78.8944 72.9535 81.1929 78.7624 81.1929C78.994 81.1929 79.2458 81.1882 79.5173 81.1789C85.7424 80.9653 91.3824 78.1441 95.4686 73.7559C99.5449 69.3782 102.066 63.4541 102.066 57.0214C102.066 56.7396 102.061 56.4618 102.052 56.1886C101.85 50.3113 99.5173 45.1333 95.8494 41.4555C92.0846 37.6805 86.889 35.382 81.08 35.382V35.382Z" fill="black"/>
<path fill-rule="evenodd" clip-rule="evenodd" d="M85.0565 36.9557C94.8701 38.3276 102.073 46.7516 101.145 55.7712C100.216 64.7909 91.5078 70.9907 81.6942 69.6188C71.8806 68.2469 64.6777 59.8229 65.6062 50.8033C66.5346 41.7836 75.2428 35.5839 85.0565 36.9557V36.9557Z" fill="#FFDD21"/>
<path fill-rule="evenodd" clip-rule="evenodd" d="M80.0776 44.46C82.059 44.46 83.6653 46.1249 83.6653 48.1788C83.6653 50.2328 82.059 51.8977 80.0776 51.8977C78.0962 51.8977 76.49 50.2328 76.49 48.1788C76.49 46.1249 78.0962 44.46 80.0776 44.46Z" fill="#201E1E"/>
<path fill-rule="evenodd" clip-rule="evenodd" d="M79.0255 45.0898C79.7738 45.0898 80.3804 45.7186 80.3804 46.4943C80.3804 47.27 79.7738 47.8988 79.0255 47.8988C78.2772 47.8988 77.6706 47.27 77.6706 46.4943C77.6706 45.7186 78.2772 45.0898 79.0255 45.0898Z" fill="#FEFEFE"/>
<path fill-rule="evenodd" clip-rule="evenodd" d="M81.4082 50.1543C81.625 50.1543 81.8008 50.3365 81.8008 50.5613C81.8008 50.786 81.625 50.9682 81.4082 50.9682C81.1914 50.9682 81.0156 50.786 81.0156 50.5613C81.0156 50.3365 81.1914 50.1543 81.4082 50.1543Z" fill="#FEFEFE"/>
<path fill-rule="evenodd" clip-rule="evenodd" d="M91.9362 45.0117C92.9875 45.0117 94.0748 46.8401 94.3646 49.0955C94.6546 51.351 94.0374 53.1794 92.9861 53.1794C91.9349 53.1794 90.8476 51.351 90.5577 49.0955C90.2678 46.8401 90.885 45.0117 91.9362 45.0117V45.0117Z" fill="#201E1E"/>
<path fill-rule="evenodd" clip-rule="evenodd" d="M92.3751 45.7561C92.7653 45.7026 93.2618 46.3259 93.4841 47.1482C93.7065 47.9706 93.5704 48.6806 93.1802 48.7341C92.7901 48.7876 92.2936 48.1643 92.0712 47.3419C91.8489 46.5196 91.9849 45.8096 92.3751 45.7561V45.7561Z" fill="#FEFEFE"/>
<path fill-rule="evenodd" clip-rule="evenodd" d="M91.8799 51.3361C92.0239 51.3164 92.2073 51.5465 92.2894 51.8501C92.3714 52.1537 92.3212 52.4159 92.1771 52.4356C92.0331 52.4553 91.8498 52.2252 91.7677 51.9216C91.6856 51.618 91.7358 51.3559 91.8799 51.3361Z" fill="#FEFEFE"/>
<path d="M73.8141 57.8672C73.7871 57.6078 73.9587 57.5127 74.1974 57.6548C74.436 57.7969 74.6515 58.1225 74.6785 58.3818C74.6794 58.3901 74.9438 61.2599 78.5891 63.5796C82.4044 66.0075 84.1393 63.6367 84.1443 63.63C84.2505 63.4889 84.5111 63.5849 84.7262 63.8444C84.9414 64.1039 85.0295 64.4288 84.9234 64.5699C84.9177 64.5774 82.967 67.2436 78.651 64.4971C74.165 61.6423 73.8152 57.8781 73.8141 57.8672Z" fill="black"/>
<path fill-rule="evenodd" clip-rule="evenodd" d="M107.48 19.0076C110.628 17.9274 114.055 19.6034 115.135 22.7511C116.215 25.8989 114.539 29.3262 111.392 30.4064C108.244 31.4866 104.817 29.8106 103.736 26.6629C102.656 23.5151 104.332 20.0878 107.48 19.0076V19.0076Z" fill="#FFCC29"/>
<path d="M107.165 18.4819C108.799 17.9212 110.524 18.0842 111.99 18.8013C113.587 19.5819 114.893 20.9929 115.529 22.8489C116.119 24.5672 115.972 26.3309 115.257 27.7931C114.56 29.2184 113.321 30.3771 111.706 30.9314C110.072 31.4922 108.348 31.3291 106.881 30.6119C105.285 29.8313 103.979 28.4203 103.342 26.5645C102.752 24.8462 102.9 23.0825 103.615 21.6202C104.312 20.1949 105.55 19.036 107.165 18.4819V18.4819ZM112.175 19.7857C110.871 19.1479 109.308 19.0133 107.794 19.5325C106.262 20.0585 105.088 21.1537 104.43 22.499C103.791 23.8073 103.64 25.3314 104.131 26.7606C104.574 28.0523 105.522 29.0535 106.696 29.6276C108 30.2653 109.564 30.4001 111.077 29.8808C112.61 29.3547 113.783 28.2595 114.441 26.9143C115.081 25.606 115.231 24.0819 114.741 22.6527C114.297 21.361 113.349 20.3597 112.175 19.7857Z" fill="black"/>
<path d="M73.1941 40.4077C73.2696 40.6837 73.1564 40.8477 72.9363 40.7751C72.712 40.701 72.4614 40.4092 72.3768 40.1234L72.3652 40.0807C72.3339 39.9528 72.3444 39.8506 72.3883 39.7875C72.4672 39.4653 72.708 38.9877 73.175 38.5195C73.7815 37.9113 74.7715 37.2158 76.2682 36.7169C76.4786 36.6468 76.7118 36.5775 76.9694 36.5095C77.1416 36.4637 77.4166 36.6632 77.5834 36.9548C77.7501 37.2465 77.7457 37.5202 77.5735 37.5659C77.3488 37.6251 77.1224 37.6933 76.8958 37.7688C75.4474 38.2516 74.4985 38.9155 73.922 39.4936C73.399 40.0181 73.1794 40.3516 73.1941 40.4077Z" fill="black"/>
<path d="M94.4358 41.8155C94.4634 42.0745 94.2928 42.1702 94.0549 42.0291C93.8171 41.8881 93.6018 41.5638 93.5742 41.3047C93.574 41.3021 93.4826 40.3716 91.863 39.6182C91.6299 39.5096 91.3952 39.1988 91.3388 38.9242C91.2825 38.6496 91.4257 38.5149 91.6588 38.6235C94.2347 39.8216 94.4352 41.8098 94.4358 41.8155V41.8155Z" fill="black"/>
<path fill-rule="evenodd" clip-rule="evenodd" d="M69.2703 48.6338C71.4047 48.6338 73.1349 50.364 73.1349 52.4984C73.1349 54.6328 71.4047 56.3629 69.2703 56.3629C67.136 56.3629 65.4058 54.6328 65.4058 52.4984C65.4058 50.364 67.136 48.6338 69.2703 48.6338Z" fill="#F8AC92"/>
<path d="M69.3958 48.9017C69.5145 48.9021 69.6302 48.9075 69.7484 48.918C69.9025 48.9283 69.8486 48.7188 69.8042 48.6342C69.7561 48.5379 69.6324 48.3896 69.5197 48.3825C69.3241 48.3652 69.128 48.36 68.9319 48.3709C68.785 48.3814 68.8625 48.6081 68.9109 48.6864C68.9626 48.7737 69.0856 48.9143 69.196 48.907C69.2615 48.9024 69.3301 48.9019 69.3958 48.9017V48.9017ZM68.2431 49.0816C68.3674 49.0435 68.2751 48.8247 68.2289 48.7521C68.1777 48.6693 68.0392 48.5212 67.9312 48.5544C67.8281 48.5873 67.7277 48.6248 67.6275 48.6659C67.5046 48.7171 67.6128 48.9488 67.6676 49.0219C67.7165 49.0952 67.8563 49.2284 67.9521 49.1885C68.0481 49.1492 68.1443 49.1132 68.2431 49.0816V49.0816ZM67.159 49.6368C67.2673 49.5502 67.1308 49.3079 67.0559 49.233C67.0065 49.1775 66.8742 49.0747 66.8014 49.1328C66.7168 49.1948 66.6338 49.2614 66.5547 49.3303C66.4046 49.4654 66.761 49.9554 66.9226 49.8261C66.9957 49.7605 67.0797 49.695 67.159 49.6368ZM66.3029 50.5123C66.3844 50.4003 66.2318 50.1676 66.1441 50.0903C66.0881 50.0408 65.9678 49.9649 65.909 50.0459C65.8538 50.1217 65.769 50.2461 65.7279 50.3283C65.6555 50.4524 65.8146 50.6863 65.9142 50.7625C65.9702 50.8085 66.0831 50.8615 66.1306 50.7811C66.1837 50.6911 66.2415 50.5968 66.3029 50.5123V50.5123ZM65.909 50.0459L65.7279 50.3283L66.1308 50.7807L65.909 50.0459ZM65.7428 51.7197C65.7963 51.5191 65.4613 51.1434 65.3387 51.2814C65.3273 51.2957 65.3219 51.3067 65.3173 51.3243C65.2843 51.454 65.2571 51.5823 65.2363 51.7147C65.2033 51.9789 65.6205 52.3333 65.6678 52.0811C65.6871 51.9586 65.7123 51.84 65.7428 51.7197ZM65.6859 53.3243C65.6614 53.1956 65.5597 53.054 65.449 52.9864C65.3197 52.9103 65.2326 52.9709 65.2608 53.1188C65.2968 53.3093 65.3466 53.4979 65.4086 53.6816C65.453 53.8039 65.6036 54.0223 65.7525 53.9994C65.8477 53.9775 65.8293 53.8573 65.806 53.7843C65.7553 53.6344 65.7153 53.4797 65.6859 53.3243V53.3243ZM66.6113 55.0761C66.5285 54.9979 66.3579 54.899 66.3357 55.0771C66.3289 55.192 66.4137 55.3393 66.4949 55.4161C66.6426 55.5637 66.8104 55.7067 66.979 55.8298C67.1771 55.9728 67.2517 55.8039 67.1638 55.6193C67.1291 55.5382 67.0578 55.4483 66.9873 55.3973C66.8549 55.2985 66.7282 55.1929 66.6113 55.0761ZM68.1616 55.9635C67.9 55.902 68.0717 56.4112 68.336 56.489C68.4707 56.5263 68.6069 56.5548 68.7447 56.578C68.9934 56.6091 68.7916 56.0931 68.5358 56.0452C68.4091 56.0231 68.2857 55.9978 68.1616 55.9635V55.9635ZM69.58 56.0695C69.4337 56.0904 69.5251 56.3196 69.5723 56.3958C69.6209 56.4781 69.7524 56.6192 69.8569 56.6044C69.9706 56.5916 70.0824 56.5729 70.1946 56.5505C70.3369 56.5177 70.233 56.2736 70.1766 56.1985C70.1265 56.1232 70.0002 55.9971 69.9018 56.0182C69.7955 56.0398 69.6879 56.0574 69.58 56.0695ZM70.7859 55.7189C70.6737 55.7751 70.7714 55.9899 70.8238 56.0633C70.8739 56.1385 71.0209 56.2868 71.1196 56.2375C71.2146 56.1917 71.308 56.1413 71.3989 56.088C71.5151 56.0141 71.3872 55.7752 71.3203 55.7C71.2698 55.64 71.1369 55.5228 71.0546 55.5752C70.9663 55.6264 70.8778 55.6747 70.7859 55.7189V55.7189ZM71.777 55.0243C71.691 55.1103 71.7993 55.3163 71.8634 55.3923C71.9151 55.4569 72.07 55.5954 72.151 55.5144C72.2266 55.4407 72.3027 55.3621 72.3714 55.2819C72.4573 55.1865 72.3264 54.9648 72.2543 54.8885C72.2008 54.8283 72.0602 54.7216 71.9883 54.8015C71.9202 54.8787 71.8507 54.9524 71.777 55.0243V55.0243ZM72.5201 54.0125C72.4256 54.2172 72.8184 54.6439 72.9272 54.4574C72.9806 54.3505 73.0294 54.2425 73.0734 54.1314C73.129 53.9758 72.9377 53.7058 72.789 53.6593C72.7366 53.643 72.6782 53.6479 72.6574 53.7063C72.6154 53.8112 72.5705 53.9113 72.5201 54.0125V54.0125ZM72.9049 52.6444C72.8954 52.8073 73.0898 53.0948 73.2608 53.0817C73.3123 53.0737 73.3365 53.0351 73.3394 52.9841C73.3512 52.8339 73.356 52.6817 73.3509 52.531C73.3427 52.3758 73.1635 52.1035 72.9962 52.1164C72.9349 52.1258 72.9124 52.1765 72.9156 52.2369C72.9197 52.3731 72.9156 52.5087 72.9049 52.6444V52.6444ZM72.6044 50.8832C72.6542 50.9929 72.812 51.1932 72.9474 51.148C73.0378 51.107 72.9956 50.9607 72.9637 50.8905C72.8656 50.6774 72.7526 50.4758 72.6229 50.2804C72.5701 50.1975 72.3664 49.9954 72.2848 50.1352C72.2405 50.2238 72.3049 50.3575 72.3541 50.4348C72.4503 50.5805 72.5304 50.725 72.6044 50.8832ZM71.2759 49.4144C71.3516 49.4607 71.4464 49.4676 71.4657 49.3648C71.4862 49.2109 71.3508 49.0197 71.2248 48.9427C71.0764 48.8543 70.9242 48.7758 70.7662 48.7061C70.6775 48.6667 70.6052 48.6998 70.6052 48.802C70.6052 48.9522 70.7438 49.1495 70.8798 49.2099C71.017 49.2712 71.1468 49.3374 71.2759 49.4144V49.4144Z" fill="black"/>
<path fill-rule="evenodd" clip-rule="evenodd" d="M100.251 54.3854C101.165 54.4249 101.831 56.1854 101.739 58.3178C101.647 60.4502 100.832 62.1469 99.9181 62.1075C99.0042 62.0681 98.3379 60.3076 98.4298 58.1752C98.5217 56.0428 99.337 54.3461 100.251 54.3854Z" fill="#F8AC92"/>
<path d="M100.131 54.1175C99.9949 54.1084 100.033 54.298 100.068 54.3765C100.117 54.4876 100.244 54.6464 100.371 54.6548C100.48 54.6605 100.577 54.6917 100.668 54.7517C100.839 54.8658 100.913 54.7235 100.848 54.5606C100.815 54.46 100.727 54.3507 100.64 54.2929C100.486 54.1919 100.316 54.1266 100.131 54.1175V54.1175ZM99.812 54.8799C99.9638 54.7433 99.6063 54.2537 99.4461 54.3818C99.3623 54.4533 99.2874 54.5321 99.2174 54.617C99.1245 54.7333 99.2947 54.9872 99.3932 55.0625C99.4449 55.1051 99.5512 55.1598 99.6037 55.0943C99.6653 55.0179 99.7372 54.9436 99.812 54.8799ZM99.1253 55.9391C99.2062 55.7125 98.799 55.3045 98.7102 55.5118C98.665 55.6241 98.6224 55.7386 98.585 55.8538C98.5152 56.0492 98.8728 56.4576 98.9932 56.2921C98.9988 56.2832 99.0017 56.2764 99.0053 56.2666C99.0422 56.1559 99.0817 56.0474 99.1253 55.9391V55.9391ZM98.7466 57.3482C98.7755 57.1945 98.591 56.937 98.4427 56.8999C98.3744 56.8817 98.3288 56.9108 98.3159 56.979C98.2961 57.1149 98.2765 57.248 98.2608 57.3846C98.2419 57.5451 98.4458 57.8425 98.6132 57.8296C98.6649 57.8222 98.6877 57.7886 98.6936 57.738C98.7085 57.6068 98.7276 57.4786 98.7466 57.3482ZM98.6432 58.9885C98.6348 58.8296 98.4632 58.5731 98.2936 58.5731C98.2295 58.5781 98.205 58.6342 98.2082 58.6949C98.2128 58.8521 98.2224 59.009 98.2356 59.1656C98.2509 59.3188 98.4244 59.5801 98.5921 59.5673C98.6564 59.5574 98.6755 59.4938 98.669 59.4332C98.656 59.2856 98.6474 59.1365 98.6432 58.9885V58.9885ZM98.9451 60.8377C98.9005 60.715 98.7633 60.519 98.62 60.519C98.506 60.5272 98.5229 60.6566 98.5489 60.738C98.6177 60.9446 98.7068 61.1571 98.8092 61.3493C98.8613 61.4448 98.9576 61.5604 99.0656 61.5873C99.2472 61.6214 99.1919 61.3938 99.1386 61.2961C99.0621 61.151 98.9969 60.9933 98.9451 60.8377V60.8377ZM99.9623 61.8246C99.8256 61.8562 99.9252 62.0946 99.9766 62.1682C100.029 62.2469 100.155 62.381 100.26 62.357C100.366 62.3336 100.484 62.283 100.574 62.2229C100.684 62.1527 100.563 61.9232 100.504 61.8488C100.451 61.7825 100.314 61.6553 100.225 61.7123C100.15 61.7625 100.051 61.805 99.9623 61.8246V61.8246ZM100.818 61.0261C100.753 61.1386 100.889 61.3638 100.978 61.4378C101.035 61.4915 101.167 61.5719 101.222 61.4781C101.279 61.3767 101.33 61.2737 101.379 61.168C101.44 61.0352 101.28 60.8004 101.17 60.7273C101.11 60.685 101.007 60.6465 100.968 60.7312C100.922 60.8318 100.873 60.9296 100.818 61.0261ZM101.306 59.728C101.253 59.9269 101.592 60.3128 101.715 60.1596C101.724 60.1451 101.728 60.1374 101.732 60.1206C101.762 59.9958 101.793 59.8644 101.814 59.7381C101.845 59.5726 101.616 59.2421 101.446 59.2845C101.41 59.2967 101.392 59.3234 101.385 59.3608C101.359 59.4841 101.336 59.6052 101.306 59.728V59.728ZM101.521 58.1736C101.512 58.3321 101.709 58.6183 101.877 58.6053C101.932 58.5968 101.953 58.5548 101.956 58.5011C101.962 58.3534 101.966 58.2061 101.965 58.0582C101.965 57.9012 101.761 57.5977 101.593 57.6397C101.545 57.6557 101.53 57.701 101.53 57.7503C101.531 57.8916 101.527 58.0324 101.521 58.1736V58.1736ZM101.413 56.402C101.44 56.5436 101.605 56.787 101.763 56.7748C101.843 56.7635 101.852 56.6798 101.838 56.6114C101.805 56.4309 101.766 56.2545 101.718 56.0772C101.682 55.9457 101.52 55.7113 101.365 55.735C101.282 55.7542 101.288 55.8584 101.306 55.9263C101.349 56.0835 101.384 56.2417 101.413 56.402V56.402Z" fill="black"/>
<path fill-rule="evenodd" clip-rule="evenodd" d="M111.122 19.4428C113.32 20.0457 114.793 21.6629 114.411 23.055C114.029 24.447 111.938 25.0866 109.739 24.4837C107.541 23.8808 106.068 22.2636 106.45 20.8716C106.832 19.4795 108.924 18.8399 111.122 19.4428V19.4428Z" fill="#FFDD21"/>
<path fill-rule="evenodd" clip-rule="evenodd" d="M111.679 20.0898C112.565 20.0898 113.283 20.8079 113.283 21.6937C113.283 22.5795 112.565 23.2976 111.679 23.2976C110.793 23.2976 110.075 22.5795 110.075 21.6937C110.075 20.8079 110.793 20.0898 111.679 20.0898Z" fill="#FFF8AF"/>
<path d="M111.617 19.9561C112.088 19.9561 112.522 20.1547 112.843 20.4757C113.182 20.8143 113.392 21.2729 113.392 21.7707C113.392 22.2336 113.206 22.6505 112.907 22.9499C112.61 23.2472 112.198 23.4311 111.742 23.4311C111.271 23.4311 110.836 23.2325 110.515 22.9114C110.176 22.5728 109.967 22.1142 109.967 21.6163C109.967 21.1534 110.152 20.7365 110.451 20.4372C110.749 20.1401 111.161 19.9561 111.617 19.9561V19.9561ZM112.783 20.6432C112.524 20.3839 112.156 20.2234 111.742 20.2234C111.312 20.2234 110.922 20.3986 110.639 20.6817C110.358 20.9626 110.184 21.3479 110.184 21.7707C110.184 22.1586 110.334 22.5022 110.575 22.7439C110.835 23.0032 111.202 23.1638 111.617 23.1638C112.046 23.1638 112.436 22.9886 112.72 22.7054C113.001 22.4244 113.174 22.0391 113.174 21.6163C113.174 21.2285 113.025 20.8849 112.783 20.6432V20.6432Z" fill="black"/>
</g>
<defs>
<clipPath id="clip0_0_782">
<rect width="112" height="120" fill="white" transform="translate(8)"/>
</clipPath>
</defs>
</svg>
