<svg xmlns="http://www.w3.org/2000/svg" xmlns:xlink="http://www.w3.org/1999/xlink" width="57" height="64" viewBox="0 0 57 64">
    <defs>
        <filter id="xduy1tx49a" width="180.8%" height="168.2%" x="-40.4%" y="-34.1%" filterUnits="objectBoundingBox">
            <feOffset in="SourceAlpha" result="shadowOffsetOuter1"/>
            <feGaussianBlur in="shadowOffsetOuter1" result="shadowBlurOuter1" stdDeviation="5"/>
            <feColorMatrix in="shadowBlurOuter1" values="0 0 0 0 0 0 0 0 0 0 0 0 0 0 0 0 0 0 0.5 0"/>
        </filter>
        <path id="knxaukig0b" d="M373.512 67.031v.006h9.493c.536-.001.84-.26.842-.76.007-2.115.007-4.231 0-6.348 0-.42-.306-.715-.724-.738-.13-.007-.264-.004-.396-.004-5.865 0-11.731-.005-17.597.01-.61.001-1.213-.054-1.841.203-.504.206-.978.448-1.353.79-.272.248-.629.516-.699.952-.01.059-.073.107-.106.163-.06.097-.125.192-.169.296-.054.128-.088.265-.136.397-.052.146-.149.289-.157.435-.021.443-.014.888-.004 1.332.002.127.043.258.088.38.055.145.13.28.198.42.06.119.128.234.187.352.05.1.095.203.14.305.027.058.032.134.074.176.148.148.336.265.46.43.217.294.485.501.832.608.034.011.083.033.092.06.074.236.284.21.461.248.064.013.158.003.188.043.22.29.538.241.833.242 3.098.004 6.196.002 9.294.002M361.611 27.76h27.43c.07.094.119.24.21.275.393.148.804.245 1.194.401.178.072.329.226.474.362.159.152.29.332.445.489.15.15.321.278.466.431.12.127.237.267.323.418.148.262.24.56.415.8.172.236.25.479.263.758.003.062.02.137.06.183.185.216.22.47.218.74-.003.294.012.587.012.879l-.001 19.976c0 .348-.01.698-.023 1.048-.002.073 0 .175-.044.214-.236.207-.21.492-.252.757-.014.082-.03.168-.068.241-.18.342-.36.684-.555 1.016-.111.188-.242.368-.386.532-.151.171-.328.318-.494.477-.157.15-.293.33-.473.445-.255.161-.57.237-.804.418-.366.281-.854.248-1.216.55-.179.149-.328.255-.327.503.001 2.22-.003 4.438 0 6.659.001.401.304.696.714.703.623.01 1.247.036 1.869.004.414-.022.665.333 1.04.372.014.001.024.027.036.041.179.2.373.39.532.604.16.218.286.46.425.693.01.015.007.037.007.056-.002.349.004.698-.012 1.047-.005.093-.075.185-.122.274-.044.087-.097.17-.147.253-.142.242-.244.526-.438.714-.191.188-.54.226-.702.425-.188.232-.386.218-.612.218-8.905.003-17.81.008-26.716-.007-.55-.002-1.117.157-1.672-.228-.29-.201-.767-.121-1.13-.344-.196-.122-.536.033-.659-.301-.008-.025-.087-.021-.13-.038-.106-.039-.218-.069-.315-.124-.306-.176-.608-.361-.91-.544-.039-.024-.078-.05-.11-.083-.151-.157-.292-.326-.452-.474-.16-.148-.36-.257-.505-.418-.243-.272-.43-.595-.685-.853-.256-.26-.454-.535-.548-.886-.013-.05-.06-.092-.088-.138-.168-.28-.379-.542-.489-.843-.096-.266-.132-.54-.26-.812-.19-.405-.278-.87-.337-1.319-.064-.484-.06-.98-.06-1.47-.003-9.256-.002-18.511-.001-27.767 0-.377.01-.756.025-1.133.006-.13-.002-.294.07-.384.225-.282.194-.618.254-.936.008-.046.013-.095.034-.136.28-.546.566-1.089.846-1.636.038-.073.032-.176.082-.233.265-.294.54-.58.815-.866.137-.142.263-.299.42-.417.22-.166.465-.305.7-.453.266-.165.517-.373.804-.481.421-.161.867-.264 1.308-.363.18-.04.28-.093.252-.29"/>
    </defs>
    <g fill="none" fill-rule="evenodd" transform="translate(-346 -18)">
        <use fill="#000" filter="url(#xduy1tx49a)" xlink:href="#knxaukig0b"/>
        <use fill="#FFF" xlink:href="#knxaukig0b"/>
    </g>
</svg>
