<svg xmlns="http://www.w3.org/2000/svg" xmlns:xlink="http://www.w3.org/1999/xlink" width="64" height="63" viewBox="0 0 64 63">
    <defs>
        <filter id="pl0dmg3tya" width="168.6%" height="169.9%" x="-34.3%" y="-34.9%" filterUnits="objectBoundingBox">
            <feOffset in="SourceAlpha" result="shadowOffsetOuter1"/>
            <feGaussianBlur in="shadowOffsetOuter1" result="shadowBlurOuter1" stdDeviation="5"/>
            <feColorMatrix in="shadowBlurOuter1" values="0 0 0 0 0 0 0 0 0 0 0 0 0 0 0 0 0 0 0.5 0"/>
        </filter>
        <path id="55wzaelcsb" d="M142.057 39.56c-1.69-.017-3.168.526-4.404 1.65-.8.727-1.277 1.676-1.611 2.67-.178.53-.236 1.123-.223 1.684.06 2.543 1.153 4.47 3.533 5.63.843.409 1.741.568 2.64.552 2.576-.048 4.518-1.193 5.671-3.49.408-.811.515-1.71.543-2.617.051-1.67-.602-3.083-1.692-4.293-.734-.814-1.73-1.304-2.793-1.59-.533-.145-1.108-.136-1.664-.197m-14.114 5.85c.01-1.61-.708-2.938-1.736-4.086-.73-.817-1.749-1.303-2.818-1.585-.552-.146-1.152-.16-1.73-.162-1.657-.01-3.123.541-4.329 1.65-.791.729-1.274 1.695-1.602 2.69-.288.87-.211 1.807-.112 2.716.14 1.298.75 2.42 1.631 3.345.718.752 1.684 1.236 2.682 1.553.928.294 1.915.215 2.875.127 1.309-.12 2.387-.807 3.328-1.618.819-.704 1.299-1.709 1.591-2.741.171-.603.153-1.258.22-1.89m14.196 25.539h-20.535c-.027-.281-.271-.245-.452-.289-.156-.037-.34-.005-.475-.074-.284-.144-.53-.36-.815-.501-.615-.304-.96-.873-1.362-1.367-.205-.252-.457-.571-.402-.97.006-.048-.038-.103-.056-.155-.067-.187-.188-.374-.19-.562-.02-1.574-.015-3.147-.025-4.721-.004-.601.11-.535-.558-.579-.3-.02-.603-.067-.898-.127-.19-.038-.369-.126-.555-.185-.406-.124-.813-.242-1.219-.368-.05-.016-.09-.069-.137-.096-.078-.043-.16-.08-.24-.121-.259-.132-.53-.244-.773-.4-.247-.158-.465-.359-.697-.541-.172-.135-.365-.25-.51-.407-.214-.234-.401-.493-.585-.75-.144-.203-.27-.419-.398-.632-.135-.225-.264-.455-.396-.683-.073-.127-.17-.247-.213-.383-.133-.428-.386-.824-.37-1.294.001-.033-.019-.086-.045-.099-.213-.097-.172-.29-.18-.46-.012-.225-.022-.45-.022-.675-.004-3.972-.024-7.944.002-11.915.007-1.019-.174-2.05.246-3.063.192-.459.024-1.024.314-1.512.154-.26.012-.66.34-.88.016-.011.014-.053.016-.08.01-.243.03-.478.235-.659.05-.044.06-.135.089-.204.116-.28.199-.58.36-.833.226-.358.507-.684.633-1.097.01-.034.039-.063.062-.092.176-.226.35-.455.531-.677.236-.29.472-.583.721-.863.149-.168.326-.311.486-.469.152-.15.295-.312.452-.46.16-.15.33-.291.5-.431.213-.176.423-.355.646-.517.196-.143.407-.266.613-.397.264-.168.52-.353.797-.498.292-.151.605-.263.91-.392.025-.012.049-.028.07-.045.315-.241.673-.4 1.055-.496.441-.112.835-.374 1.306-.39.05-.002.097-.056.149-.079.108-.047.214-.112.327-.13.31-.051.684.01.92-.143.32-.208.63-.172.947-.172 5.643-.01 11.286-.012 16.93-.014.58 0 1.162.01 1.743.017.094.002.224-.013.276.038.252.255.585.183.884.244.166.034.371 0 .498.084.452.303 1.012.28 1.485.524.306.159.653.242.982.36.016.005.024.029.04.038.29.165.578.337.874.492.297.156.603.295.904.442.016.008.024.03.038.041.165.14.324.286.496.418.288.224.586.437.877.658.095.074.174.167.268.243.169.137.35.262.514.406.14.122.27.257.392.397.143.165.24.381.412.503.266.191.41.453.567.715.032.053.056.112.095.16.15.182.33.345.453.542.166.264.29.553.433.83.013.025.032.046.045.07.17.323.34.644.504.969.155.309.377.595.354.969-.002.02.04.04.05.065.074.165.158.327.214.498.05.16.025.36.116.486.23.318.183.673.223 1.022.024.217.092.433.149.646.03.111.108.216.113.327.03.559.045 1.12.064 1.68v12.087c-.022.446-.042.894-.07 1.342-.004.08-.01.203-.059.23-.232.13-.178.35-.216.546-.03.15-.068.302-.119.448-.046.129-.115.25-.173.376-.14.3-.266.612-.425.903-.15.275-.325.536-.508.79-.228.318-.467.63-.715.932-.098.12-.22.228-.349.313-.376.252-.758.499-1.147.731-.32.191-.641.398-.988.526-.432.158-.892.24-1.34.356-.045.012-.09.028-.134.043-.193.063-.384.147-.582.184-.214.04-.437.054-.654.044-.29-.012-.366.099-.364.378.008 1.639-.001 3.276-.013 4.913-.001.153-.058.308-.105.458-.052.163-.117.324-.188.48-.121.271-.23.55-.386.8-.118.189-.318.326-.453.506-.38.509-.837.91-1.462 1.103-.052.016-.094.06-.143.087-.106.058-.21.133-.323.165-.155.043-.328.027-.474.085-.092.034-.15.155-.222.237"/>
    </defs>
    <g fill="none" fill-rule="evenodd" transform="translate(-100 -18)">
        <use fill="#000" filter="url(#pl0dmg3tya)" xlink:href="#55wzaelcsb"/>
        <use fill="#FFF" xlink:href="#55wzaelcsb"/>
    </g>
</svg>
