<svg width="348" height="215" viewBox="0 0 348 215" fill="none" xmlns="http://www.w3.org/2000/svg">
<mask id="mask0" style="mask-type:alpha" maskUnits="userSpaceOnUse" x="130" y="0" width="184" height="164">
<path fill-rule="evenodd" clip-rule="evenodd" d="M170.347 0L313.922 52.2573L273.576 163.109L130 110.852L170.347 0Z" fill="white"/>
</mask>
<g mask="url(#mask0)">
<path fill-rule="evenodd" clip-rule="evenodd" d="M297.286 97.9645C287.45 85.58 275.799 78.5247 259.53 83.677C259.335 83.3367 259.174 83.131 259.089 82.8979C257.219 77.6917 253.345 74.9369 248.062 73.8975C240.82 72.4718 233.517 71.2954 226.352 69.5525C218.174 67.563 211.901 63.1171 209.921 54.337C209.441 52.2076 209.191 49.9874 209.162 47.805C209.11 43.9326 209.315 40.0574 209.401 36.183C209.528 30.4262 207.698 25.4022 203.82 21.0937C198.982 15.7198 192.701 13.0073 185.93 11.0731C184.803 10.7506 183.64 9.95308 182.884 9.04947C181.332 7.19366 180.044 5.11758 178.543 2.98291L163.759 43.6006C165.862 44.3659 167.808 45.0631 169.745 45.7826C171.596 46.4702 173.201 46.0253 174.572 44.7107C175.784 43.5483 176.783 42.112 178.135 41.1618C179.846 39.9584 181.717 38.7343 183.702 38.2214C186.77 37.4285 189.031 39.6064 188.501 42.7369C188.199 44.5201 187.431 46.3571 186.419 47.866C176.413 62.7742 166.312 77.6196 156.23 92.4765C155.933 92.9149 155.536 93.2857 154.739 94.2027C152.716 89.2093 150.885 84.6894 148.993 80.0184C146.335 80.5664 143.455 81.1604 140.592 81.7506C140.633 82.2112 140.629 82.4054 140.669 82.5901C140.794 83.1583 140.919 83.7274 141.071 84.2891C144.508 96.9962 151.95 107.092 161.813 115.531C173.155 125.233 186.197 131.839 200.382 136.342C214.293 140.757 228.496 142.952 243.089 142.172C254.093 141.584 264.654 139.266 274.266 133.61C275.238 133.038 276.15 132.365 277.16 131.692C275.326 129.125 273.643 126.77 271.886 124.311C267.662 127.09 263.258 129.151 258.155 130.52C258.818 117.825 259.464 105.441 260.122 92.838C272.168 95.3196 278.422 103.934 284.053 113.603C288.551 108.287 292.872 103.182 297.286 97.9645Z" fill="white"/>
</g>
<mask id="mask1" style="mask-type:alpha" maskUnits="userSpaceOnUse" x="130" y="0" width="184" height="164">
<path fill-rule="evenodd" clip-rule="evenodd" d="M170.347 0.000244141L313.922 52.2575L273.576 163.109L130 110.852L170.347 0.000244141Z" fill="white"/>
</mask>
<g mask="url(#mask1)">
<path fill-rule="evenodd" clip-rule="evenodd" d="M239.137 126.551C239.263 125.732 239.368 125.179 239.429 124.621C240.203 117.564 240.773 110.476 241.828 103.461C242.308 100.265 241.349 98.5678 238.681 96.9418C229.988 91.6418 221.413 90.5686 212.728 96.769C212.646 96.8276 212.489 96.7806 212.274 96.7848C210.876 91.2526 208.157 86.6356 202.767 83.5526L199.533 92.4382C198.731 91.1397 198.11 90.1329 197.475 89.1053C196.268 89.544 195.218 89.9254 193.683 90.4835L197.148 80.9617C194.493 80.5678 192.141 80.2439 189.8 79.8616C188.489 79.6478 187.683 80.0848 186.93 81.2308C182.89 87.3808 178.747 93.4637 174.654 99.5793C174.066 100.457 173.557 101.388 172.952 102.392C173.491 102.588 173.78 102.726 174.084 102.799C185.924 105.644 194.973 112.484 201.901 122.29C202.631 123.324 203.2 123.342 204.276 123.051C215.006 120.148 225.55 120.773 235.868 124.963C236.921 125.39 237.918 125.954 239.137 126.551ZM297.286 97.9646C292.872 103.182 288.551 108.288 284.054 113.603C278.422 103.935 272.168 95.3201 260.122 92.8385C259.465 105.441 258.818 117.825 258.155 130.521C263.258 129.151 267.662 127.09 271.886 124.311C273.643 126.77 275.326 129.125 277.16 131.692C276.151 132.365 275.238 133.038 274.266 133.61C264.655 139.266 254.094 141.584 243.089 142.172C228.496 142.952 214.294 140.757 200.382 136.342C186.197 131.839 173.156 125.233 161.814 115.531C151.95 107.092 144.508 96.9963 141.071 84.2892C140.92 83.7276 140.794 83.1584 140.67 82.5904C140.63 82.4055 140.633 82.2113 140.592 81.7507C143.455 81.1605 146.335 80.5665 148.993 80.0185C150.885 84.6896 152.716 89.2095 154.739 94.2028C155.537 93.2858 155.933 92.915 156.23 92.4771C166.312 77.6198 176.413 62.7747 186.419 47.8662C187.432 46.3574 188.199 44.5202 188.501 42.737C189.032 39.6065 186.77 37.4287 183.702 38.2216C181.717 38.7344 179.846 39.9586 178.135 41.1619C176.784 42.1121 175.784 43.5484 174.572 44.7109C173.202 46.0254 171.596 46.4708 169.745 45.7827C167.808 45.0632 165.862 44.3664 163.76 43.6013L178.543 2.98353C180.045 5.11784 181.332 7.19379 182.885 9.04959C183.64 9.9532 184.803 10.7508 185.931 11.0732C192.701 13.0079 198.982 15.7199 203.82 21.0938C207.698 25.4023 209.529 30.4263 209.401 36.1832C209.315 40.0575 209.111 43.9327 209.162 47.8051C209.192 49.9877 209.441 52.2078 209.921 54.3372C211.901 63.1172 218.174 67.5632 226.352 69.5526C233.518 71.2957 240.82 72.472 248.063 73.8976C253.345 74.937 257.219 77.6918 259.09 82.8982C259.174 83.1311 259.335 83.3369 259.53 83.6772C275.799 78.5248 287.451 85.5801 297.286 97.9646Z" fill="#F13A5E"/>
</g>
<path fill-rule="evenodd" clip-rule="evenodd" d="M239.448 125.916C238.238 125.321 237.248 124.758 236.202 124.333C225.952 120.164 215.462 119.586 204.768 122.561C203.696 122.859 203.13 122.843 202.408 121.806C195.56 111.967 186.587 105.124 174.817 102.317C174.514 102.245 174.227 102.107 173.692 101.912C174.299 100.898 174.81 99.959 175.399 99.0725C179.503 92.8956 183.656 86.7515 187.706 80.5403C188.461 79.3829 189.265 78.939 190.569 79.148C192.897 79.5215 195.237 79.8363 197.877 80.22L194.382 89.8231C195.913 89.2539 196.959 88.8648 198.163 88.4173C198.79 89.4488 199.404 90.4594 200.196 91.7629L203.457 82.8013C208.806 85.8793 211.491 90.5144 212.856 96.0774C213.069 96.0722 213.225 96.1187 213.307 96.0593C221.981 89.775 230.511 90.8141 239.137 96.1081C241.784 97.7322 242.731 99.4366 242.237 102.656C241.154 109.724 240.552 116.863 239.748 123.972C239.684 124.534 239.577 125.091 239.448 125.916Z" fill="white"/>
<path d="M79.726 163.592H70.624V150.642H105.108V163.592H96.006V200H79.726V163.592ZM107.685 150.642H124.409V200H107.685V150.642ZM128.471 175.358C128.471 171.411 129.162 167.859 130.543 164.702C131.925 161.495 133.799 158.757 136.167 156.488C138.535 154.219 141.298 152.492 144.455 151.308C147.613 150.075 150.967 149.458 154.519 149.458C157.331 149.458 159.823 149.729 161.993 150.272C164.213 150.815 166.113 151.431 167.691 152.122C169.517 152.911 171.095 153.775 172.427 154.712L164.657 168.402C163.868 167.81 163.005 167.243 162.067 166.7C161.229 166.305 160.217 165.935 159.033 165.59C157.899 165.195 156.591 164.998 155.111 164.998C153.582 164.998 152.176 165.269 150.893 165.812C149.611 166.355 148.476 167.095 147.489 168.032C146.552 168.969 145.812 170.079 145.269 171.362C144.727 172.595 144.455 173.927 144.455 175.358C144.455 176.789 144.727 178.145 145.269 179.428C145.861 180.661 146.651 181.747 147.637 182.684C148.624 183.621 149.783 184.361 151.115 184.904C152.447 185.447 153.903 185.718 155.481 185.718C157.06 185.718 158.466 185.521 159.699 185.126C160.933 184.731 161.969 184.287 162.807 183.794C163.794 183.251 164.657 182.61 165.397 181.87L173.167 195.56C171.835 196.645 170.257 197.607 168.431 198.446C166.853 199.137 164.953 199.778 162.733 200.37C160.513 200.962 157.973 201.258 155.111 201.258C151.263 201.258 147.711 200.641 144.455 199.408C141.199 198.125 138.387 196.349 136.019 194.08C133.651 191.811 131.801 189.097 130.469 185.94C129.137 182.733 128.471 179.206 128.471 175.358ZM169.518 175.358C169.518 171.806 170.184 168.451 171.516 165.294C172.897 162.137 174.747 159.399 177.066 157.08C179.434 154.712 182.197 152.862 185.354 151.53C188.511 150.149 191.866 149.458 195.418 149.458C198.97 149.458 202.325 150.149 205.482 151.53C208.639 152.862 211.377 154.712 213.696 157.08C216.064 159.399 217.914 162.137 219.246 165.294C220.627 168.451 221.318 171.806 221.318 175.358C221.318 178.91 220.627 182.265 219.246 185.422C217.914 188.579 216.064 191.342 213.696 193.71C211.377 196.029 208.639 197.879 205.482 199.26C202.325 200.592 198.97 201.258 195.418 201.258C191.866 201.258 188.511 200.592 185.354 199.26C182.197 197.879 179.434 196.029 177.066 193.71C174.747 191.342 172.897 188.579 171.516 185.422C170.184 182.265 169.518 178.91 169.518 175.358ZM185.058 175.358C185.058 176.789 185.329 178.145 185.872 179.428C186.415 180.661 187.155 181.747 188.092 182.684C189.029 183.621 190.115 184.361 191.348 184.904C192.631 185.447 193.987 185.718 195.418 185.718C196.849 185.718 198.181 185.447 199.414 184.904C200.697 184.361 201.807 183.621 202.744 182.684C203.681 181.747 204.421 180.661 204.964 179.428C205.507 178.145 205.778 176.789 205.778 175.358C205.778 173.927 205.507 172.595 204.964 171.362C204.421 170.079 203.681 168.969 202.744 168.032C201.807 167.095 200.697 166.355 199.414 165.812C198.181 165.269 196.849 164.998 195.418 164.998C193.987 164.998 192.631 165.269 191.348 165.812C190.115 166.355 189.029 167.095 188.092 168.032C187.155 168.969 186.415 170.079 185.872 171.362C185.329 172.595 185.058 173.927 185.058 175.358ZM225.405 150.642H241.833V187.05H255.449V200H225.405V150.642ZM258.069 150.642H274.793V200H258.069V150.642Z" fill="#F13A5E"/>
</svg>
