<svg xmlns="http://www.w3.org/2000/svg" xmlns:xlink="http://www.w3.org/1999/xlink" width="62" height="64" viewBox="0 0 62 64">
    <defs>
        <filter id="kyfyhd2p4a" width="168.5%" height="168.2%" x="-34.2%" y="-34.1%" filterUnits="objectBoundingBox">
            <feOffset in="SourceAlpha" result="shadowOffsetOuter1"/>
            <feGaussianBlur in="shadowOffsetOuter1" result="shadowBlurOuter1" stdDeviation="5"/>
            <feColorMatrix in="shadowBlurOuter1" values="0 0 0 0 0 0 0 0 0 0 0 0 0 0 0 0 0 0 0.5 0"/>
        </filter>
        <path id="2637j4c2db" d="M638.744 67.273c.357.235.698.588.77 1.096.004.028.013.064.032.082.505.462.23 1.063.204 1.59-.013.26-.313.51-.493.756-.139.19-.288.37-.443.544-.04.047-.117.057-.17.093-.131.087-.257.186-.391.268-.06.038-.136.063-.206.065-.267.013-.535.018-.802.018h-38.592c-.124 0-.255-.027-.37.004-.49.131-.88-.173-1.202-.422-.318-.247-.726-.527-.774-1.042-.002-.029-.01-.073-.03-.082-.375-.198-.22-.568-.248-.873-.019-.188.01-.38.018-.57.003-.051-.005-.112.018-.15.155-.255.356-.487.466-.761.108-.265.358-.364.484-.589.005-.009.011-.018.02-.021.324-.142.641-.31.976-.414.194-.06.417-.023.627-.023l38.564-.001c.105 0 .213.018.315-.002.484-.095.875.203 1.227.434zm-1.69-13.451c.53-.001 1.003.179 1.452.369.472.199.752.683 1.045 1.165.298.492.232.94.227 1.415-.002.217-.183.424-.232.649-.09.4-.328.693-.615.915-.29.222-.575.483-.994.454-.407-.028-.82.03-1.23.03-4.7.003-9.397.001-14.097.001h-14.24c-.352-.001-.707-.052-1.058-.03-.548.035-.915-.331-1.25-.671-.194-.198-.328-.515-.448-.82-.17-.439-.231-.86-.162-1.292.05-.32.215-.622.343-.927.068-.16.166-.306.252-.458.014-.026.027-.058.048-.073.205-.132.397-.326.619-.377.485-.112.929-.352 1.459-.351 9.626.02 19.253.02 28.88 0zm-.173-13c.391 0 .783.009 1.174.029.207.01.451-.05.56.242.011.031.082.048.128.053.272.025.401.193.488.461.071.223.182.45.33.622.273.315.23.688.24 1.056.005.192-.011.386-.022.58-.004.06.002.144-.032.175-.291.275-.418.66-.609 1.002-.025.046-.082.077-.131.101-.041.02-.114.007-.135.038-.253.375-.69.349-1.032.526-.17.09-.387.107-.583.107-4.881.006-9.762.006-14.643.006-4.872 0-9.744.008-14.614-.016-.44-.002-.92-.122-1.307-.34-.452-.253-.787-.666-1.048-1.198-.252-.513-.232-.989-.18-1.483.04-.371.22-.707.435-1.037.196-.298.313-.606.696-.64.1-.343.38-.238.597-.254.363-.028.726-.03 1.09-.03h28.598zm1.408-13.001c-.05.256.16.262.293.333.255.137.416.39.625.569.282.243.191.7.537.87.035.018.037.13.039.2.007.323.012.647.013.97 0 .18.017.371-.195.453-.03.011-.053.061-.062.098-.106.375-.351.608-.625.868-.504.48-1.056.625-1.707.625-12.863-.008-25.725-.006-38.587-.006-.115 0-.233-.022-.343 0-.48.101-.855-.214-1.196-.441-.341-.227-.568-.65-.813-1.031-.337-.526-.194-1.02-.216-1.532-.004-.092.093-.192.15-.283.024-.04.078-.062.098-.104.126-.27.215-.569.382-.805.13-.186.352-.3.539-.438.127-.095.365-.07.317-.346h40.751z"/>
    </defs>
    <g fill="none" fill-rule="evenodd" transform="translate(-587 -18)">
        <use fill="#000" filter="url(#kyfyhd2p4a)" xlink:href="#2637j4c2db"/>
        <use fill="#FFF" xlink:href="#2637j4c2db"/>
    </g>
</svg>
